# Blender v2.81 (sub 16) OBJ File: ''
# www.blender.org
o RoadStraightSmall
v 5.000000 0.150001 -9.699999
v 5.000000 0.000002 -10.000000
v 0.000000 0.150001 -9.699999
v 0.000000 0.000001 -10.000000
v 5.000000 0.150001 -0.300001
v 5.000000 0.150000 -5.000000
v 5.000000 0.000002 0.000000
v 0.000000 0.150001 -0.300001
v 0.000000 0.000001 0.000000
v 0.000000 0.150000 -5.000000
v 0.000000 0.150000 -5.000000
v 5.000000 0.150000 -5.000000
v 5.000000 0.150001 -9.699999
v 0.000000 0.150001 -9.699999
v 0.000000 0.150001 -0.300001
v 5.000000 0.150001 -0.300001
vt 0.172325 0.254266
vt 0.270536 0.164252
vt 0.270536 0.254266
vt 0.270536 0.157829
vt 0.172325 0.164252
vt 0.172325 0.157829
vt 0.270536 0.164252
vt 0.172325 0.254266
vt 0.270536 0.254266
vt 0.172325 0.164252
vt 0.270536 0.157829
vt 0.172325 0.157829
vt 0.172325 0.164252
vt 0.270536 0.164252
vt 0.172325 0.164252
vt 0.270536 0.164252
vn 0.0000 1.0000 0.0000
vn -0.0000 0.8944 -0.4472
vn -0.0000 0.8944 0.4472
s 1
f 12/1/1 14/2/1 11/3/1
f 4/4/2 1/5/2 2/6/2
f 15/7/1 6/8/1 10/9/1
f 5/10/3 9/11/3 7/12/3
f 12/1/1 13/13/1 14/2/1
f 4/4/2 3/14/2 1/5/2
f 15/7/1 16/15/1 6/8/1
f 5/10/3 8/16/3 9/11/3
