# Blender v2.81 (sub 16) OBJ File: ''
# www.blender.org
o RoadThreeConnection
v 10.000000 0.149999 -0.300000
v 10.000001 -0.000002 0.000000
v 5.000000 0.150000 -5.000000
v 5.000000 0.150000 -5.000000
v 9.700000 0.149995 -0.300001
v 9.700000 0.149995 0.000000
v 10.000001 -0.000002 0.000000
v 10.000000 0.149999 -0.300000
v 0.000000 0.149995 -0.300001
v 5.000000 0.149999 0.000000
v 5.000000 0.149999 -0.300000
v 5.000000 0.150000 -5.000000
v 5.000000 0.149999 0.000000
v 5.000000 0.149999 -0.300000
v 5.000000 0.150000 -5.000000
v 0.300000 0.149995 -0.300001
v 0.300000 0.149995 0.000000
v -0.000001 -0.000002 0.000000
v 5.000000 0.149999 -0.300000
v 10.000000 0.150000 -9.699999
v 10.000000 0.000001 -10.000000
v 10.000000 0.150000 -5.000000
v 0.000000 0.150000 -9.699999
v 0.000000 0.000001 -10.000000
v 5.000000 0.150000 -9.699999
v 5.000000 0.000000 -10.000000
v 0.000000 0.150000 -5.000000
v 5.000000 0.149999 -0.300000
v 9.700000 0.149995 -0.300001
v 9.700000 0.149995 -0.300001
v 9.700000 0.149995 0.000000
v 0.000000 0.149995 -0.300001
v -0.000001 -0.000002 0.000000
v 0.300000 0.149995 -0.300001
v 0.300000 0.149995 -0.300001
v 5.000000 0.150000 -9.699999
v 5.000000 0.150000 -9.699999
v 5.000000 0.150000 -9.699999
v 0.000000 0.150000 -5.000000
v 0.300000 0.149995 0.000000
v 10.000000 0.150000 -5.000000
v 10.000000 0.150000 -9.699999
v 5.000000 0.000000 -10.000000
v 0.000000 0.150000 -9.699999
vt 0.739890 0.110880
vt 0.734066 0.019880
vt 0.739890 0.019800
vt 0.400139 0.527249
vt 0.308902 0.431607
vt 0.400139 0.430356
vt 0.242259 0.711908
vt 0.242612 0.705587
vt 0.248596 0.705669
vt 0.248596 0.711643
vt 0.242259 0.711908
vt 0.248596 0.705669
vt 0.734066 0.019880
vt 0.739890 0.110880
vt 0.739890 0.019800
vt 0.308902 0.431607
vt 0.400139 0.527249
vt 0.400139 0.430356
vt 0.242259 0.711908
vt 0.248596 0.705669
vt 0.242612 0.705587
vt 0.248596 0.711643
vt 0.248596 0.705669
vt 0.242259 0.711908
vt 0.172325 0.254266
vt 0.270536 0.164252
vt 0.270536 0.254266
vt 0.270536 0.157829
vt 0.172325 0.164252
vt 0.172325 0.157829
vt 0.270536 0.164252
vt 0.172325 0.254266
vt 0.270536 0.254266
vt 0.172325 0.164252
vt 0.270536 0.157829
vt 0.172325 0.157829
vt 0.734066 0.110960
vt 0.308902 0.528500
vt 0.734066 0.110960
vt 0.308902 0.528500
vt 0.172325 0.164252
vt 0.270536 0.164252
vt 0.172325 0.164252
vt 0.270536 0.164252
vn 0.0000 1.0000 0.0000
vn -0.0000 0.8944 0.4472
vn 0.4472 0.8944 0.0000
vn -0.4472 0.8944 0.0000
vn -0.0000 0.8944 -0.4472
s 1
f 6/1/1 28/2/1 13/3/1
f 12/4/1 8/5/1 22/6/1
f 2/7/2 1/8/2 29/9/2
f 31/10/3 7/11/3 30/12/3
f 11/13/1 17/14/1 10/15/1
f 32/16/1 4/17/1 27/18/1
f 18/19/2 16/20/2 9/21/2
f 40/22/4 34/23/4 33/24/4
f 41/25/1 38/26/1 3/27/1
f 43/28/5 20/29/5 21/30/5
f 25/31/1 39/32/1 15/33/1
f 44/34/5 26/35/5 24/36/5
f 6/1/1 5/37/1 28/2/1
f 12/4/1 19/38/1 8/5/1
f 11/13/1 35/39/1 17/14/1
f 32/16/1 14/40/1 4/17/1
f 41/25/1 42/41/1 38/26/1
f 43/28/5 36/42/5 20/29/5
f 25/31/1 23/43/1 39/32/1
f 44/34/5 37/44/5 26/35/5
