# Blender v2.81 (sub 16) OBJ File: ''
# www.blender.org
o RoadCorner
v -0.003858 0.000005 -6.993592
v 3.007768 0.000003 -10.000229
v 0.700000 0.150005 -7.824802
v 5.000000 0.150001 -9.699999
v 2.200000 0.150007 -9.227613
v 0.448701 0.000005 -8.006421
v 0.300001 0.150005 -6.945758
v 3.100001 0.150007 -9.699999
v 1.400000 0.150007 -8.595288
v 1.400000 0.150007 -8.595288
v 2.002367 0.000007 -9.496089
v 5.000000 0.000001 -10.000000
v 1.400000 0.150007 -8.595288
v 0.300000 0.150000 -5.000000
v 3.100001 0.150007 -9.699999
v 0.000000 0.000002 -10.000000
v 3.100001 0.150007 -9.699999
v 3.100001 0.150007 -9.699999
v 5.000000 0.150001 -9.699999
v 1.134312 0.000007 -8.856632
v 5.000000 0.150001 -9.699999
v 10.000000 0.149995 -0.300001
v 5.000000 0.149999 0.000000
v 5.000000 0.149999 -0.300000
v 5.000000 0.150001 -9.699999
v 0.300000 0.150000 -5.000000
v 0.300000 0.150000 -5.000000
v 0.300000 0.150000 -5.000000
v 9.700000 0.149995 -0.300001
v 9.700000 0.149995 0.000000
v 10.000001 -0.000002 0.000000
v 0.300001 0.150005 -6.945758
v 0.300001 0.150005 -6.945758
v 0.300001 0.150005 -6.945758
v 10.000000 0.150001 -9.699999
v 10.000000 0.150000 -5.000000
v 10.000000 0.000002 -10.000000
v 5.000000 0.150000 -5.000000
v 0.700000 0.150005 -7.824802
v 0.700000 0.150005 -7.824802
v 0.700000 0.150005 -7.824802
v 0.300001 0.149997 0.000000
v 0.000000 -0.000002 0.000000
v 0.000000 -0.000000 -5.000000
v 1.400000 0.150007 -8.595288
v 2.200000 0.150007 -9.227613
v 2.200000 0.150007 -9.227613
v 2.200000 0.150007 -9.227613
v 5.000000 0.000001 -10.000000
v 3.007768 0.000003 -10.000229
v 3.007768 0.000003 -10.000229
v 0.448701 0.000005 -8.006421
v 0.448701 0.000005 -8.006421
v 0.448701 0.000005 -8.006421
v -0.003858 0.000005 -6.993592
v -0.003858 0.000005 -6.993592
v 2.002367 0.000007 -9.496089
v 2.002367 0.000007 -9.496089
v 2.002367 0.000007 -9.496089
v 1.134312 0.000007 -8.856632
v 1.134312 0.000007 -8.856632
v 1.134312 0.000007 -8.856632
v 0.000000 0.000002 -10.000000
v 0.000000 0.000002 -10.000000
v 0.000000 0.000002 -10.000000
v 5.000000 0.150000 -5.000000
v 5.000000 0.150000 -5.000000
v 5.000000 0.150000 -5.000000
v 5.000000 0.150000 -5.000000
v 5.000000 0.150000 -5.000000
v 5.000000 0.150000 -5.000000
v 5.000000 0.150000 -5.000000
v 5.000000 0.150000 -5.000000
v 5.000000 0.149999 -0.300000
v 5.000000 0.149999 0.000000
v 10.000000 0.150001 -9.699999
v 10.000000 0.149995 -0.300001
v 0.300001 0.149997 0.000000
v 9.700000 0.149995 -0.300001
v 9.700000 0.149995 -0.300001
v 10.000001 -0.000002 0.000000
v 9.700000 0.149995 0.000000
v 10.000000 0.150000 -5.000000
v 0.000000 -0.000000 -5.000000
vt 0.172502 0.117449
vt 0.255958 0.063162
vt 0.263764 0.080344
vt 0.172502 0.117449
vt 0.263764 0.080344
vt 0.263837 0.118228
vt 0.209248 0.026254
vt 0.172502 0.117449
vt 0.172325 0.025939
vt 0.242326 0.048044
vt 0.255958 0.063162
vt 0.172502 0.117449
vt 0.226755 0.035600
vt 0.242326 0.048044
vt 0.172502 0.117449
vt 0.209248 0.026254
vt 0.226755 0.035600
vt 0.172502 0.117449
vt 0.172614 0.019800
vt 0.209248 0.026254
vt 0.172325 0.025939
vt 0.261134 0.059370
vt 0.263764 0.080344
vt 0.255958 0.063162
vt 0.247779 0.042703
vt 0.255958 0.063162
vt 0.242326 0.048044
vt 0.230886 0.030108
vt 0.242326 0.048044
vt 0.226755 0.035600
vt 0.230886 0.030108
vt 0.209248 0.026254
vt 0.211329 0.020126
vt 0.263764 0.080344
vt 0.269967 0.117981
vt 0.263837 0.118228
vt 0.579319 0.542308
vt 0.545951 0.563561
vt 0.586987 0.522129
vt 0.577054 0.563460
vt 0.545951 0.563561
vt 0.579319 0.542308
vt 0.580159 0.584227
vt 0.545951 0.563561
vt 0.577054 0.563460
vt 0.586987 0.605025
vt 0.545951 0.563561
vt 0.580159 0.584227
vt 0.739890 0.110880
vt 0.734066 0.019880
vt 0.739890 0.019800
vt 0.400139 0.527249
vt 0.308902 0.431607
vt 0.400139 0.430356
vt 0.242259 0.711908
vt 0.242612 0.705587
vt 0.248596 0.705669
vt 0.248596 0.711643
vt 0.242259 0.711908
vt 0.248596 0.705669
vt 0.172325 0.254266
vt 0.270536 0.164252
vt 0.270536 0.254266
vt 0.270536 0.157829
vt 0.172325 0.164252
vt 0.172325 0.157829
vt 0.109814 0.263614
vt 0.019800 0.361825
vt 0.019800 0.263614
vt 0.116237 0.361825
vt 0.109814 0.263614
vt 0.116237 0.263614
vt 0.211329 0.020126
vt 0.269967 0.079165
vt 0.261134 0.059370
vt 0.247779 0.042703
vt 0.226755 0.035600
vt 0.269967 0.079165
vt 0.734066 0.110960
vt 0.308902 0.528500
vt 0.172325 0.164252
vt 0.270536 0.164252
vt 0.109814 0.361825
vt 0.109814 0.361825
vn 0.0000 1.0000 0.0000
vn 0.0000 0.8944 -0.4472
vn 0.0000 0.8945 -0.4470
vn -0.4048 0.8958 -0.1834
vn -0.4101 0.8933 -0.1838
vn -0.4028 0.8967 -0.1833
vn -0.2898 0.9222 -0.2560
vn -0.3259 0.9064 -0.2689
vn -0.2765 0.9276 -0.2512
vn -0.2473 0.9153 -0.3178
vn -0.2301 0.9233 -0.3076
vn -0.2546 0.9118 -0.3221
vn -0.1932 0.9080 -0.3718
vn -0.1948 0.9020 -0.3854
vn -0.1954 0.9000 -0.3896
vn -0.4432 0.8964 0.0008
vn -0.4467 0.8947 0.0001
vn -0.4472 0.8944 0.0000
vn 0.0000 0.8944 0.4472
vn 0.4472 0.8944 0.0000
vn 0.0001 0.8946 -0.4470
vn -0.4117 0.8926 -0.1839
vn -0.3394 0.9000 -0.2737
vn -0.2239 0.9260 -0.3039
vn -0.1925 0.9102 -0.3668
vn -0.4428 0.8966 0.0009
s 1
f 67/1/1 39/2/1 32/3/1
f 68/4/1 33/5/1 28/6/1
f 15/7/1 69/8/1 21/9/1
f 13/10/1 40/11/1 70/12/1
f 46/13/1 9/14/1 71/15/1
f 8/16/1 48/17/1 38/18/1
f 49/19/2 18/20/3 25/21/2
f 52/22/4 34/23/5 41/24/6
f 61/25/7 3/26/8 45/27/9
f 58/28/10 10/29/11 5/30/12
f 57/31/13 17/32/14 51/33/15
f 7/34/16 44/35/17 27/36/18
f 54/37/1 64/38/1 1/39/1
f 60/40/1 63/41/1 6/42/1
f 59/43/1 65/44/1 20/45/1
f 2/46/1 16/47/1 11/48/1
f 30/49/1 74/50/1 75/51/1
f 66/52/1 77/53/1 83/54/1
f 31/55/19 22/56/19 29/57/19
f 82/58/20 81/59/20 79/60/20
f 36/61/1 19/62/1 73/63/1
f 12/64/2 35/65/2 37/66/2
f 26/67/1 23/68/1 72/69/1
f 43/70/18 14/71/18 84/72/18
f 49/19/2 50/73/21 18/20/3
f 52/22/4 55/74/22 34/23/5
f 61/25/7 53/75/23 3/26/8
f 58/28/10 62/76/24 10/29/11
f 57/31/13 47/77/25 17/32/14
f 7/34/16 56/78/26 44/35/17
f 30/49/1 80/79/1 74/50/1
f 66/52/1 24/80/1 77/53/1
f 36/61/1 76/81/1 19/62/1
f 12/64/2 4/82/2 35/65/2
f 26/67/1 42/83/1 23/68/1
f 43/70/18 78/84/18 14/71/18
