# Blender v2.81 (sub 16) OBJ File: ''
# www.blender.org
o SideWalkThreeConnection
v 5.000000 0.000000 -3.437500
v 3.437500 0.150000 -1.562500
v 5.000000 0.000000 -1.562500
v 3.437500 0.000000 -1.562500
v 3.437500 0.000000 -1.750000
v 3.437500 0.150000 -1.562500
v 3.437500 0.150000 -1.562500
v 5.000000 0.150000 -3.250000
v 5.000000 0.150000 -3.437500
v 3.437500 0.150000 -3.437500
v 5.000000 0.150000 -1.562500
v 5.000000 0.150000 -1.750000
v 3.437500 0.150000 -1.750000
v 3.437500 0.150000 -3.250000
v 3.437500 0.000000 -5.000000
v 3.437500 0.000000 0.000000
v 3.437500 0.150000 -3.437500
v 3.437500 0.150000 -3.437500
v 1.562500 0.000000 -5.000000
v 1.562500 0.000000 0.000000
v 3.437500 0.150000 -3.437500
v 1.750000 0.000000 -2.500000
v 3.437500 0.150000 -3.437500
v 5.000000 0.150000 -3.437500
v 3.250000 0.000000 -5.000000
v 3.250000 0.000000 -3.437500
v 3.250000 0.150000 0.000000
v 3.437500 0.150000 0.000000
v 3.437500 0.150000 -1.562500
v 3.437500 0.150000 -5.000000
v 1.562500 0.150000 0.000000
v 1.750000 0.150000 0.000000
v 1.750000 0.150000 -2.500000
v 1.750000 0.150000 -5.000000
v 1.562500 0.150000 -5.000000
v 1.562500 0.150000 -2.500000
v 3.250000 0.150000 -3.437500
v 3.250000 0.150000 -5.000000
v 3.250000 0.150000 -1.562500
v 3.250000 0.000000 -3.250000
v 3.250000 0.000000 -1.562500
v 3.250000 0.150000 -3.250000
v 3.250000 0.000000 -1.750000
v 3.250000 0.150000 -1.750000
v 5.000000 0.150000 -3.437500
v 3.437500 0.150000 -3.250000
v 3.437500 0.150000 -3.250000
v 3.437500 0.150000 -3.250000
v 5.000000 0.150000 -3.250000
v 5.000000 0.150000 -3.250000
v 5.000000 0.150000 -1.750000
v 3.437500 0.000000 -3.437500
v 1.562500 0.000000 -2.500000
v 0.000000 0.000000 -5.001388
v -0.000000 0.000000 0.000000
v 5.000000 0.000000 -5.001388
v 5.000000 0.000000 0.000000
v 0.000000 0.000000 -2.500694
v 5.000000 0.000000 -1.750000
v 5.000000 0.150000 -1.750000
v 1.750000 0.000000 0.000000
v 3.437500 0.150000 -1.750000
v 3.250000 0.000000 0.000000
v 3.437500 0.150000 -1.750000
v 3.437500 0.150000 -1.750000
v 3.437500 0.000000 -1.750000
v 3.437500 0.000000 -1.750000
v 3.437500 0.000000 -3.249999
v 5.000000 0.000000 -3.249999
v 3.437500 0.000000 -1.750000
v 1.750000 0.000000 -5.000000
v 1.750000 0.000000 -3.437500
v 1.750000 0.000000 -3.250000
v 1.750000 0.000000 -1.562500
v 1.750000 0.000000 -1.750000
v 3.437500 0.150000 -1.562500
v 5.000000 0.150000 -1.562500
v 5.000000 0.150000 -1.562500
v 3.437500 0.000000 -1.562500
v 3.437500 0.000000 -1.562500
v 5.000000 0.000000 -1.562500
v 5.000000 0.000000 -1.562500
v 5.000000 0.000000 -3.437500
v 5.000000 0.000000 -3.437500
v 1.750000 0.000000 -2.500000
v 1.750000 0.150000 -2.500000
v 1.750000 0.150000 -2.500000
v 1.750000 0.150000 -2.500000
v 1.750000 0.150000 0.000000
v 1.750000 0.150000 0.000000
v 1.750000 0.150000 -5.000000
v 1.750000 0.150000 -5.000000
v 3.250000 0.150000 -3.437500
v 3.250000 0.150000 -3.437500
v 3.250000 0.150000 -3.437500
v 3.250000 0.150000 -5.000000
v 3.250000 0.150000 -5.000000
v 3.250000 0.000000 -5.000000
v 3.250000 0.000000 -5.000000
v 3.250000 0.000000 -3.437500
v 3.250000 0.000000 -3.437500
v 3.250000 0.000000 -3.437500
v 3.250000 0.150000 -3.250000
v 3.250000 0.150000 -3.250000
v 3.250000 0.000000 -3.250000
v 3.250000 0.000000 -3.250000
v 3.250000 0.000000 -3.250000
v 3.250000 0.000000 -3.250000
v 1.562500 0.150000 -2.500000
v 1.562500 0.150000 -2.500000
v 1.562500 0.150000 -2.500000
v 1.562500 0.150000 0.000000
v 1.562500 0.150000 0.000000
v 1.562500 0.150000 -5.000000
v 1.562500 0.150000 -5.000000
v 3.437500 0.150000 0.000000
v 3.437500 0.150000 0.000000
v 3.250000 0.150000 -1.562500
v 3.250000 0.150000 -1.562500
v 3.250000 0.150000 -1.562500
v 3.250000 0.150000 0.000000
v 3.250000 0.150000 0.000000
v 1.750000 0.000000 -5.000000
v 1.750000 0.000000 -5.000000
v 1.562500 0.000000 0.000000
v 1.562500 0.000000 0.000000
v 3.437500 0.000000 0.000000
v 3.437500 0.000000 0.000000
v 3.437500 0.150000 -5.000000
v 3.437500 0.150000 -5.000000
v 1.750000 0.000000 0.000000
v 1.750000 0.000000 0.000000
v 1.562500 0.000000 -5.000000
v 1.562500 0.000000 -5.000000
v 3.437500 0.000000 -5.000000
v 3.437500 0.000000 -5.000000
v 3.250000 0.000000 -1.562500
v 3.250000 0.000000 -1.562500
v 3.250000 0.000000 -1.562500
v 3.437500 0.000000 -3.437500
v 3.437500 0.000000 -3.437500
v 3.250000 0.000000 -1.750000
v 3.250000 0.000000 -1.750000
v 3.250000 0.000000 -1.750000
v 3.250000 0.000000 -1.750000
v 3.250000 0.150000 -1.750000
v 3.250000 0.150000 -1.750000
v 0.000000 0.000000 -2.500694
v 1.562500 0.000000 -2.500000
v 1.562500 0.000000 -2.500000
v 1.562500 0.000000 -2.500000
v 3.437500 0.000000 -3.249999
v 3.437500 0.000000 -3.249999
v 3.437500 0.000000 -3.249999
v 5.000000 0.000000 -3.249999
v 5.000000 0.000000 -3.249999
v 5.000000 0.000000 -1.750000
v 5.000000 0.000000 -1.750000
v 1.750000 0.000000 -3.437500
v 1.750000 0.000000 -3.250000
v 1.750000 0.000000 -1.562500
v 3.250000 0.000000 0.000000
v 3.250000 0.000000 0.000000
v 1.750000 0.000000 -1.750000
vt 0.774760 0.460633
vt 0.771848 0.430356
vt 0.774760 0.430356
vt 0.930628 0.327777
vt 0.927716 0.297500
vt 0.930628 0.297500
vt 0.493874 0.774820
vt 0.524207 0.771187
vt 0.524207 0.774820
vt 0.768208 0.430356
vt 0.771848 0.460633
vt 0.768208 0.460633
vt 0.019800 0.908014
vt 0.022712 0.938292
vt 0.019800 0.938292
vt 0.952453 0.119956
vt 0.949541 0.089678
vt 0.952453 0.089678
vt 0.315864 0.963521
vt 0.318776 0.967154
vt 0.315864 0.967154
vt 0.107845 0.957180
vt 0.110757 0.953546
vt 0.110757 0.957180
vt 0.779490 0.068245
vt 0.782402 0.116689
vt 0.779490 0.116689
vt 0.779490 0.019800
vt 0.782402 0.068244
vt 0.779490 0.068245
vt 0.394208 0.930507
vt 0.391296 0.900229
vt 0.394208 0.900229
vt 0.927716 0.297500
vt 0.930628 0.293866
vt 0.930628 0.297500
vt 0.342875 0.758724
vt 0.294431 0.762364
vt 0.294431 0.758724
vt 0.294431 0.758724
vt 0.245986 0.762364
vt 0.245986 0.758724
vt 0.768208 0.460633
vt 0.737875 0.464267
vt 0.737875 0.460633
vt 0.784566 0.522129
vt 0.787478 0.570573
vt 0.784566 0.570573
vt 0.841965 0.384854
vt 0.872243 0.381942
vt 0.872243 0.384854
vt 0.527847 0.771187
vt 0.524207 0.740909
vt 0.527847 0.740909
vt 0.784566 0.570573
vt 0.787478 0.619017
vt 0.784566 0.619017
vt 0.788098 0.973249
vt 0.785186 0.969615
vt 0.788098 0.969615
vt 0.940197 0.953030
vt 0.943109 0.956663
vt 0.940197 0.956663
vt 0.938025 0.242721
vt 0.935113 0.246355
vt 0.935113 0.242721
vt 0.248898 0.956309
vt 0.245986 0.959943
vt 0.245986 0.956309
vt 0.935113 0.172843
vt 0.938025 0.203121
vt 0.935113 0.203121
vt 0.527847 0.771187
vt 0.524207 0.774820
vt 0.524207 0.771187
vt 0.391296 0.900229
vt 0.394208 0.896596
vt 0.394208 0.900229
vt 0.549585 0.647538
vt 0.579862 0.644626
vt 0.579862 0.647538
vt 0.771848 0.464267
vt 0.774760 0.460633
vt 0.774760 0.464267
vt 0.771848 0.460633
vt 0.768208 0.464267
vt 0.768208 0.460633
vt 0.545951 0.647538
vt 0.549585 0.644626
vt 0.549585 0.647538
vt 0.202658 0.789998
vt 0.172325 0.820276
vt 0.172325 0.789998
vt 0.578913 0.019827
vt 0.609246 0.068258
vt 0.578913 0.068271
vt 0.609246 0.116716
vt 0.578913 0.068271
vt 0.609246 0.068258
vt 0.245986 0.832297
vt 0.276264 0.801964
vt 0.276264 0.832297
vt 0.743752 0.815472
vt 0.740119 0.786352
vt 0.743752 0.786352
vt 0.709841 0.815472
vt 0.740119 0.786352
vt 0.740119 0.815472
vt 0.647405 0.360477
vt 0.618286 0.356844
vt 0.647405 0.356844
vt 0.647405 0.360477
vt 0.618286 0.390755
vt 0.618286 0.360477
vt 0.647405 0.324144
vt 0.618286 0.293866
vt 0.647405 0.293866
vt 0.647405 0.327777
vt 0.618286 0.324144
vt 0.647405 0.324144
vt 0.618286 0.327777
vt 0.647405 0.356844
vt 0.618286 0.356844
vt 0.771848 0.460633
vt 0.927716 0.327777
vt 0.493874 0.771187
vt 0.771848 0.430356
vt 0.022712 0.908014
vt 0.949541 0.119956
vt 0.318776 0.963521
vt 0.107845 0.953546
vt 0.782402 0.068244
vt 0.782402 0.019800
vt 0.391296 0.930507
vt 0.927716 0.293866
vt 0.342875 0.762364
vt 0.294431 0.762364
vt 0.768208 0.464267
vt 0.787478 0.522129
vt 0.841965 0.381942
vt 0.524207 0.771187
vt 0.787478 0.570573
vt 0.785186 0.973249
vt 0.943109 0.953030
vt 0.938025 0.246355
vt 0.248898 0.959943
vt 0.938025 0.172843
vt 0.527847 0.774820
vt 0.391296 0.896596
vt 0.549585 0.644626
vt 0.771848 0.460633
vt 0.771848 0.464267
vt 0.545951 0.644626
vt 0.202658 0.820303
vt 0.609246 0.019800
vt 0.578913 0.116716
vt 0.245986 0.801964
vt 0.740119 0.815472
vt 0.709841 0.786352
vt 0.618286 0.360477
vt 0.647405 0.390755
vt 0.618286 0.324144
vt 0.618286 0.327777
vt 0.647405 0.327777
vn 0.0000 0.0000 -1.0000
vn 0.0000 0.0000 1.0000
vn 0.0000 1.0000 0.0000
vn 1.0000 0.0000 0.0000
vn -1.0000 0.0000 0.0000
s 1
f 67/1/1 51/2/1 158/3/1
f 156/4/2 46/5/2 152/6/2
f 50/7/3 23/8/3 48/9/3
f 77/10/3 64/11/3 7/12/3
f 81/13/2 6/14/2 79/15/2
f 140/16/1 24/17/1 83/18/1
f 84/19/4 8/20/4 69/21/4
f 82/22/4 12/23/4 11/24/4
f 85/25/4 90/26/4 132/27/4
f 124/28/4 33/29/4 22/30/4
f 96/31/5 100/32/5 93/33/5
f 14/34/2 106/35/2 153/36/2
f 112/37/3 87/38/3 109/39/3
f 110/40/3 91/41/3 114/42/3
f 2/43/3 121/44/3 116/45/3
f 125/46/5 111/47/5 150/48/5
f 80/49/4 117/50/4 127/51/4
f 94/52/3 129/53/3 97/54/3
f 151/55/5 115/56/5 133/57/5
f 128/58/2 122/59/2 163/60/2
f 31/61/2 61/62/2 32/63/2
f 35/64/1 71/65/1 134/66/1
f 135/67/1 38/68/1 130/69/1
f 136/70/4 10/71/4 141/72/4
f 95/73/3 47/74/3 17/75/3
f 101/76/5 104/77/5 37/78/5
f 39/79/5 63/80/5 27/81/5
f 146/82/1 70/83/1 142/84/1
f 13/85/3 120/86/3 76/87/3
f 44/88/5 137/89/5 119/90/5
f 1/91/3 15/92/3 52/93/3
f 19/94/3 148/95/3 149/96/3
f 55/97/3 53/98/3 58/99/3
f 16/100/3 3/101/3 4/102/3
f 144/103/3 154/104/3 107/105/3
f 157/106/3 68/107/3 5/108/3
f 102/109/3 160/110/3 108/111/3
f 26/112/3 123/113/3 72/114/3
f 139/115/3 131/116/3 162/117/3
f 145/118/3 74/119/3 41/120/3
f 75/121/3 40/122/3 73/123/3
f 67/1/1 62/124/1 51/2/1
f 156/4/2 49/125/2 46/5/2
f 50/7/3 45/126/3 23/8/3
f 77/10/3 60/127/3 64/11/3
f 81/13/2 78/128/2 6/14/2
f 140/16/1 18/129/1 24/17/1
f 84/19/4 9/130/4 8/20/4
f 82/22/4 59/131/4 12/23/4
f 85/25/4 86/132/4 90/26/4
f 124/28/4 92/133/4 33/29/4
f 96/31/5 98/134/5 100/32/5
f 14/34/2 42/135/2 106/35/2
f 112/37/3 89/136/3 87/38/3
f 110/40/3 88/137/3 91/41/3
f 2/43/3 118/138/3 121/44/3
f 125/46/5 113/139/5 111/47/5
f 80/49/4 29/140/4 117/50/4
f 94/52/3 21/141/3 129/53/3
f 151/55/5 36/142/5 115/56/5
f 128/58/2 28/143/2 122/59/2
f 31/61/2 126/144/2 61/62/2
f 35/64/1 34/145/1 71/65/1
f 135/67/1 99/146/1 38/68/1
f 136/70/4 30/147/4 10/71/4
f 95/73/3 103/148/3 47/74/3
f 101/76/5 105/149/5 104/77/5
f 39/79/5 138/150/5 63/80/5
f 146/82/1 65/151/1 70/83/1
f 13/85/3 147/152/3 120/86/3
f 44/88/5 143/153/5 137/89/5
f 1/91/3 56/154/3 15/92/3
f 19/94/3 54/155/3 148/95/3
f 55/97/3 20/156/3 53/98/3
f 16/100/3 57/157/3 3/101/3
f 144/103/3 66/158/3 154/104/3
f 157/106/3 155/159/3 68/107/3
f 102/109/3 159/160/3 160/110/3
f 26/112/3 25/161/3 123/113/3
f 139/115/3 161/162/3 131/116/3
f 145/118/3 164/163/3 74/119/3
f 75/121/3 43/164/3 40/122/3
