# Blender v2.81 (sub 16) OBJ File: ''
# www.blender.org
o SideWalkDiagonalMarginSmallRight
v 0.093800 0.000000 -2.593700
v 0.093800 0.150001 -2.593700
v -0.000000 0.150001 -2.499998
v -0.000000 0.000000 -2.499998
v 0.093800 0.150001 -2.593700
v 2.500000 0.150001 0.000000
v 2.640625 0.150001 0.000000
v 0.093800 0.150001 -2.593700
v 2.640625 0.150001 0.000000
v 2.640594 0.000000 0.000000
v 5.000000 0.000000 -2.500000
v 2.640625 0.150001 0.000000
v 2.500000 0.150001 0.000000
v 5.000000 0.000000 0.000000
v 2.500000 0.000000 0.000000
v 2.500000 0.150001 0.000000
v 0.000000 -0.010370 0.000000
v -0.000000 0.150001 -2.499998
v -0.000000 0.150001 -2.499998
v 0.093800 0.000000 -2.593700
v -0.000000 0.000000 -2.499998
v -0.000000 0.000000 -2.499998
v -0.000000 0.000000 -2.499998
v 2.500000 0.000000 0.000000
v 2.500000 0.000000 0.000000
v 2.640594 0.000000 0.000000
v 2.640594 0.000000 0.000000
vt 0.570022 0.809420
vt 0.567447 0.743479
vt 0.570022 0.740909
vt 0.806825 0.243801
vt 0.809760 0.175408
vt 0.809760 0.243801
vt 0.830514 0.685082
vt 0.827078 0.627922
vt 0.830514 0.627922
vt 0.830514 0.627922
vt 0.827078 0.624708
vt 0.830514 0.624707
vt 0.806825 0.175408
vt 0.809759 0.172843
vt 0.809760 0.175408
vt 0.445658 0.390755
vt 0.494191 0.345035
vt 0.494191 0.390755
vt 0.624718 0.430356
vt 0.624718 0.478845
vt 0.576229 0.430445
vt 0.568092 0.811347
vt 0.806825 0.175408
vt 0.827078 0.685082
vt 0.827078 0.627922
vt 0.806825 0.172843
vt 0.445658 0.293866
vn 0.0000 1.0000 -0.0000
vn 0.7135 -0.0001 -0.7006
vn 0.7135 -0.0000 -0.7006
vn -0.7071 0.0000 0.7071
vn 0.0000 0.0000 1.0000
vn -0.7067 0.0000 -0.7075
vn -0.0041 1.0000 0.0041
s 1
f 16/1/1 8/2/1 18/3/1
f 26/4/2 5/5/3 9/6/2
f 19/7/4 25/8/4 13/9/4
f 6/10/5 27/11/5 7/12/5
f 1/13/6 3/14/6 2/15/6
f 11/16/1 10/17/1 14/18/1
f 17/19/7 24/20/7 4/21/7
f 16/1/1 12/22/1 8/2/1
f 26/4/2 20/23/3 5/5/3
f 19/7/4 21/24/4 25/8/4
f 6/10/5 15/25/5 27/11/5
f 1/13/6 22/26/6 3/14/6
f 11/16/1 23/27/1 10/17/1
