# Blender v2.81 (sub 16) OBJ File: ''
# www.blender.org
o SideWalkTwoMarginEnd
v 0.000000 0.000000 0.000027
v 1.562500 0.150000 -0.000001
v 1.562500 0.000000 -0.000001
v 5.000000 0.000000 -0.000001
v 4.812500 0.150000 0.000000
v 5.000000 0.150000 -0.000001
v 1.562500 0.150000 -0.000001
v 0.000000 0.150000 -0.000001
v 0.000000 0.150000 -0.187501
v 1.562500 0.150000 -0.187501
v 4.812500 0.150000 -0.187501
v 5.000000 0.000000 -0.187500
v 4.812500 0.000000 -0.187501
v 5.000000 0.150000 -0.187501
v 4.812500 0.000000 -0.000001
v 1.562500 0.150000 -0.000001
v 1.562500 0.150000 -0.000001
v 3.437500 0.000000 -2.500000
v 1.562500 0.000000 -0.187501
v 1.562500 0.000000 -0.000001
v 5.000000 0.150000 -0.187501
v 1.750000 0.000000 -2.500000
v 5.000000 0.150000 -0.187501
v 1.750000 0.150000 -2.500000
v 1.562500 0.150000 -2.500000
v 3.437500 0.150000 -2.500000
v 3.250000 0.150000 -2.500000
v 3.250000 0.150000 -0.187501
v 3.437500 0.150000 -0.187501
v 3.437500 0.150000 0.000000
v 3.437500 0.000000 0.000000
v 3.250000 0.150000 0.000000
v 3.250000 0.000000 0.000000
v 4.812500 0.150000 -0.187501
v 1.750000 0.150000 -0.000001
v 1.750000 0.150000 -0.187501
v 0.000000 0.000000 -0.187501
v 4.812500 0.150000 -0.187501
v 1.562500 0.000000 -2.500000
v 4.812500 0.150000 -0.187501
v 4.812500 0.000000 -0.187501
v 3.437500 0.000000 -0.187501
v 5.000000 0.000000 -2.500000
v 0.000000 0.000000 -2.500000
v 5.000000 0.000000 -0.187500
v 1.750000 0.000000 -0.187501
v 1.750000 0.000000 -0.000001
v 3.250000 0.000000 -0.187501
v 3.250000 0.000000 -2.500000
v 5.000000 0.000000 -0.187500
v 0.000000 0.150000 -0.000001
v 0.000000 0.150000 -0.000001
v 0.000000 0.000000 0.000027
v 5.000000 0.000000 -0.000001
v 5.000000 0.150000 -0.000001
v 5.000000 0.150000 -0.000001
v 0.000000 0.150000 -0.187501
v 0.000000 0.150000 -0.187501
v 1.562500 0.150000 -0.187501
v 1.562500 0.150000 -0.187501
v 1.562500 0.150000 -0.187501
v 1.562500 0.150000 -0.187501
v 1.562500 0.000000 -0.187501
v 1.562500 0.000000 -0.187501
v 4.812500 0.150000 0.000000
v 4.812500 0.150000 0.000000
v 4.812500 0.150000 0.000000
v 3.250000 0.150000 -0.187501
v 3.250000 0.150000 -0.187501
v 3.250000 0.150000 -0.187501
v 3.250000 0.150000 -2.500000
v 3.250000 0.150000 -2.500000
v 4.812500 0.000000 -0.000001
v 1.750000 0.000000 -2.500000
v 1.750000 0.000000 -2.500000
v 1.750000 0.150000 -2.500000
v 1.750000 0.150000 -2.500000
v 1.750000 0.150000 -0.187501
v 1.750000 0.150000 -0.187501
v 1.750000 0.150000 -0.187501
v 3.437500 0.150000 0.000000
v 3.437500 0.150000 0.000000
v 3.437500 0.150000 0.000000
v 1.562500 0.150000 -2.500000
v 1.562500 0.150000 -2.500000
v 3.437500 0.150000 -0.187501
v 3.437500 0.150000 -0.187501
v 3.437500 0.150000 -0.187501
v 3.437500 0.150000 -0.187501
v 3.437500 0.150000 -2.500000
v 3.437500 0.150000 -2.500000
v 1.562500 0.000000 -2.500000
v 1.562500 0.000000 -2.500000
v 3.437500 0.000000 -2.500000
v 3.437500 0.000000 -2.500000
v 0.000000 0.000000 -0.187501
v 0.000000 0.000000 -0.187501
v 3.250000 0.000000 0.000000
v 3.250000 0.000000 0.000000
v 3.250000 0.150000 0.000000
v 3.250000 0.150000 0.000000
v 3.437500 0.000000 0.000000
v 1.750000 0.150000 -0.000001
v 1.750000 0.150000 -0.000001
v 1.750000 0.000000 -0.187501
v 1.750000 0.000000 -0.187501
v 1.750000 0.000000 -0.187501
v 3.250000 0.000000 -0.187501
v 3.250000 0.000000 -0.187501
v 3.250000 0.000000 -0.187501
v 3.250000 0.000000 -2.500000
v 3.250000 0.000000 -2.500000
v 1.750000 0.000000 -0.000001
v 1.750000 0.000000 -0.000001
v 3.437500 0.000000 -0.187501
v 3.437500 0.000000 -0.187501
vt 0.740525 0.156478
vt 0.736891 0.159390
vt 0.736891 0.156478
vt 0.199746 0.932693
vt 0.202658 0.902416
vt 0.202658 0.932693
vt 0.745586 0.973249
vt 0.742674 0.969615
vt 0.745586 0.969615
vt 0.342875 0.719123
vt 0.312542 0.715490
vt 0.342875 0.715490
vt 0.940197 0.913429
vt 0.943109 0.883152
vt 0.943109 0.913429
vt 0.397035 0.571735
vt 0.399947 0.568101
vt 0.399947 0.571735
vt 0.667957 0.475145
vt 0.664319 0.478775
vt 0.664319 0.475139
vt 0.830712 0.727594
vt 0.875523 0.724682
vt 0.875523 0.727594
vt 0.391296 0.856995
vt 0.436107 0.854083
vt 0.436107 0.856995
vt 0.308902 0.670679
vt 0.312542 0.715490
vt 0.308902 0.715490
vt 0.694636 0.430356
vt 0.698274 0.475195
vt 0.694636 0.475189
vt 0.897685 0.883152
vt 0.900596 0.927963
vt 0.897685 0.927963
vt 0.912627 0.624707
vt 0.915539 0.669518
vt 0.912627 0.669518
vt 0.566389 0.941904
vt 0.570022 0.938992
vt 0.570022 0.941904
vt 0.957636 0.728316
vt 0.960548 0.724682
vt 0.960548 0.728316
vt 0.827078 0.724682
vt 0.830712 0.727594
vt 0.827078 0.727594
vt 0.767169 0.156478
vt 0.740525 0.159390
vt 0.740525 0.156478
vt 0.667957 0.475145
vt 0.694636 0.478825
vt 0.667957 0.478781
vt 0.694636 0.475189
vt 0.698274 0.478831
vt 0.694636 0.478825
vt 0.915123 0.724682
vt 0.918035 0.728315
vt 0.915123 0.728315
vt 0.915123 0.728315
vt 0.918035 0.754960
vt 0.915123 0.754960
vt 0.439740 0.854083
vt 0.436107 0.856995
vt 0.436107 0.854083
vt 0.202658 0.932693
vt 0.199746 0.936327
vt 0.199746 0.932693
vt 0.312542 0.719123
vt 0.308902 0.715490
vt 0.312542 0.715490
vt 0.958052 0.667941
vt 0.955140 0.671575
vt 0.955140 0.667941
vt 0.202658 0.750398
vt 0.172325 0.705587
vt 0.202658 0.705587
vt 0.454273 0.771242
vt 0.409462 0.740909
vt 0.454273 0.740909
vt 0.630220 0.727516
vt 0.675031 0.698396
vt 0.675031 0.727516
vt 0.626587 0.727516
vt 0.630220 0.698396
vt 0.630220 0.727516
vt 0.740525 0.159390
vt 0.199746 0.902416
vt 0.742674 0.973249
vt 0.312542 0.719123
vt 0.940197 0.883152
vt 0.397035 0.568101
vt 0.667957 0.478781
vt 0.830712 0.724682
vt 0.391296 0.854083
vt 0.312542 0.670679
vt 0.698274 0.430362
vt 0.900596 0.883152
vt 0.915539 0.624707
vt 0.566389 0.938992
vt 0.957636 0.724682
vt 0.830712 0.724682
vt 0.767169 0.159390
vt 0.694636 0.475189
vt 0.698274 0.475195
vt 0.918035 0.724682
vt 0.918035 0.728315
vt 0.439740 0.856995
vt 0.202658 0.936327
vt 0.308902 0.719123
vt 0.958052 0.671575
vt 0.172325 0.750398
vt 0.409462 0.771242
vt 0.630220 0.698396
vt 0.626587 0.698396
vn 0.0000 -0.0000 -1.0000
vn 0.0000 0.0000 1.0000
vn 0.0000 0.0002 1.0000
vn 1.0000 0.0000 0.0000
vn 0.0000 1.0000 0.0000
vn -1.0000 -0.0000 0.0000
s 1
f 41/1/1 23/2/1 50/3/1
f 17/4/2 53/5/3 20/6/2
f 45/7/4 55/8/4 54/9/4
f 52/10/5 59/11/5 57/12/5
f 58/13/1 63/14/1 97/15/1
f 37/16/6 8/17/6 9/18/6
f 38/19/5 56/20/5 14/21/5
f 109/22/6 72/23/6 111/24/6
f 74/25/4 80/26/4 107/27/4
f 77/28/5 61/29/5 78/30/5
f 90/31/5 68/32/5 86/33/5
f 94/34/4 88/35/4 115/36/4
f 64/37/6 85/38/6 93/39/6
f 39/40/1 24/41/1 75/42/1
f 95/43/1 27/44/1 26/45/1
f 32/46/6 110/47/6 99/48/6
f 116/49/1 11/50/1 13/51/1
f 34/52/5 81/53/5 66/54/5
f 29/55/5 101/56/5 82/57/5
f 100/58/2 102/59/2 83/60/2
f 30/61/2 73/62/2 67/63/2
f 104/64/4 106/65/4 36/66/4
f 3/67/2 35/68/2 7/69/2
f 2/70/5 79/71/5 62/72/5
f 6/73/2 15/74/2 4/75/2
f 42/76/5 43/77/5 18/78/5
f 19/79/5 44/80/5 96/81/5
f 105/82/5 49/83/5 22/84/5
f 47/85/5 48/86/5 46/87/5
f 41/1/1 40/88/1 23/2/1
f 17/4/2 51/89/3 53/5/3
f 45/7/4 21/90/4 55/8/4
f 52/10/5 16/91/5 59/11/5
f 58/13/1 60/92/1 63/14/1
f 37/16/6 1/93/6 8/17/6
f 38/19/5 65/94/5 56/20/5
f 109/22/6 70/95/6 72/23/6
f 74/25/4 76/96/4 80/26/4
f 77/28/5 84/97/5 61/29/5
f 90/31/5 71/98/5 68/32/5
f 94/34/4 91/99/4 88/35/4
f 64/37/6 10/100/6 85/38/6
f 39/40/1 25/101/1 24/41/1
f 95/43/1 112/102/1 27/44/1
f 32/46/6 28/103/6 110/47/6
f 116/49/1 89/104/1 11/50/1
f 34/52/5 87/105/5 81/53/5
f 29/55/5 69/106/5 101/56/5
f 100/58/2 98/107/2 102/59/2
f 30/61/2 31/108/2 73/62/2
f 104/64/4 113/109/4 106/65/4
f 3/67/2 114/110/2 35/68/2
f 2/70/5 103/111/5 79/71/5
f 6/73/2 5/112/2 15/74/2
f 42/76/5 12/113/5 43/77/5
f 19/79/5 92/114/5 44/80/5
f 105/82/5 108/115/5 49/83/5
f 47/85/5 33/116/5 48/86/5
