# Blender v2.81 (sub 16) OBJ File: ''
# www.blender.org
o SideWalkStraightSmall
v 3.437500 0.150000 -2.500000
v 3.250000 0.000000 0.000000
v 3.437500 0.150000 -2.500000
v 1.562500 0.000000 -2.500000
v 3.437500 0.150000 0.000000
v 3.437500 0.000000 -2.500000
v 3.437500 0.150000 0.000000
v 3.250000 0.150000 -2.500000
v 1.562500 0.150000 -2.500000
v 1.562500 0.150000 0.000000
v 3.250000 0.150000 -2.500000
v 3.250000 0.150000 -0.000000
v 3.437500 0.150000 0.000000
v 3.437500 0.150000 -2.500000
v 1.750000 0.150000 -2.500000
v 1.750000 0.150000 0.000000
v 3.250000 0.150000 -2.500000
v 3.250000 0.150000 -0.000000
v 1.562500 0.000000 0.000000
v 3.437500 0.000000 -0.000000
v 5.000000 0.000000 0.000000
v 0.000000 0.000000 0.000000
v 5.000000 0.000000 -2.500000
v 3.250000 0.150000 -0.000000
v 0.000000 0.000000 -2.500000
v 3.250000 0.000000 0.000000
v 1.750000 0.000000 0.000000
v 1.750000 0.000000 -2.500000
v 3.250000 0.000000 -2.500000
v 3.250000 0.000000 0.000000
v 1.750000 0.150000 0.000000
v 1.750000 0.150000 0.000000
v 1.750000 0.150000 -2.500000
v 1.750000 0.150000 -2.500000
v 1.562500 0.150000 -2.500000
v 1.562500 0.150000 -2.500000
v 1.562500 0.150000 0.000000
v 1.562500 0.150000 0.000000
v 1.562500 0.000000 -2.500000
v 1.562500 0.000000 -2.500000
v 1.562500 0.000000 0.000000
v 1.562500 0.000000 0.000000
v 1.750000 0.000000 -2.500000
v 1.750000 0.000000 -2.500000
v 3.437500 0.000000 -2.500000
v 3.437500 0.000000 -2.500000
v 1.750000 0.000000 0.000000
v 1.750000 0.000000 0.000000
v 3.437500 0.000000 -0.000000
v 3.437500 0.000000 -0.000000
v 3.250000 0.000000 -2.500000
v 3.250000 0.000000 -2.500000
vt 0.903026 0.478800
vt 0.900114 0.430356
vt 0.903026 0.430356
vt 0.856873 0.430356
vt 0.860513 0.478800
vt 0.856873 0.478800
vt 0.849360 0.172843
vt 0.853000 0.221287
vt 0.849360 0.221287
vt 0.019800 0.783388
vt 0.068245 0.780476
vt 0.068245 0.783388
vt 0.700161 0.886781
vt 0.748605 0.883869
vt 0.748605 0.886781
vt 0.756940 0.342310
vt 0.759852 0.390755
vt 0.756940 0.390755
vt 0.615028 0.930015
vt 0.612116 0.926382
vt 0.615028 0.926381
vt 0.957268 0.381942
vt 0.954356 0.385575
vt 0.954356 0.381942
vt 0.199746 0.975927
vt 0.202658 0.979561
vt 0.199746 0.979561
vt 0.970229 0.340734
vt 0.973141 0.337100
vt 0.973141 0.340734
vt 0.269214 0.597266
vt 0.220769 0.566933
vt 0.269214 0.566933
vt 0.457907 0.628463
vt 0.506351 0.658796
vt 0.457906 0.658796
vt 0.172325 0.665986
vt 0.220769 0.636866
vt 0.220769 0.665986
vt 0.900114 0.478800
vt 0.860513 0.430356
vt 0.853000 0.172843
vt 0.019800 0.780476
vt 0.700161 0.883869
vt 0.759852 0.342310
vt 0.612116 0.930015
vt 0.957268 0.385575
vt 0.202658 0.975927
vt 0.970229 0.337100
vt 0.220769 0.597266
vt 0.506351 0.628463
vt 0.172325 0.636866
vn -1.0000 0.0000 0.0000
vn 0.0000 1.0000 0.0000
vn 1.0000 0.0000 -0.0000
vn 0.0000 0.0000 1.0000
vn 0.0000 0.0000 -1.0000
s 1
f 30/1/1 8/2/1 52/3/1
f 3/4/2 18/5/2 7/6/2
f 33/7/2 37/8/2 31/9/2
f 42/10/1 36/11/1 39/12/1
f 43/13/3 32/14/3 47/15/3
f 45/16/3 5/17/3 50/18/3
f 12/19/4 20/20/4 13/21/4
f 19/22/4 16/23/4 10/24/4
f 15/25/5 40/26/5 9/27/5
f 46/28/5 11/29/5 14/30/5
f 21/31/2 6/32/2 49/33/2
f 25/34/2 41/35/2 4/36/2
f 27/37/2 51/38/2 44/39/2
f 30/1/1 24/40/1 8/2/1
f 3/4/2 17/41/2 18/5/2
f 33/7/2 35/42/2 37/8/2
f 42/10/1 38/43/1 36/11/1
f 43/13/3 34/44/3 32/14/3
f 45/16/3 1/45/3 5/17/3
f 12/19/4 26/46/4 20/20/4
f 19/22/4 48/47/4 16/23/4
f 15/25/5 28/48/5 40/26/5
f 46/28/5 29/49/5 11/29/5
f 21/31/2 23/50/2 6/32/2
f 25/34/2 22/51/2 41/35/2
f 27/37/2 2/52/2 51/38/2
