# Blender v2.81 (sub 16) OBJ File: ''
# www.blender.org
o SideWalkStairsLeftGrass
v 0.000000 0.000000 -2.500027
v 0.000000 0.000000 -2.312499
v 2.500000 0.000000 -2.499999
v 4.812500 0.150000 -2.312499
v 5.000000 0.000000 -2.499999
v 4.812500 0.150000 -2.499999
v 5.000000 0.150000 -2.499999
v 2.500000 0.150000 -2.499999
v 0.000000 0.150000 -2.499999
v 0.000000 0.150000 -2.312499
v 2.500000 0.150000 -2.312499
v 4.812500 0.150000 -2.312499
v 5.000000 0.000000 -5.000000
v 4.812500 0.150000 -5.000000
v 5.000000 0.150000 -5.000000
v 4.812500 0.150000 -2.312499
v 5.000000 0.000000 -2.312499
v 4.812500 0.150000 -2.312499
v 5.000000 0.150000 -2.312499
v 5.000000 0.150000 -2.312499
v 5.000000 0.150000 -2.312499
v 2.500000 0.000000 -2.312499
v 5.000000 0.000000 -2.312499
v 4.812500 0.000000 -2.312499
v 0.000000 0.000000 -0.000000
v 2.500000 0.000000 0.000000
v 5.000000 0.000000 0.000000
v 4.812500 0.000000 0.000000
v 4.812500 0.000000 -5.000000
v 4.812500 0.000000 -2.499999
v 5.000000 0.000000 -2.312499
v 0.000000 0.000000 -5.000000
v 2.500000 0.000000 -2.499999
v 0.000000 0.000000 -2.500027
v 0.000000 0.000000 -2.500027
v 0.000000 0.150000 -2.499999
v 0.000000 0.150000 -2.499999
v 2.500000 0.150000 -2.499999
v 2.500000 0.150000 -2.499999
v 2.500000 0.150000 -2.499999
v 5.000000 0.000000 -2.499999
v 5.000000 0.150000 -2.499999
v 5.000000 0.150000 -2.499999
v 5.000000 0.150000 -2.499999
v 0.000000 0.150000 -2.312499
v 0.000000 0.150000 -2.312499
v 2.500000 0.150000 -2.312499
v 2.500000 0.150000 -2.312499
v 2.500000 0.150000 -2.312499
v 4.812500 0.150000 -2.499999
v 4.812500 0.150000 -2.499999
v 4.812500 0.150000 -2.499999
v 4.812500 0.150000 -2.499999
v 0.000000 0.000000 -2.312499
v 0.000000 0.000000 -2.312499
v 5.000000 0.150000 -5.000000
v 5.000000 0.150000 -5.000000
v 5.000000 0.000000 -5.000000
v 4.812500 0.150000 -5.000000
v 4.812500 0.150000 -5.000000
v 4.812500 0.000000 -2.312499
v 4.812500 0.000000 -2.312499
v 4.812500 0.000000 -2.312499
v 2.500000 0.000000 -2.312499
v 2.500000 0.000000 -2.312499
v 2.500000 0.000000 -2.312499
v 2.500000 0.000000 0.000000
v 4.812500 0.000000 0.000000
v 4.812500 0.000000 -2.499999
v 4.812500 0.000000 -2.499999
v 4.812500 0.000000 -5.000000
v 4.812500 0.000000 -5.000000
vt 0.784566 0.755506
vt 0.787478 0.751873
vt 0.787478 0.755506
vt 0.802364 0.338677
vt 0.799453 0.387122
vt 0.799452 0.338677
vt 0.817272 0.478800
vt 0.814360 0.482433
vt 0.814360 0.478800
vt 0.488184 0.430356
vt 0.439740 0.433996
vt 0.439740 0.430356
vt 0.787478 0.707062
vt 0.784566 0.658618
vt 0.787478 0.658618
vt 0.911843 0.381943
vt 0.914755 0.385576
vt 0.911843 0.385576
vt 0.536628 0.433996
vt 0.532995 0.430356
vt 0.536628 0.430356
vt 0.799453 0.293866
vt 0.802364 0.338677
vt 0.799452 0.338677
vt 0.615136 0.973249
vt 0.618048 0.969615
vt 0.618048 0.973249
vt 0.869591 0.570573
vt 0.872503 0.522129
vt 0.872503 0.570573
vt 0.532995 0.433996
vt 0.536628 0.482529
vt 0.532995 0.482529
vt 0.817272 0.478800
vt 0.814360 0.430356
vt 0.817272 0.430356
vt 0.532995 0.430356
vt 0.488184 0.433996
vt 0.488184 0.430356
vt 0.784566 0.751873
vt 0.787478 0.707062
vt 0.787478 0.751873
vt 0.578685 0.342311
vt 0.533792 0.387122
vt 0.533792 0.342311
vt 0.578685 0.387122
vt 0.533792 0.390755
vt 0.533792 0.387122
vt 0.533792 0.342311
vt 0.578685 0.293866
vt 0.578685 0.342311
vt 0.446057 0.019800
vt 0.539312 0.068333
vt 0.446057 0.068333
vt 0.784566 0.751873
vt 0.802364 0.387122
vt 0.817272 0.482433
vt 0.488184 0.433996
vt 0.784566 0.707062
vt 0.914755 0.381942
vt 0.532995 0.433996
vt 0.802364 0.293866
vt 0.615136 0.969615
vt 0.869591 0.522129
vt 0.536628 0.433996
vt 0.814360 0.478800
vt 0.532995 0.433996
vt 0.784566 0.707062
vt 0.578685 0.387122
vt 0.578685 0.390755
vt 0.533792 0.293866
vt 0.539312 0.019800
vn 0.0000 0.0000 1.0000
vn 0.0000 0.0000 -1.0000
vn 0.0000 0.0002 -1.0000
vn 1.0000 0.0000 0.0000
vn 0.0000 1.0000 0.0000
vn -1.0000 0.0000 0.0000
s 1
f 19/1/1 62/2/1 23/3/1
f 33/4/2 36/5/3 38/6/2
f 42/7/4 31/8/4 41/9/4
f 47/10/5 37/11/5 45/12/5
f 65/13/1 10/14/1 55/15/1
f 9/16/6 54/17/6 46/18/6
f 43/19/5 18/20/5 20/21/5
f 53/22/2 3/23/2 8/24/2
f 13/25/2 60/26/2 15/27/2
f 71/28/6 6/29/6 14/30/6
f 52/31/5 57/32/5 59/33/5
f 7/34/4 58/35/4 56/36/4
f 12/37/5 40/38/5 48/39/5
f 16/40/1 66/41/1 24/42/1
f 67/43/5 61/44/5 64/45/5
f 28/46/5 17/47/5 63/48/5
f 22/49/5 25/50/5 26/51/5
f 72/52/5 1/53/5 30/54/5
f 19/1/1 4/55/1 62/2/1
f 33/4/2 34/56/3 36/5/3
f 42/7/4 21/57/4 31/8/4
f 47/10/5 39/58/5 37/11/5
f 65/13/1 49/59/1 10/14/1
f 9/16/6 35/60/6 54/17/6
f 43/19/5 50/61/5 18/20/5
f 53/22/2 70/62/2 3/23/2
f 13/25/2 29/63/2 60/26/2
f 71/28/6 69/64/6 6/29/6
f 52/31/5 44/65/5 57/32/5
f 7/34/4 5/66/4 58/35/4
f 12/37/5 51/67/5 40/38/5
f 16/40/1 11/68/1 66/41/1
f 67/43/5 68/69/5 61/44/5
f 28/46/5 27/70/5 17/47/5
f 22/49/5 2/71/5 25/50/5
f 72/52/5 32/72/5 1/53/5
