# Blender v2.81 (sub 16) OBJ File: ''
# www.blender.org
o SideWalkDiagMarginBigLeft
v 0.000046 0.150000 -0.000046
v 5.000046 0.150000 -5.000000
v 5.187546 0.000000 -5.000000
v 5.187550 0.150000 -5.000000
v 0.093796 0.000000 0.093704
v 0.093796 0.150000 0.093704
v 0.000046 0.150000 -0.000046
v 0.000046 0.150000 -0.000046
v 5.000000 0.000000 -5.000000
v 5.000000 0.000000 -0.000046
v 0.000061 0.000000 -0.000046
v 5.000046 0.150000 -5.000000
v 5.000046 0.150000 -5.000000
v 0.000000 0.000000 -5.000000
v 0.093796 0.150000 0.093704
v 0.093796 0.150000 0.093704
v 5.187550 0.150000 -5.000000
v 5.187550 0.150000 -5.000000
v 5.187546 0.000000 -5.000000
v 0.093796 0.000000 0.093704
v 0.000061 0.000000 -0.000046
v 0.000061 0.000000 -0.000046
v 0.000061 0.000000 -0.000046
v 5.000000 0.000000 -5.000000
v 5.000000 0.000000 -5.000000
v 5.000000 0.000000 -5.000000
vt 0.648846 0.022370
vt 0.651420 0.159390
vt 0.651420 0.019800
vt 0.409462 0.698397
vt 0.549052 0.701308
vt 0.549052 0.698397
vt 0.691021 0.024098
vt 0.694465 0.138707
vt 0.694465 0.024098
vt 0.980200 0.172843
vt 0.977626 0.175750
vt 0.980200 0.175750
vt 0.694465 0.024098
vt 0.691021 0.019800
vt 0.691021 0.024098
vt 0.269301 0.430356
vt 0.172325 0.527154
vt 0.269301 0.527332
vt 0.116776 0.498404
vt 0.116776 0.401425
vt 0.019800 0.401604
vt 0.648846 0.159390
vt 0.409462 0.701308
vt 0.691021 0.138707
vt 0.977626 0.172843
vt 0.694465 0.019800
vn 0.0000 1.0000 -0.0000
vn 0.7071 -0.0000 0.7071
vn -0.7071 0.0002 -0.7071
vn -0.7071 -0.0001 -0.7071
vn -0.7071 -0.0000 0.7071
vn -0.7071 -0.0001 0.7071
vn 0.0000 0.0000 -1.0000
vn -0.7072 0.0000 0.7070
s 1
f 13/1/1 15/2/1 17/3/1
f 19/4/2 16/5/2 20/6/2
f 24/7/3 1/8/4 12/9/3
f 23/10/5 6/11/5 7/12/6
f 2/13/7 3/14/7 26/15/7
f 25/16/1 22/17/1 10/18/1
f 9/19/1 14/20/1 11/21/1
f 13/1/1 8/22/1 15/2/1
f 19/4/2 18/23/2 16/5/2
f 24/7/3 21/24/4 1/8/4
f 23/10/5 5/25/8 6/11/5
f 2/13/7 4/26/7 3/14/7
