# Blender v2.81 (sub 16) OBJ File: ''
# www.blender.org
o SideWalkDoorSection
v 3.437500 0.150000 -2.500000
v 3.250000 0.150000 -2.500000
v 3.437500 0.150000 0.000000
v 3.250000 0.150000 0.000000
v 3.437500 0.150000 0.000000
v 3.437500 0.150000 -2.500000
v 3.437500 0.150000 0.000000
v 3.250000 0.150000 0.000000
v 3.250000 0.150000 0.000000
v 5.000000 0.000000 0.000000
v 5.000000 0.000000 -2.500000
v 3.437500 0.000000 0.000000
v 3.437500 0.000000 -2.500000
v 3.250000 0.000000 -2.500000
v 3.250000 0.000000 0.000000
v 0.000000 0.000000 -2.500000
v 0.000000 0.000000 0.000000
v 3.437500 0.150000 -2.500000
v 3.250000 0.150000 -2.500000
v 3.250000 0.150000 -2.500000
v 3.250000 0.000000 -2.500000
v 3.250000 0.000000 -2.500000
v 3.437500 0.000000 -2.500000
v 3.437500 0.000000 -2.500000
v 3.437500 0.000000 0.000000
v 3.437500 0.000000 0.000000
v 3.250000 0.000000 0.000000
v 3.250000 0.000000 0.000000
vt 0.319504 0.801964
vt 0.315864 0.850408
vt 0.315864 0.801964
vt 0.788098 0.930015
vt 0.785186 0.926381
vt 0.788098 0.926381
vt 0.900597 0.795107
vt 0.897685 0.843551
vt 0.897685 0.795107
vt 0.567110 0.899391
vt 0.570022 0.850947
vt 0.570022 0.899391
vt 0.703073 0.969615
vt 0.700161 0.973249
vt 0.700161 0.969615
vt 0.744965 0.570573
vt 0.714632 0.522129
vt 0.744965 0.522129
vt 0.308902 0.631078
vt 0.357435 0.568101
vt 0.357435 0.631078
vt 0.319504 0.850408
vt 0.785186 0.930015
vt 0.900597 0.843551
vt 0.567110 0.850947
vt 0.703073 0.973249
vt 0.714632 0.570573
vt 0.308902 0.568101
vn 0.0000 1.0000 0.0000
vn 0.0000 0.0000 1.0000
vn 1.0000 0.0000 0.0000
vn -1.0000 0.0000 0.0000
vn 0.0000 0.0000 -1.0000
s 1
f 7/1/1 19/2/1 9/3/1
f 26/4/2 8/5/2 28/6/2
f 18/7/3 12/8/3 24/9/3
f 22/10/4 4/11/4 20/12/4
f 2/13/5 13/14/5 14/15/5
f 25/16/1 11/17/1 23/18/1
f 21/19/1 17/20/1 27/21/1
f 7/1/1 1/22/1 19/2/1
f 26/4/2 3/23/2 8/5/2
f 18/7/3 5/24/3 12/8/3
f 22/10/4 15/25/4 4/11/4
f 2/13/5 6/26/5 13/14/5
f 25/16/1 10/27/1 11/17/1
f 21/19/1 16/28/1 17/20/1
