# Blender v2.81 (sub 16) OBJ File: ''
# www.blender.org
o TerrainStone
v 0.000000 0.000000 -5.000000
v 2.500000 0.000000 -5.000000
v 5.000000 0.000000 -5.000000
v 0.000000 0.000000 -2.500000
v 0.000000 0.000000 0.000000
v 2.500000 0.000000 -2.500000
v 5.000000 0.000000 -2.500000
v 2.500000 0.000000 0.000000
v 5.000000 0.000000 0.000000
v 0.000000 0.000000 -2.500000
v 2.500000 0.000000 -2.500000
v 2.500000 0.000000 -2.500000
v 2.500000 0.000000 -2.500000
v 2.500000 0.000000 -5.000000
v 5.000000 0.000000 -2.500000
v 2.500000 0.000000 0.000000
vt 0.626587 0.610263
vt 0.675031 0.658796
vt 0.626587 0.658796
vt 0.675031 0.658796
vt 0.626587 0.610263
vt 0.626587 0.658796
vt 0.675031 0.658796
vt 0.626587 0.610263
vt 0.626587 0.658796
vt 0.626587 0.610263
vt 0.675031 0.658796
vt 0.626587 0.658796
vt 0.675031 0.610263
vt 0.675031 0.610263
vt 0.675031 0.610263
vt 0.675031 0.610263
vn 0.0000 1.0000 0.0000
s 1
f 11/1/1 1/2/1 10/3/1
f 3/4/1 12/5/1 15/6/1
f 5/7/1 13/8/1 4/9/1
f 6/10/1 9/11/1 7/12/1
f 11/1/1 14/13/1 1/2/1
f 3/4/1 2/14/1 12/5/1
f 5/7/1 16/15/1 13/8/1
f 6/10/1 8/16/1 9/11/1
