# Blender v2.81 (sub 16) OBJ File: ''
# www.blender.org
o ChickenFenceTwoSides_Cube.006
v -0.125000 0.000000 -9.875000
v -0.125000 2.500000 -9.875000
v -0.125000 0.000000 -10.125000
v -0.125000 2.500000 -10.125000
v 0.125000 0.000000 -9.875000
v 0.125000 2.500000 -9.875000
v 0.125000 0.000000 -10.125000
v 0.125000 2.500000 -10.125000
v 0.025000 2.250000 -9.875000
v 0.025000 2.250000 -0.125000
v 0.025000 0.250000 -9.875000
v 0.025000 0.250000 -0.125000
v 0.025000 2.250000 -9.875000
v 0.025000 2.250000 -0.125000
v 0.025000 0.250000 -9.875000
v 0.025000 0.250000 -0.125000
v -0.125000 2.250000 -9.875000
v -0.125000 2.250000 -0.125000
v -0.125000 2.500000 -9.875000
v -0.125000 2.500000 -0.125000
v 0.125000 2.250000 -9.875000
v 0.125000 2.250000 -0.125000
v 0.125000 2.500000 -9.875000
v 0.125000 2.500000 -0.125000
v -0.125000 0.000000 -9.875000
v -0.125000 -0.000000 -0.125000
v -0.125000 0.250000 -9.875000
v -0.125000 0.250000 -0.125000
v 0.125000 0.000000 -9.875000
v 0.125000 -0.000000 -0.125000
v 0.125000 0.250000 -9.875000
v 0.125000 0.250000 -0.125000
v -0.125000 0.000000 0.125000
v -0.125000 2.500000 0.125000
v -0.125000 0.000000 -0.125000
v -0.125000 2.500000 -0.125000
v 0.125000 0.000000 0.125000
v 0.125000 2.500000 0.125000
v 0.125000 0.000000 -0.125000
v 0.125000 2.500000 -0.125000
v -0.125000 0.000000 -9.875000
v -0.125000 2.500000 -9.875000
v -0.125000 2.500000 -9.875000
v -0.125000 2.500000 -10.125000
v -0.125000 2.500000 -10.125000
v -0.125000 0.000000 -10.125000
v 0.125000 2.500000 -10.125000
v 0.125000 2.500000 -10.125000
v 0.125000 0.000000 -10.125000
v 0.125000 2.500000 -9.875000
v 0.125000 2.500000 -9.875000
v 0.125000 0.000000 -9.875000
v -0.125000 2.250000 -9.875000
v -0.125000 2.250000 -0.125000
v -0.125000 2.500000 -0.125000
v -0.125000 2.500000 -9.875000
v 0.125000 2.500000 -0.125000
v 0.125000 2.500000 -9.875000
v 0.125000 2.250000 -0.125000
v 0.125000 2.250000 -9.875000
v -0.125000 0.000000 -9.875000
v -0.125000 -0.000000 -0.125000
v -0.125000 0.250000 -0.125000
v -0.125000 0.250000 -9.875000
v 0.125000 0.250000 -0.125000
v 0.125000 0.250000 -9.875000
v 0.125000 -0.000000 -0.125000
v 0.125000 0.000000 -9.875000
v -0.125000 0.000000 0.125000
v -0.125000 2.500000 0.125000
v -0.125000 2.500000 0.125000
v -0.125000 2.500000 -0.125000
v -0.125000 2.500000 -0.125000
v -0.125000 0.000000 -0.125000
v 0.125000 2.500000 -0.125000
v 0.125000 2.500000 -0.125000
v 0.125000 0.000000 -0.125000
v 0.125000 2.500000 0.125000
v 0.125000 2.500000 0.125000
v 0.125000 0.000000 0.125000
vt 0.843878 0.675793
vt 0.848574 0.722756
vt 0.843878 0.722756
vt 0.852968 0.408262
vt 0.857664 0.455225
vt 0.852968 0.455225
vt 0.372053 0.847193
vt 0.419016 0.842496
vt 0.419016 0.847193
vt 0.848758 0.005065
vt 0.853454 0.052028
vt 0.848758 0.052028
vt 0.876135 0.393247
vt 0.871438 0.397943
vt 0.871438 0.393247
vt 0.526882 0.177422
vt 0.343726 0.139851
vt 0.343726 0.177422
vt 0.343726 0.139851
vt 0.526882 0.177422
vt 0.343726 0.177422
vt 0.667323 0.611713
vt 0.662627 0.428557
vt 0.667323 0.428557
vt 0.682150 0.611713
vt 0.677454 0.428557
vt 0.682150 0.428557
vt 0.688691 0.187553
vt 0.693387 0.370708
vt 0.688691 0.370708
vt 0.678560 0.370708
vt 0.673864 0.187553
vt 0.678560 0.187553
vt 0.667323 0.611713
vt 0.662627 0.428557
vt 0.667323 0.428557
vt 0.682150 0.611713
vt 0.677454 0.428557
vt 0.682150 0.428557
vt 0.688691 0.187553
vt 0.693387 0.370708
vt 0.688691 0.370708
vt 0.678560 0.370708
vt 0.673864 0.187553
vt 0.678560 0.187553
vt 0.843878 0.675793
vt 0.848574 0.722756
vt 0.843878 0.722756
vt 0.852968 0.408262
vt 0.857664 0.455225
vt 0.852968 0.455225
vt 0.372053 0.847193
vt 0.419016 0.842496
vt 0.419016 0.847193
vt 0.848758 0.005065
vt 0.853454 0.052028
vt 0.848758 0.052028
vt 0.876135 0.393247
vt 0.871438 0.397943
vt 0.871438 0.393247
vt 0.848574 0.675793
vt 0.857664 0.408262
vt 0.372053 0.842496
vt 0.853454 0.005065
vt 0.876135 0.397943
vt 0.526882 0.139851
vt 0.526882 0.139851
vt 0.662627 0.611713
vt 0.677454 0.611713
vt 0.693387 0.187553
vt 0.673864 0.370708
vt 0.662627 0.611713
vt 0.677454 0.611713
vt 0.693387 0.187553
vt 0.673864 0.370708
vt 0.848574 0.675793
vt 0.857664 0.408262
vt 0.372053 0.842496
vt 0.853454 0.005065
vt 0.876135 0.397943
vn -1.0000 0.0000 0.0000
vn 0.0000 0.0000 -1.0000
vn 1.0000 0.0000 0.0000
vn 0.0000 0.0000 1.0000
vn 0.0000 1.0000 0.0000
vn 0.0000 -1.0000 -0.0000
s 1
f 42/1/1 46/2/1 41/3/1
f 45/4/2 49/5/2 3/6/2
f 48/7/3 52/8/3 7/9/3
f 51/10/4 1/11/4 5/12/4
f 4/13/5 6/14/5 8/15/5
f 9/16/1 12/17/1 10/18/1
f 16/19/3 13/20/3 14/21/3
f 54/22/1 56/23/1 53/24/1
f 20/25/5 58/26/5 19/27/5
f 24/28/3 60/29/3 23/30/3
f 22/31/6 17/32/6 21/33/6
f 62/34/1 64/35/1 61/36/1
f 28/37/5 66/38/5 27/39/5
f 32/40/3 68/41/3 31/42/3
f 30/43/6 25/44/6 29/45/6
f 70/46/1 74/47/1 69/48/1
f 73/49/2 77/50/2 35/51/2
f 76/52/3 80/53/3 39/54/3
f 79/55/4 33/56/4 37/57/4
f 36/58/5 38/59/5 40/60/5
f 42/1/1 44/61/1 46/2/1
f 45/4/2 47/62/2 49/5/2
f 48/7/3 50/63/3 52/8/3
f 51/10/4 43/64/4 1/11/4
f 4/13/5 2/65/5 6/14/5
f 9/16/1 11/66/1 12/17/1
f 16/19/3 15/67/3 13/20/3
f 54/22/1 55/68/1 56/23/1
f 20/25/5 57/69/5 58/26/5
f 24/28/3 59/70/3 60/29/3
f 22/31/6 18/71/6 17/32/6
f 62/34/1 63/72/1 64/35/1
f 28/37/5 65/73/5 66/38/5
f 32/40/3 67/74/3 68/41/3
f 30/43/6 26/75/6 25/44/6
f 70/46/1 72/76/1 74/47/1
f 73/49/2 75/77/2 77/50/2
f 76/52/3 78/78/3 80/53/3
f 79/55/4 71/79/4 33/56/4
f 36/58/5 34/80/5 38/59/5
