# Blender v2.81 (sub 16) OBJ File: ''
# www.blender.org
o ChickenFenceForGate
v -0.125000 2.250000 9.875000
v -0.125000 2.500000 9.875000
v 0.125000 2.250000 9.875000
v 0.125000 2.500000 9.875000
v -0.125000 2.249999 2.125030
v -0.125000 2.499999 2.125030
v 0.125000 2.499999 2.125030
v 0.125000 2.249999 2.125030
v -0.125000 -0.000000 9.875000
v -0.125000 0.250000 9.875000
v 0.125000 -0.000000 9.875000
v 0.125000 0.250000 9.875000
v -0.125000 -0.000001 2.125030
v -0.125000 0.249999 2.125030
v 0.125000 0.249999 2.125030
v 0.125000 -0.000001 2.125030
v -0.125000 -0.000002 2.125000
v -0.125000 2.499998 2.125000
v -0.125000 -0.000002 1.875000
v -0.125000 2.499998 1.875000
v 0.125000 -0.000002 2.125000
v 0.125000 2.499998 2.125000
v 0.125000 -0.000002 1.875000
v 0.125000 2.499998 1.875000
v 0.025000 2.250000 9.875000
v 0.025000 0.250000 9.875000
v 0.025000 2.249999 2.125000
v 0.025000 0.249999 2.125000
v 0.025000 2.250000 9.875000
v 0.025000 0.250000 9.875000
v 0.025000 2.249999 2.125000
v 0.025000 0.249999 2.125000
v -0.125000 2.249999 2.125030
v -0.125000 2.250000 9.875000
v -0.125000 2.500000 9.875000
v -0.125000 2.499999 2.125030
v 0.125000 2.500000 9.875000
v 0.125000 2.499999 2.125030
v 0.125000 2.250000 9.875000
v 0.125000 2.249999 2.125030
v -0.125000 -0.000001 2.125030
v -0.125000 -0.000000 9.875000
v -0.125000 0.250000 9.875000
v -0.125000 0.249999 2.125030
v 0.125000 0.250000 9.875000
v 0.125000 0.249999 2.125030
v 0.125000 -0.000000 9.875000
v 0.125000 -0.000001 2.125030
v -0.125000 -0.000002 2.125000
v -0.125000 2.499998 2.125000
v -0.125000 2.499998 2.125000
v -0.125000 2.499998 1.875000
v -0.125000 2.499998 1.875000
v -0.125000 -0.000002 1.875000
v 0.125000 2.499998 1.875000
v 0.125000 2.499998 1.875000
v 0.125000 -0.000002 1.875000
v 0.125000 2.499998 2.125000
v 0.125000 2.499998 2.125000
v 0.125000 -0.000002 2.125000
vt 0.696978 0.428557
vt 0.692281 0.574142
vt 0.692281 0.428557
vt 0.489311 0.110197
vt 0.343726 0.114893
vt 0.343726 0.110197
vt 0.703518 0.333137
vt 0.708215 0.187553
vt 0.708215 0.333137
vt 0.489311 0.125024
vt 0.343726 0.129720
vt 0.343726 0.125024
vt 0.696978 0.428557
vt 0.692281 0.574142
vt 0.692281 0.428557
vt 0.489311 0.110197
vt 0.343726 0.114893
vt 0.343726 0.110197
vt 0.703518 0.333137
vt 0.708215 0.187553
vt 0.708215 0.333137
vt 0.489311 0.125024
vt 0.343726 0.129720
vt 0.343726 0.125024
vt 0.833930 0.005065
vt 0.838627 0.052029
vt 0.833930 0.052029
vt 0.843878 0.745045
vt 0.848574 0.792008
vt 0.843878 0.792008
vt 0.856454 0.512471
vt 0.851758 0.465508
vt 0.856454 0.465508
vt 0.009228 0.850319
vt 0.056191 0.845622
vt 0.056191 0.850319
vt 0.948059 0.964302
vt 0.943363 0.968998
vt 0.943363 0.964302
vt 0.350441 0.324500
vt 0.312871 0.470085
vt 0.312871 0.324500
vt 0.312871 0.470085
vt 0.350441 0.324500
vt 0.312871 0.324500
vt 0.696978 0.574142
vt 0.489311 0.114893
vt 0.703518 0.187553
vt 0.489311 0.129720
vt 0.696978 0.574142
vt 0.489311 0.114893
vt 0.703518 0.187553
vt 0.489311 0.129720
vt 0.838627 0.005065
vt 0.848574 0.745045
vt 0.851758 0.512471
vt 0.009228 0.845622
vt 0.948059 0.968998
vt 0.350441 0.470085
vt 0.350441 0.470085
vn -1.0000 0.0000 0.0000
vn 0.0000 1.0000 -0.0000
vn 1.0000 0.0000 0.0000
vn 0.0000 -1.0000 0.0000
vn 0.0000 0.0000 -1.0000
vn 0.0000 0.0000 1.0000
s 1
f 33/1/1 35/2/1 36/3/1
f 2/4/2 38/5/2 6/6/2
f 7/7/3 39/8/3 40/9/3
f 3/10/4 5/11/4 8/12/4
f 41/13/1 43/14/1 44/15/1
f 10/16/2 46/17/2 14/18/2
f 15/19/3 47/20/3 48/21/3
f 11/22/4 13/23/4 16/24/4
f 50/25/1 54/26/1 49/27/1
f 53/28/5 57/29/5 19/30/5
f 56/31/3 60/32/3 23/33/3
f 59/34/6 17/35/6 21/36/6
f 20/37/2 22/38/2 24/39/2
f 26/40/3 27/41/3 25/42/3
f 31/43/1 30/44/1 29/45/1
f 33/1/1 34/46/1 35/2/1
f 2/4/2 37/47/2 38/5/2
f 7/7/3 4/48/3 39/8/3
f 3/10/4 1/49/4 5/11/4
f 41/13/1 42/50/1 43/14/1
f 10/16/2 45/51/2 46/17/2
f 15/19/3 12/52/3 47/20/3
f 11/22/4 9/53/4 13/23/4
f 50/25/1 52/54/1 54/26/1
f 53/28/5 55/55/5 57/29/5
f 56/31/3 58/56/3 60/32/3
f 59/34/6 51/57/6 17/35/6
f 20/37/2 18/58/2 22/38/2
f 26/40/3 28/59/3 27/41/3
f 31/43/1 32/60/1 30/44/1
