# Blender v2.81 (sub 16) OBJ File: ''
# www.blender.org
o ChickenGate
v -0.050000 0.000000 1.375000
v 0.050000 0.000000 1.375000
v -0.050000 0.000000 0.687500
v 0.050000 0.000000 0.687500
v 0.050000 2.387500 1.375000
v -0.050000 2.387500 1.375000
v -0.050000 2.387500 0.687500
v 0.050000 2.387500 0.687500
v -0.050000 2.637500 1.031250
v 0.050000 2.637500 1.031250
v 0.050000 2.637500 0.343750
v -0.050000 2.637500 0.343750
v -0.050000 0.000000 -1.375000
v 0.050000 0.000000 -1.375000
v -0.050000 2.387500 0.000000
v -0.050000 0.000000 -0.687500
v 0.050000 0.000000 -0.687500
v 0.050000 2.387500 -1.375000
v -0.050000 2.387500 -1.375000
v 0.050000 2.387500 0.000000
v -0.050000 2.387500 -0.687500
v 0.050000 2.387500 -0.687500
v -0.050000 2.637500 -1.031250
v 0.050000 2.637500 -1.031250
v 0.050000 2.637500 -0.343750
v -0.050000 2.637500 -0.343750
v -0.250000 0.000000 1.375000
v -0.250000 2.750000 1.375000
v 0.250000 0.000000 1.375000
v 0.250000 2.750000 1.375000
v -0.250000 0.000000 1.875000
v -0.250000 2.750000 1.875000
v 0.250000 0.000000 1.875000
v 0.250000 2.750000 1.875000
v -0.250000 0.000000 -1.375000
v -0.250000 2.750000 -1.375000
v 0.250000 0.000000 -1.375000
v 0.250000 2.750000 -1.375000
v -0.250000 0.000000 -1.875000
v -0.250000 2.750000 -1.875000
v 0.250000 0.000000 -1.875000
v 0.250000 2.750000 -1.875000
v -0.050000 0.000000 -0.000256
v 0.050000 0.000000 0.002377
v -0.050000 2.637500 1.031250
v -0.050000 2.637500 1.031250
v -0.050000 2.387500 1.375000
v -0.050000 2.387500 1.375000
v 0.050000 2.387500 1.375000
v 0.050000 2.387500 1.375000
v 0.050000 2.637500 1.031250
v 0.050000 2.637500 1.031250
v 0.050000 2.637500 0.343750
v 0.050000 2.637500 0.343750
v -0.050000 2.637500 0.343750
v -0.050000 2.637500 0.343750
v -0.050000 2.387500 0.687500
v -0.050000 2.387500 0.687500
v -0.050000 2.387500 0.687500
v -0.050000 2.387500 0.687500
v -0.050000 2.387500 0.687500
v 0.050000 2.387500 0.687500
v 0.050000 2.387500 0.687500
v 0.050000 2.387500 0.687500
v 0.050000 2.387500 0.687500
v 0.050000 2.387500 0.687500
v 0.050000 2.387500 0.000000
v 0.050000 2.387500 0.000000
v 0.050000 2.387500 0.000000
v 0.050000 2.387500 0.000000
v 0.050000 2.387500 0.000000
v 0.050000 0.000000 0.687500
v 0.050000 0.000000 0.002377
v -0.050000 0.000000 -0.000256
v -0.050000 0.000000 0.687500
v -0.050000 2.387500 0.000000
v -0.050000 2.387500 0.000000
v -0.050000 2.387500 0.000000
v -0.050000 2.387500 0.000000
v -0.050000 2.387500 0.000000
v -0.050000 2.637500 -1.031250
v -0.050000 2.637500 -1.031250
v 0.050000 2.637500 -1.031250
v 0.050000 2.637500 -1.031250
v 0.050000 2.387500 -1.375000
v 0.050000 2.387500 -1.375000
v -0.050000 2.387500 -1.375000
v -0.050000 2.387500 -1.375000
v 0.050000 2.637500 -0.343750
v 0.050000 2.637500 -0.343750
v 0.050000 2.387500 -0.687500
v 0.050000 2.387500 -0.687500
v 0.050000 2.387500 -0.687500
v 0.050000 2.387500 -0.687500
v 0.050000 2.387500 -0.687500
v -0.050000 2.387500 -0.687500
v -0.050000 2.387500 -0.687500
v -0.050000 2.387500 -0.687500
v -0.050000 2.387500 -0.687500
v -0.050000 2.387500 -0.687500
v -0.050000 2.637500 -0.343750
v -0.050000 2.637500 -0.343750
v 0.050000 0.000000 -0.687500
v -0.050000 0.000000 -0.687500
v -0.250000 0.000000 1.375000
v -0.250000 2.750000 1.375000
v -0.250000 2.750000 1.375000
v 0.250000 2.750000 1.375000
v 0.250000 2.750000 1.375000
v 0.250000 0.000000 1.375000
v 0.250000 2.750000 1.875000
v 0.250000 2.750000 1.875000
v 0.250000 0.000000 1.875000
v -0.250000 2.750000 1.875000
v -0.250000 2.750000 1.875000
v -0.250000 0.000000 1.875000
v -0.250000 0.000000 -1.375000
v 0.250000 0.000000 -1.375000
v 0.250000 2.750000 -1.375000
v 0.250000 2.750000 -1.375000
v -0.250000 2.750000 -1.375000
v -0.250000 2.750000 -1.375000
v 0.250000 0.000000 -1.875000
v 0.250000 2.750000 -1.875000
v 0.250000 2.750000 -1.875000
v -0.250000 0.000000 -1.875000
v -0.250000 2.750000 -1.875000
v -0.250000 2.750000 -1.875000
vt 0.177492 0.903024
vt 0.183950 0.901146
vt 0.183950 0.903024
vt 0.196865 0.903024
vt 0.190407 0.901146
vt 0.196865 0.901146
vt 0.227689 0.702206
vt 0.272539 0.714446
vt 0.227689 0.714446
vt 0.712173 0.405511
vt 0.667323 0.393275
vt 0.712173 0.393275
vt 0.712173 0.418426
vt 0.667323 0.405511
vt 0.712173 0.405511
vt 0.203322 0.901146
vt 0.196865 0.903024
vt 0.196865 0.901146
vt 0.190407 0.903024
vt 0.183950 0.901146
vt 0.190407 0.901146
vt 0.227689 0.702206
vt 0.227689 0.715121
vt 0.222993 0.708664
vt 0.227689 0.689291
vt 0.227689 0.702206
vt 0.222993 0.695749
vt 0.662627 0.399053
vt 0.667323 0.393275
vt 0.667323 0.405511
vt 0.662627 0.411968
vt 0.667323 0.405511
vt 0.667323 0.418426
vt 0.227689 0.689291
vt 0.272539 0.702206
vt 0.227689 0.702206
vt 0.183950 0.901146
vt 0.177492 0.903024
vt 0.183950 0.903024
vt 0.190407 0.901146
vt 0.196865 0.903024
vt 0.196865 0.901146
vt 0.227689 0.714536
vt 0.272539 0.702206
vt 0.227689 0.702206
vt 0.712173 0.393285
vt 0.667323 0.405511
vt 0.712173 0.405511
vt 0.667323 0.405511
vt 0.712173 0.418426
vt 0.712173 0.405511
vt 0.196865 0.903024
vt 0.203322 0.901146
vt 0.196865 0.901146
vt 0.183950 0.901146
vt 0.190407 0.903024
vt 0.190407 0.901146
vt 0.227689 0.702206
vt 0.222993 0.708664
vt 0.227689 0.714536
vt 0.227689 0.689291
vt 0.222993 0.695749
vt 0.227689 0.702206
vt 0.662627 0.399053
vt 0.667323 0.405511
vt 0.667323 0.392596
vt 0.662627 0.411968
vt 0.667323 0.418426
vt 0.667323 0.405511
vt 0.272539 0.702206
vt 0.227689 0.689291
vt 0.227689 0.702206
vt 0.791882 0.675793
vt 0.801275 0.727452
vt 0.791882 0.727452
vt 0.796598 0.598600
vt 0.805991 0.650259
vt 0.796598 0.650259
vt 0.796636 0.478137
vt 0.806029 0.529796
vt 0.796636 0.529796
vt 0.791882 0.737583
vt 0.801275 0.789242
vt 0.791882 0.789242
vt 0.825361 0.135215
vt 0.834754 0.144607
vt 0.825361 0.144607
vt 0.801275 0.727452
vt 0.791882 0.675793
vt 0.791882 0.727452
vt 0.805991 0.650259
vt 0.796598 0.598600
vt 0.796598 0.650259
vt 0.806029 0.529796
vt 0.796636 0.478137
vt 0.796636 0.529796
vt 0.801275 0.789242
vt 0.791882 0.737583
vt 0.791882 0.789242
vt 0.834754 0.144607
vt 0.825361 0.135215
vt 0.825361 0.144607
vt 0.177492 0.901146
vt 0.190407 0.903024
vt 0.272539 0.702206
vt 0.667323 0.405511
vt 0.667323 0.418426
vt 0.203322 0.903024
vt 0.183950 0.903024
vt 0.272539 0.689291
vt 0.177492 0.901146
vt 0.190407 0.903024
vt 0.272539 0.714536
vt 0.667323 0.393285
vt 0.667323 0.418426
vt 0.203322 0.903024
vt 0.183950 0.903024
vt 0.272539 0.689291
vt 0.801275 0.675793
vt 0.805991 0.598600
vt 0.806029 0.478137
vt 0.801275 0.737583
vt 0.834754 0.135215
vt 0.801275 0.675793
vt 0.805991 0.598600
vt 0.806029 0.478137
vt 0.801275 0.737583
vt 0.834754 0.135215
vn 0.0000 0.8087 0.5882
vn 1.0000 -0.0000 0.0000
vn -1.0000 0.0000 0.0000
vn 0.0000 0.8087 -0.5882
vn 0.0000 0.0000 -1.0000
vn 0.0000 0.0000 1.0000
vn 0.0000 1.0000 0.0000
s 1
f 47/1/1 51/2/1 45/3/1
f 55/4/1 62/5/1 53/6/1
f 63/7/2 73/8/2 67/9/2
f 75/10/3 76/11/3 74/12/3
f 1/13/3 59/14/3 3/15/3
f 68/16/4 56/17/4 54/18/4
f 60/19/4 52/20/4 64/21/4
f 8/22/2 71/23/2 11/24/2
f 50/25/2 65/26/2 10/27/2
f 12/28/3 80/29/3 7/30/3
f 9/31/3 61/32/3 6/33/3
f 5/34/2 4/35/2 66/36/2
f 83/37/4 87/38/4 81/39/4
f 91/40/4 101/41/4 89/42/4
f 69/43/2 103/44/2 92/45/2
f 43/46/3 97/47/3 104/48/3
f 98/49/3 13/50/3 16/51/3
f 102/52/1 70/53/1 90/54/1
f 84/55/1 99/56/1 93/57/1
f 95/58/2 25/59/2 20/60/2
f 86/61/2 24/62/2 94/63/2
f 26/64/3 100/65/3 15/66/3
f 23/67/3 19/68/3 21/69/3
f 17/70/2 18/71/2 22/72/2
f 106/73/5 110/74/5 105/75/5
f 109/76/2 113/77/2 29/78/2
f 112/79/6 116/80/6 33/81/6
f 115/82/3 27/83/3 31/84/3
f 30/85/7 32/86/7 34/87/7
f 118/88/6 121/89/6 117/90/6
f 123/91/2 120/92/2 37/93/2
f 126/94/5 125/95/5 41/96/5
f 35/97/3 128/98/3 39/99/3
f 40/100/7 38/101/7 42/102/7
f 47/1/1 49/103/1 51/2/1
f 55/4/1 57/104/1 62/5/1
f 63/7/2 72/105/2 73/8/2
f 75/10/3 58/106/3 76/11/3
f 1/13/3 48/107/3 59/14/3
f 68/16/4 77/108/4 56/17/4
f 60/19/4 46/109/4 52/20/4
f 5/34/2 2/110/2 4/35/2
f 83/37/4 85/111/4 87/38/4
f 91/40/4 96/112/4 101/41/4
f 69/43/2 44/113/2 103/44/2
f 43/46/3 78/114/3 97/47/3
f 98/49/3 88/115/3 13/50/3
f 102/52/1 79/116/1 70/53/1
f 84/55/1 82/117/1 99/56/1
f 17/70/2 14/118/2 18/71/2
f 106/73/5 108/119/5 110/74/5
f 109/76/2 111/120/2 113/77/2
f 112/79/6 114/121/6 116/80/6
f 115/82/3 107/122/3 27/83/3
f 30/85/7 28/123/7 32/86/7
f 118/88/6 119/124/6 121/89/6
f 123/91/2 124/125/2 120/92/2
f 126/94/5 127/126/5 125/95/5
f 35/97/3 122/127/3 128/98/3
f 40/100/7 36/128/7 38/101/7
