# Blender v2.81 (sub 16) OBJ File: ''
# www.blender.org
o Grass
v 0.000000 1.000000 0.500000
v -0.000000 0.000000 0.500000
v 0.000000 1.000000 -0.500000
v -0.000000 0.000000 -0.500000
v 0.000000 1.000000 0.500000
v -0.000000 0.000000 0.500000
v 0.000000 1.000000 -0.500000
v -0.000000 0.000000 -0.500000
v 0.500000 1.000000 -0.000000
v 0.500000 0.000000 0.000000
v -0.500000 1.000000 -0.000000
v -0.500000 0.000000 0.000000
v 0.500000 1.000000 -0.000000
v 0.500000 0.000000 0.000000
v -0.500000 1.000000 -0.000000
v -0.500000 0.000000 0.000000
vt 0.633081 0.849560
vt 0.614296 0.830775
vt 0.633081 0.830775
vt 0.614296 0.830775
vt 0.633081 0.849560
vt 0.633081 0.830775
vt 0.633081 0.849560
vt 0.614296 0.830775
vt 0.633081 0.830775
vt 0.614296 0.830775
vt 0.633081 0.849560
vt 0.633081 0.830775
vt 0.614296 0.849560
vt 0.614296 0.849560
vt 0.614296 0.849560
vt 0.614296 0.849560
vn 1.0000 -0.0000 0.0000
vn -1.0000 0.0000 0.0000
vn -0.0000 -0.0000 -1.0000
vn 0.0000 0.0000 1.0000
s 1
f 2/1/1 3/2/1 1/3/1
f 7/4/2 6/5/2 5/6/2
f 10/7/3 11/8/3 9/9/3
f 15/10/4 14/11/4 13/12/4
f 2/1/1 4/13/1 3/2/1
f 7/4/2 8/14/2 6/5/2
f 10/7/3 12/15/3 11/8/3
f 15/10/4 16/16/4 14/11/4
