# Blender v2.81 (sub 16) OBJ File: ''
# www.blender.org
o HayBales
v 1.250000 1.584115 1.204519
v 1.250000 2.457359 -0.010605
v 1.250000 2.141611 0.876086
v 1.250000 2.460200 0.312907
v -1.250000 1.584115 1.204519
v -1.250000 2.457359 -0.010605
v 0.000000 1.584115 1.204519
v 0.000000 2.141611 0.876086
v 0.000000 2.460200 0.312907
v -1.250000 2.141611 0.876086
v -1.250000 2.460200 0.312907
v 1.250000 1.584115 -1.204519
v 1.250000 2.457359 0.010605
v 1.250000 2.141611 -0.876086
v 1.250000 2.460200 -0.312907
v 1.250000 2.454518 0.000000
v -1.250000 1.584115 -1.204519
v 0.000000 2.457359 0.000000
v -1.250000 2.457359 0.010605
v 0.000000 1.584115 -1.204519
v 0.000000 2.141611 -0.876086
v 0.000000 2.460200 -0.312907
v -1.250000 2.141611 -0.876086
v -1.250000 2.460200 -0.312907
v -1.250000 2.454518 0.000000
v 1.250000 0.876085 1.204519
v 1.250000 0.002841 -0.010605
v 1.250000 0.318589 0.876086
v 1.250000 0.000000 0.312907
v 1.250000 1.230100 1.207361
v -1.250000 0.876085 1.204519
v -1.250000 0.002841 -0.010605
v 0.000000 0.876085 1.204519
v 0.000000 0.318589 0.876086
v 0.000000 0.000000 0.312907
v -1.250000 0.318589 0.876086
v -1.250000 0.000000 0.312907
v -1.250000 1.230100 1.207361
v 0.000000 1.230100 1.207361
v 1.250000 0.876085 -1.204519
v 1.250000 0.002841 0.010605
v 1.250000 0.318589 -0.876086
v 1.250000 0.000000 -0.312907
v 1.250000 0.005682 0.000000
v 1.250000 1.230100 0.000000
v 1.250000 1.230100 -1.207361
v -1.250000 0.876085 -1.204519
v 0.000000 0.002841 0.000000
v -1.250000 0.002841 0.010605
v 0.000000 0.876085 -1.204519
v 0.000000 0.318589 -0.876086
v 0.000000 0.000000 -0.312907
v -1.250000 0.318589 -0.876086
v -1.250000 0.000000 -0.312907
v -1.250000 0.005682 0.000000
v -1.250000 1.230100 0.000000
v -1.250000 1.230100 -1.207361
v 0.000000 1.230100 -1.207361
v 0.000000 1.230100 1.207361
v 0.000000 1.230100 1.207361
v 0.000000 1.230100 1.207361
v 1.250000 1.230100 1.207361
v 1.250000 1.230100 1.207361
v 1.250000 1.230100 1.207361
v 1.250000 1.584115 1.204519
v 1.250000 1.584115 1.204519
v 1.250000 1.584115 1.204519
v 0.000000 1.584115 1.204519
v 0.000000 1.584115 1.204519
v 0.000000 1.584115 1.204519
v 1.250000 2.141611 0.876086
v 1.250000 2.141611 0.876086
v 1.250000 2.141611 0.876086
v 0.000000 2.141611 0.876086
v 0.000000 2.141611 0.876086
v 0.000000 2.141611 0.876086
v 1.250000 2.460200 0.312907
v 1.250000 2.460200 0.312907
v 1.250000 2.460200 0.312907
v 0.000000 2.460200 0.312907
v 0.000000 2.460200 0.312907
v 0.000000 2.460200 0.312907
v 0.000000 2.457359 0.000000
v 0.000000 2.457359 0.000000
v 0.000000 2.457359 0.000000
v 1.250000 1.230100 0.000000
v 1.250000 1.230100 0.000000
v 1.250000 1.230100 0.000000
v 1.250000 1.230100 0.000000
v 1.250000 1.230100 0.000000
v 1.250000 1.230100 0.000000
v 1.250000 1.230100 0.000000
v 1.250000 1.230100 0.000000
v 1.250000 1.230100 0.000000
v 1.250000 1.230100 0.000000
v 1.250000 1.230100 0.000000
v 1.250000 1.230100 0.000000
v 1.250000 1.230100 0.000000
v 1.250000 1.230100 0.000000
v 1.250000 1.230100 0.000000
v 1.250000 2.454518 0.000000
v -1.250000 1.584115 1.204519
v -1.250000 1.584115 1.204519
v -1.250000 1.584115 1.204519
v -1.250000 1.230100 1.207361
v -1.250000 1.230100 1.207361
v -1.250000 1.230100 1.207361
v -1.250000 2.141611 0.876086
v -1.250000 2.141611 0.876086
v -1.250000 2.141611 0.876086
v -1.250000 2.460200 0.312907
v -1.250000 2.460200 0.312907
v -1.250000 2.460200 0.312907
v -1.250000 1.230100 0.000000
v -1.250000 1.230100 0.000000
v -1.250000 1.230100 0.000000
v -1.250000 1.230100 0.000000
v -1.250000 1.230100 0.000000
v -1.250000 1.230100 0.000000
v -1.250000 1.230100 0.000000
v -1.250000 1.230100 0.000000
v -1.250000 1.230100 0.000000
v -1.250000 1.230100 0.000000
v -1.250000 1.230100 0.000000
v -1.250000 1.230100 0.000000
v -1.250000 1.230100 0.000000
v -1.250000 1.230100 0.000000
v -1.250000 1.230100 0.000000
v -1.250000 2.454518 0.000000
v 0.000000 1.230100 -1.207361
v 0.000000 1.230100 -1.207361
v 0.000000 1.230100 -1.207361
v 0.000000 1.584115 -1.204519
v 0.000000 1.584115 -1.204519
v 0.000000 1.584115 -1.204519
v 1.250000 1.584115 -1.204519
v 1.250000 1.584115 -1.204519
v 1.250000 1.584115 -1.204519
v 1.250000 1.230100 -1.207361
v 1.250000 1.230100 -1.207361
v 1.250000 1.230100 -1.207361
v 0.000000 2.141611 -0.876086
v 0.000000 2.141611 -0.876086
v 0.000000 2.141611 -0.876086
v 1.250000 2.141611 -0.876086
v 1.250000 2.141611 -0.876086
v 1.250000 2.141611 -0.876086
v 0.000000 2.460200 -0.312907
v 0.000000 2.460200 -0.312907
v 0.000000 2.460200 -0.312907
v 1.250000 2.460200 -0.312907
v 1.250000 2.460200 -0.312907
v 1.250000 2.460200 -0.312907
v -1.250000 1.230100 -1.207361
v -1.250000 1.230100 -1.207361
v -1.250000 1.230100 -1.207361
v -1.250000 1.584115 -1.204519
v -1.250000 1.584115 -1.204519
v -1.250000 1.584115 -1.204519
v -1.250000 2.141611 -0.876086
v -1.250000 2.141611 -0.876086
v -1.250000 2.141611 -0.876086
v -1.250000 2.460200 -0.312907
v -1.250000 2.460200 -0.312907
v -1.250000 2.460200 -0.312907
v 0.000000 0.876085 1.204519
v 0.000000 0.876085 1.204519
v 0.000000 0.876085 1.204519
v 1.250000 0.876085 1.204519
v 1.250000 0.876085 1.204519
v 1.250000 0.876085 1.204519
v 0.000000 0.318589 0.876086
v 0.000000 0.318589 0.876086
v 0.000000 0.318589 0.876086
v 1.250000 0.318589 0.876086
v 1.250000 0.318589 0.876086
v 1.250000 0.318589 0.876086
v 0.000000 0.000000 0.312907
v 0.000000 0.000000 0.312907
v 0.000000 0.000000 0.312907
v 1.250000 0.000000 0.312907
v 1.250000 0.000000 0.312907
v 1.250000 0.000000 0.312907
v 0.000000 0.002841 0.000000
v 0.000000 0.002841 0.000000
v 0.000000 0.002841 0.000000
v 1.250000 0.005682 0.000000
v -1.250000 0.876085 1.204519
v -1.250000 0.876085 1.204519
v -1.250000 0.876085 1.204519
v -1.250000 0.318589 0.876086
v -1.250000 0.318589 0.876086
v -1.250000 0.318589 0.876086
v -1.250000 0.000000 0.312907
v -1.250000 0.000000 0.312907
v -1.250000 0.000000 0.312907
v -1.250000 0.005682 0.000000
v 1.250000 0.876085 -1.204519
v 1.250000 0.876085 -1.204519
v 1.250000 0.876085 -1.204519
v 0.000000 0.876085 -1.204519
v 0.000000 0.876085 -1.204519
v 0.000000 0.876085 -1.204519
v 1.250000 0.318589 -0.876086
v 1.250000 0.318589 -0.876086
v 1.250000 0.318589 -0.876086
v 0.000000 0.318589 -0.876086
v 0.000000 0.318589 -0.876086
v 0.000000 0.318589 -0.876086
v 1.250000 0.000000 -0.312907
v 1.250000 0.000000 -0.312907
v 1.250000 0.000000 -0.312907
v 0.000000 0.000000 -0.312907
v 0.000000 0.000000 -0.312907
v 0.000000 0.000000 -0.312907
v -1.250000 0.876085 -1.204519
v -1.250000 0.876085 -1.204519
v -1.250000 0.876085 -1.204519
v -1.250000 0.318589 -0.876086
v -1.250000 0.318589 -0.876086
v -1.250000 0.318589 -0.876086
v -1.250000 0.000000 -0.312907
v -1.250000 0.000000 -0.312907
v -1.250000 0.000000 -0.312907
vt 0.183084 0.841113
vt 0.206566 0.834463
vt 0.206566 0.841113
vt 0.183084 0.834463
vt 0.206566 0.823990
vt 0.206566 0.834463
vt 0.255006 0.848066
vt 0.278487 0.837487
vt 0.278487 0.848066
vt 0.255006 0.837487
vt 0.278487 0.831609
vt 0.278487 0.837487
vt 0.377030 0.779174
vt 0.383680 0.801802
vt 0.366557 0.785344
vt 0.366557 0.785344
vt 0.383680 0.801802
vt 0.360572 0.795924
vt 0.360572 0.795924
vt 0.383680 0.801802
vt 0.360679 0.801802
vt 0.383680 0.779121
vt 0.383680 0.801802
vt 0.377030 0.779174
vt 0.206566 0.834463
vt 0.183084 0.841113
vt 0.206566 0.841113
vt 0.206566 0.823990
vt 0.183084 0.834463
vt 0.206566 0.834463
vt 0.278487 0.837487
vt 0.255006 0.848066
vt 0.278487 0.848066
vt 0.278487 0.831609
vt 0.255006 0.837487
vt 0.278487 0.837487
vt 0.377030 0.779174
vt 0.366557 0.785344
vt 0.383680 0.801802
vt 0.366557 0.785344
vt 0.360572 0.795924
vt 0.383680 0.801802
vt 0.360572 0.795924
vt 0.360679 0.801802
vt 0.383680 0.801802
vt 0.383680 0.779121
vt 0.377030 0.779174
vt 0.383680 0.801802
vt 0.206566 0.834463
vt 0.183084 0.841113
vt 0.206566 0.841113
vt 0.206566 0.823990
vt 0.183084 0.834463
vt 0.206566 0.834463
vt 0.278487 0.837487
vt 0.255006 0.848066
vt 0.278487 0.848066
vt 0.278487 0.831609
vt 0.255006 0.837487
vt 0.278487 0.837487
vt 0.377030 0.779174
vt 0.366557 0.785344
vt 0.383680 0.801802
vt 0.366557 0.785344
vt 0.360572 0.795924
vt 0.383680 0.801802
vt 0.360572 0.795924
vt 0.360679 0.801802
vt 0.383680 0.801802
vt 0.383680 0.779121
vt 0.377030 0.779174
vt 0.383680 0.801802
vt 0.183084 0.841113
vt 0.206566 0.834463
vt 0.206566 0.841113
vt 0.183084 0.834463
vt 0.206566 0.823990
vt 0.206566 0.834463
vt 0.255006 0.848066
vt 0.278487 0.837487
vt 0.278487 0.848066
vt 0.255006 0.837487
vt 0.278487 0.831609
vt 0.278487 0.837487
vt 0.377030 0.779174
vt 0.383680 0.801802
vt 0.366557 0.785344
vt 0.366557 0.785344
vt 0.383680 0.801802
vt 0.360572 0.795924
vt 0.360572 0.795924
vt 0.383680 0.801802
vt 0.360679 0.801802
vt 0.383680 0.779121
vt 0.383680 0.801802
vt 0.377030 0.779174
vt 0.206566 0.834463
vt 0.183084 0.841113
vt 0.206566 0.841113
vt 0.206566 0.823990
vt 0.183084 0.834463
vt 0.206566 0.834463
vt 0.278487 0.837487
vt 0.255006 0.848066
vt 0.278487 0.848066
vt 0.278487 0.831609
vt 0.255006 0.837487
vt 0.278487 0.837487
vt 0.377030 0.779174
vt 0.366557 0.785344
vt 0.383680 0.801802
vt 0.366557 0.785344
vt 0.360572 0.795924
vt 0.383680 0.801802
vt 0.360572 0.795924
vt 0.360679 0.801802
vt 0.383680 0.801802
vt 0.383680 0.779121
vt 0.377030 0.779174
vt 0.383680 0.801802
vt 0.183084 0.841113
vt 0.206566 0.834463
vt 0.206566 0.841113
vt 0.183084 0.834463
vt 0.206566 0.823990
vt 0.206566 0.834463
vt 0.255006 0.848066
vt 0.278487 0.837487
vt 0.278487 0.848066
vt 0.255006 0.837487
vt 0.278487 0.831609
vt 0.278487 0.837487
vt 0.377030 0.779174
vt 0.383680 0.801802
vt 0.366557 0.785344
vt 0.366557 0.785344
vt 0.383680 0.801802
vt 0.360572 0.795924
vt 0.360572 0.795924
vt 0.383680 0.801802
vt 0.360679 0.801802
vt 0.383680 0.779121
vt 0.383680 0.801802
vt 0.377030 0.779174
vt 0.183084 0.841113
vt 0.206566 0.834463
vt 0.206566 0.841113
vt 0.183084 0.834463
vt 0.206566 0.823990
vt 0.206566 0.834463
vt 0.255006 0.848066
vt 0.278487 0.837487
vt 0.278487 0.848066
vt 0.255006 0.837487
vt 0.278487 0.831609
vt 0.278487 0.837487
vt 0.377030 0.779174
vt 0.383680 0.801802
vt 0.366557 0.785344
vt 0.366557 0.785344
vt 0.383680 0.801802
vt 0.360572 0.795924
vt 0.360572 0.795924
vt 0.383680 0.801802
vt 0.360679 0.801802
vt 0.383680 0.779121
vt 0.383680 0.801802
vt 0.377030 0.779174
vt 0.206566 0.834463
vt 0.183084 0.841113
vt 0.206566 0.841113
vt 0.206566 0.823990
vt 0.183084 0.834463
vt 0.206566 0.834463
vt 0.278487 0.837487
vt 0.255006 0.848066
vt 0.278487 0.848066
vt 0.278487 0.831609
vt 0.255006 0.837487
vt 0.278487 0.837487
vt 0.377030 0.779174
vt 0.366557 0.785344
vt 0.383680 0.801802
vt 0.366557 0.785344
vt 0.360572 0.795924
vt 0.383680 0.801802
vt 0.360572 0.795924
vt 0.360679 0.801802
vt 0.383680 0.801802
vt 0.383680 0.779121
vt 0.377030 0.779174
vt 0.383680 0.801802
vt 0.183084 0.834463
vt 0.183084 0.823990
vt 0.255006 0.837487
vt 0.255006 0.831410
vt 0.183084 0.834463
vt 0.183084 0.823990
vt 0.255006 0.837487
vt 0.255006 0.831410
vt 0.183084 0.834463
vt 0.183084 0.823990
vt 0.255006 0.837487
vt 0.255006 0.831410
vt 0.183084 0.834463
vt 0.183084 0.823990
vt 0.255006 0.837487
vt 0.255006 0.831410
vt 0.183084 0.834463
vt 0.183084 0.823990
vt 0.255006 0.837487
vt 0.255006 0.831410
vt 0.183084 0.834463
vt 0.183084 0.823990
vt 0.255006 0.837487
vt 0.255006 0.831410
vt 0.183084 0.834463
vt 0.183084 0.823990
vt 0.255006 0.837487
vt 0.255006 0.831410
vt 0.183084 0.834463
vt 0.183084 0.823990
vt 0.255006 0.837487
vt 0.255006 0.831410
vn 0.0000 0.0080 1.0000
vn 0.0000 0.5076 0.8616
vn 0.0000 0.8704 0.4924
vn -0.0001 1.0000 -0.0088
vn -0.0000 1.0000 -0.0090
vn 0.0000 1.0000 -0.0091
vn 1.0000 0.0000 0.0000
vn 0.9681 -0.1720 -0.1823
vn 0.8567 0.4490 0.2540
vn 0.0001 1.0000 -0.0088
vn -1.0000 0.0000 0.0000
vn 0.0000 0.0080 -1.0000
vn 0.0000 0.5076 -0.8616
vn 0.0000 0.8704 -0.4924
vn -0.0000 1.0000 0.0090
vn -0.0001 1.0000 0.0088
vn 0.0000 1.0000 0.0091
vn 0.0001 1.0000 0.0088
vn -0.9681 -0.1720 0.1823
vn -0.8567 0.4490 -0.2540
vn 0.0000 -0.0080 1.0000
vn 0.0000 -0.5076 0.8616
vn 0.0000 -0.8704 0.4924
vn -0.0000 -1.0000 -0.0090
vn -0.0001 -1.0000 -0.0088
vn 0.0000 -1.0000 -0.0091
vn 0.0001 -1.0000 -0.0088
vn -0.9681 0.1720 -0.1823
vn -0.8567 -0.4490 0.2540
vn 0.0000 -0.0080 -1.0000
vn 0.0000 -0.5076 -0.8616
vn 0.0000 -0.8704 -0.4924
vn -0.0001 -1.0000 0.0088
vn -0.0000 -1.0000 0.0090
vn 0.0000 -1.0000 0.0091
vn 0.9681 0.1720 0.1823
vn 0.8567 -0.4490 -0.2540
vn 0.0001 -1.0000 0.0088
vn 0.1278 0.7365 0.6643
vn -0.1278 0.7365 -0.6643
vn -0.1278 -0.7365 0.6643
vn 0.1278 -0.7365 -0.6643
s 1
f 62/1/1 68/2/1 59/3/1
f 66/4/2 74/5/2 69/6/2
f 72/7/3 80/8/3 75/9/3
f 78/10/4 83/11/5 81/12/6
f 67/13/7 86/14/7 73/15/7
f 3/16/7 87/17/7 79/18/8
f 4/19/9 88/20/7 101/21/7
f 63/22/7 89/23/7 1/24/7
f 70/25/1 105/26/1 60/27/1
f 76/28/2 103/29/2 7/30/2
f 82/31/3 109/32/3 8/33/3
f 84/34/5 112/35/10 9/36/6
f 104/37/11 110/38/11 114/39/11
f 10/40/11 113/41/11 115/42/11
f 11/43/11 129/44/11 116/45/11
f 106/46/11 5/47/11 117/48/11
f 133/49/12 139/50/12 130/51/12
f 142/52/13 137/53/13 134/54/13
f 148/55/14 146/56/14 143/57/14
f 85/58/15 152/59/16 149/60/17
f 138/61/7 147/62/7 90/63/7
f 14/64/7 153/65/7 91/66/7
f 15/67/7 16/68/7 99/69/7
f 140/70/7 12/71/7 92/72/7
f 154/73/12 135/74/12 131/75/12
f 158/76/13 144/77/13 20/78/13
f 161/79/14 150/80/14 21/81/14
f 164/82/18 18/83/15 22/84/17
f 159/85/11 118/86/11 162/87/11
f 23/88/11 119/89/11 165/90/19
f 24/91/20 127/92/11 25/93/11
f 155/94/11 120/95/11 17/96/11
f 166/97/21 64/98/21 61/99/21
f 172/100/22 170/101/22 167/102/22
f 178/103/23 176/104/23 173/105/23
f 184/106/24 182/107/25 179/108/26
f 171/109/7 177/110/7 93/111/7
f 28/112/7 183/113/7 94/114/7
f 29/115/7 187/116/7 95/117/7
f 30/118/7 26/119/7 98/120/7
f 107/121/21 168/122/21 39/123/21
f 189/124/22 174/125/22 33/126/22
f 192/127/23 180/128/23 34/129/23
f 195/130/27 185/131/24 35/132/26
f 190/133/11 121/134/11 193/135/11
f 36/136/11 122/137/11 196/138/28
f 37/139/29 123/140/11 197/141/11
f 38/142/11 126/143/11 31/144/11
f 141/145/30 201/146/30 132/147/30
f 199/148/31 207/149/31 202/150/31
f 205/151/32 213/152/32 208/153/32
f 211/154/33 186/155/34 214/156/35
f 200/157/7 96/158/7 206/159/7
f 42/160/7 97/161/7 212/162/36
f 43/163/37 45/164/7 44/165/7
f 46/166/7 100/167/7 40/168/7
f 203/169/30 156/170/30 58/171/30
f 209/172/31 217/173/31 50/174/31
f 215/175/32 220/176/32 51/177/32
f 48/178/34 223/179/38 52/180/35
f 218/181/11 221/182/11 124/183/11
f 53/184/11 224/185/11 125/186/11
f 54/187/11 55/188/11 56/189/11
f 57/190/11 47/191/11 128/192/11
f 62/1/1 65/193/1 68/2/1
f 66/4/2 71/194/2 74/5/2
f 72/7/3 77/195/39 80/8/3
f 78/10/4 2/196/4 83/11/5
f 70/25/1 102/197/1 105/26/1
f 76/28/2 108/198/2 103/29/2
f 82/31/3 111/199/3 109/32/3
f 84/34/5 6/200/10 112/35/10
f 133/49/12 136/201/12 139/50/12
f 142/52/13 145/202/13 137/53/13
f 148/55/14 151/203/14 146/56/14
f 85/58/15 13/204/16 152/59/16
f 154/73/12 157/205/12 135/74/12
f 158/76/13 160/206/13 144/77/13
f 161/79/14 163/207/40 150/80/14
f 164/82/18 19/208/18 18/83/15
f 166/97/21 169/209/21 64/98/21
f 172/100/22 175/210/22 170/101/22
f 178/103/23 181/211/23 176/104/23
f 184/106/24 27/212/25 182/107/25
f 107/121/21 188/213/21 168/122/21
f 189/124/22 191/214/22 174/125/22
f 192/127/23 194/215/41 180/128/23
f 195/130/27 32/216/27 185/131/24
f 141/145/30 198/217/30 201/146/30
f 199/148/31 204/218/31 207/149/31
f 205/151/32 210/219/42 213/152/32
f 211/154/33 41/220/33 186/155/34
f 203/169/30 216/221/30 156/170/30
f 209/172/31 219/222/31 217/173/31
f 215/175/32 222/223/32 220/176/32
f 48/178/34 49/224/38 223/179/38
