# Blender v2.81 (sub 16) OBJ File: ''
# www.blender.org
o HayPile
v 1.999999 0.000000 3.464102
v 3.464101 0.000000 2.000001
v 1.378834 2.400000 2.388211
v 2.388210 2.400000 1.378835
v 1.689416 1.000000 2.926157
v 2.926156 1.000000 1.689418
v 1.068251 3.400000 1.850266
v 1.850265 3.400000 1.068252
v 0.757668 4.000000 1.312321
v 1.312320 4.000000 0.757669
v 0.447085 4.600000 0.774375
v 0.774375 4.600000 0.447086
v 0.210742 4.800000 0.365015
v 0.365015 4.800000 0.210742
v 0.000000 0.000000 4.000000
v -1.999999 0.000000 3.464102
v -3.464101 0.000000 2.000001
v 0.000000 2.400000 2.757668
v -1.378834 2.400000 2.388211
v -2.388210 2.400000 1.378835
v 0.000000 1.000000 3.378834
v -1.689416 1.000000 2.926157
v -2.926156 1.000000 1.689418
v 0.000000 3.400000 2.136503
v -1.068251 3.400000 1.850266
v -1.850265 3.400000 1.068252
v 0.000000 4.000000 1.515337
v -0.757668 4.000000 1.312321
v -1.312320 4.000000 0.757669
v 0.000000 4.600000 0.894171
v -0.447085 4.600000 0.774375
v -0.774375 4.600000 0.447086
v 0.000000 4.800000 0.421483
v -0.210742 4.800000 0.365015
v -0.365015 4.800000 0.210742
v 1.999999 0.000000 -3.464102
v 3.464101 0.000000 -2.000001
v 4.000000 0.000000 0.000000
v 1.378834 2.400000 -2.388211
v 2.388210 2.400000 -1.378835
v 2.757668 2.400000 0.000000
v 1.689416 1.000000 -2.926157
v 2.926156 1.000000 -1.689418
v 3.378834 1.000000 0.000000
v 1.068251 3.400000 -1.850266
v 1.850265 3.400000 -1.068252
v 2.136503 3.400000 0.000000
v 0.757668 4.000000 -1.312321
v 1.312320 4.000000 -0.757669
v 1.515337 4.000000 0.000000
v 0.447085 4.600000 -0.774375
v 0.774375 4.600000 -0.447086
v 0.894171 4.600000 0.000000
v 0.210742 4.800000 -0.365015
v 0.365015 4.800000 -0.210742
v 0.421483 4.800000 0.000000
v 0.000000 0.000000 -4.000000
v -1.999999 0.000000 -3.464102
v -3.464101 0.000000 -2.000001
v -4.000000 0.000000 0.000000
v 0.000000 4.800000 0.000000
v 0.000000 2.400000 -2.757668
v -1.378834 2.400000 -2.388211
v -2.388210 2.400000 -1.378835
v -2.757668 2.400000 0.000000
v 0.000000 1.000000 -3.378834
v -1.689416 1.000000 -2.926157
v -2.926156 1.000000 -1.689418
v -3.378834 1.000000 0.000000
v 0.000000 3.400000 -2.136503
v -1.068251 3.400000 -1.850266
v -1.850265 3.400000 -1.068252
v -2.136503 3.400000 0.000000
v 0.000000 4.000000 -1.515337
v -0.757668 4.000000 -1.312321
v -1.312320 4.000000 -0.757669
v -1.515337 4.000000 0.000000
v 0.000000 4.600000 -0.894171
v -0.447085 4.600000 -0.774375
v -0.774375 4.600000 -0.447086
v -0.894171 4.600000 0.000000
v 0.000000 4.800000 -0.421483
v -0.210742 4.800000 -0.365015
v -0.365015 4.800000 -0.210742
v -0.421483 4.800000 0.000000
v 0.000000 4.800000 0.421483
v 0.000000 4.800000 0.421483
v 0.000000 4.800000 0.421483
v 0.210742 4.800000 0.365015
v 0.210742 4.800000 0.365015
v 0.210742 4.800000 0.365015
v 0.000000 4.800000 0.000000
v 0.000000 4.800000 0.000000
v 0.000000 4.800000 0.000000
v 0.000000 4.800000 0.000000
v 0.000000 4.800000 0.000000
v 0.000000 4.800000 0.000000
v 0.000000 4.800000 0.000000
v 0.000000 4.800000 0.000000
v 0.000000 4.800000 0.000000
v 0.000000 4.800000 0.000000
v 0.000000 4.800000 0.000000
v 0.365015 4.800000 0.210742
v 0.365015 4.800000 0.210742
v 0.365015 4.800000 0.210742
v 0.421483 4.800000 0.000000
v 0.421483 4.800000 0.000000
v 0.421483 4.800000 0.000000
v 0.000000 1.000000 3.378834
v 0.000000 1.000000 3.378834
v 0.000000 1.000000 3.378834
v 0.000000 0.000000 4.000000
v 1.999999 0.000000 3.464102
v 1.689416 1.000000 2.926157
v 1.689416 1.000000 2.926157
v 1.689416 1.000000 2.926157
v 3.464101 0.000000 2.000001
v 2.926156 1.000000 1.689418
v 2.926156 1.000000 1.689418
v 2.926156 1.000000 1.689418
v 4.000000 0.000000 0.000000
v 3.378834 1.000000 0.000000
v 3.378834 1.000000 0.000000
v 3.378834 1.000000 0.000000
v 0.000000 2.400000 2.757668
v 0.000000 2.400000 2.757668
v 0.000000 2.400000 2.757668
v 1.378834 2.400000 2.388211
v 1.378834 2.400000 2.388211
v 1.378834 2.400000 2.388211
v 2.388210 2.400000 1.378835
v 2.388210 2.400000 1.378835
v 2.388210 2.400000 1.378835
v 2.757668 2.400000 0.000000
v 2.757668 2.400000 0.000000
v 2.757668 2.400000 0.000000
v 0.000000 3.400000 2.136503
v 0.000000 3.400000 2.136503
v 0.000000 3.400000 2.136503
v 1.068251 3.400000 1.850266
v 1.068251 3.400000 1.850266
v 1.068251 3.400000 1.850266
v 1.850265 3.400000 1.068252
v 1.850265 3.400000 1.068252
v 1.850265 3.400000 1.068252
v 2.136503 3.400000 0.000000
v 2.136503 3.400000 0.000000
v 2.136503 3.400000 0.000000
v 0.000000 4.000000 1.515337
v 0.000000 4.000000 1.515337
v 0.000000 4.000000 1.515337
v 0.757668 4.000000 1.312321
v 0.757668 4.000000 1.312321
v 0.757668 4.000000 1.312321
v 1.312320 4.000000 0.757669
v 1.312320 4.000000 0.757669
v 1.312320 4.000000 0.757669
v 1.515337 4.000000 0.000000
v 1.515337 4.000000 0.000000
v 1.515337 4.000000 0.000000
v 0.000000 4.600000 0.894171
v 0.000000 4.600000 0.894171
v 0.000000 4.600000 0.894171
v 0.447085 4.600000 0.774375
v 0.447085 4.600000 0.774375
v 0.447085 4.600000 0.774375
v 0.774375 4.600000 0.447086
v 0.774375 4.600000 0.447086
v 0.774375 4.600000 0.447086
v 0.894171 4.600000 0.000000
v 0.894171 4.600000 0.000000
v 0.894171 4.600000 0.000000
v -0.210742 4.800000 0.365015
v -0.210742 4.800000 0.365015
v -0.210742 4.800000 0.365015
v -0.365015 4.800000 0.210742
v -0.365015 4.800000 0.210742
v -0.365015 4.800000 0.210742
v -0.421483 4.800000 0.000000
v -0.421483 4.800000 0.000000
v -0.421483 4.800000 0.000000
v -1.689416 1.000000 2.926157
v -1.689416 1.000000 2.926157
v -1.689416 1.000000 2.926157
v -1.999999 0.000000 3.464102
v -2.926156 1.000000 1.689418
v -2.926156 1.000000 1.689418
v -2.926156 1.000000 1.689418
v -3.464101 0.000000 2.000001
v -3.378834 1.000000 0.000000
v -3.378834 1.000000 0.000000
v -3.378834 1.000000 0.000000
v -4.000000 0.000000 0.000000
v -1.378834 2.400000 2.388211
v -1.378834 2.400000 2.388211
v -1.378834 2.400000 2.388211
v -2.388210 2.400000 1.378835
v -2.388210 2.400000 1.378835
v -2.388210 2.400000 1.378835
v -2.757668 2.400000 0.000000
v -2.757668 2.400000 0.000000
v -2.757668 2.400000 0.000000
v -1.068251 3.400000 1.850266
v -1.068251 3.400000 1.850266
v -1.068251 3.400000 1.850266
v -1.850265 3.400000 1.068252
v -1.850265 3.400000 1.068252
v -1.850265 3.400000 1.068252
v -2.136503 3.400000 0.000000
v -2.136503 3.400000 0.000000
v -2.136503 3.400000 0.000000
v -0.757668 4.000000 1.312321
v -0.757668 4.000000 1.312321
v -0.757668 4.000000 1.312321
v -1.312320 4.000000 0.757669
v -1.312320 4.000000 0.757669
v -1.312320 4.000000 0.757669
v -1.515337 4.000000 0.000000
v -1.515337 4.000000 0.000000
v -1.515337 4.000000 0.000000
v -0.447085 4.600000 0.774375
v -0.447085 4.600000 0.774375
v -0.447085 4.600000 0.774375
v -0.774375 4.600000 0.447086
v -0.774375 4.600000 0.447086
v -0.774375 4.600000 0.447086
v -0.894171 4.600000 0.000000
v -0.894171 4.600000 0.000000
v -0.894171 4.600000 0.000000
v 0.000000 4.800000 -0.421483
v 0.000000 4.800000 -0.421483
v 0.000000 4.800000 -0.421483
v 0.210742 4.800000 -0.365015
v 0.210742 4.800000 -0.365015
v 0.210742 4.800000 -0.365015
v 0.365015 4.800000 -0.210742
v 0.365015 4.800000 -0.210742
v 0.365015 4.800000 -0.210742
v 0.000000 1.000000 -3.378834
v 0.000000 1.000000 -3.378834
v 0.000000 1.000000 -3.378834
v 1.689416 1.000000 -2.926157
v 1.689416 1.000000 -2.926157
v 1.689416 1.000000 -2.926157
v 1.999999 0.000000 -3.464102
v 0.000000 0.000000 -4.000000
v 2.926156 1.000000 -1.689418
v 2.926156 1.000000 -1.689418
v 2.926156 1.000000 -1.689418
v 3.464101 0.000000 -2.000001
v 0.000000 2.400000 -2.757668
v 0.000000 2.400000 -2.757668
v 0.000000 2.400000 -2.757668
v 1.378834 2.400000 -2.388211
v 1.378834 2.400000 -2.388211
v 1.378834 2.400000 -2.388211
v 2.388210 2.400000 -1.378835
v 2.388210 2.400000 -1.378835
v 2.388210 2.400000 -1.378835
v 0.000000 3.400000 -2.136503
v 0.000000 3.400000 -2.136503
v 0.000000 3.400000 -2.136503
v 1.068251 3.400000 -1.850266
v 1.068251 3.400000 -1.850266
v 1.068251 3.400000 -1.850266
v 1.850265 3.400000 -1.068252
v 1.850265 3.400000 -1.068252
v 1.850265 3.400000 -1.068252
v 0.000000 4.000000 -1.515337
v 0.000000 4.000000 -1.515337
v 0.000000 4.000000 -1.515337
v 0.757668 4.000000 -1.312321
v 0.757668 4.000000 -1.312321
v 0.757668 4.000000 -1.312321
v 1.312320 4.000000 -0.757669
v 1.312320 4.000000 -0.757669
v 1.312320 4.000000 -0.757669
v 0.000000 4.600000 -0.894171
v 0.000000 4.600000 -0.894171
v 0.000000 4.600000 -0.894171
v 0.447085 4.600000 -0.774375
v 0.447085 4.600000 -0.774375
v 0.447085 4.600000 -0.774375
v 0.774375 4.600000 -0.447086
v 0.774375 4.600000 -0.447086
v 0.774375 4.600000 -0.447086
v -0.210742 4.800000 -0.365015
v -0.210742 4.800000 -0.365015
v -0.210742 4.800000 -0.365015
v -0.365015 4.800000 -0.210742
v -0.365015 4.800000 -0.210742
v -0.365015 4.800000 -0.210742
v -1.999999 0.000000 -3.464102
v -1.689416 1.000000 -2.926157
v -1.689416 1.000000 -2.926157
v -1.689416 1.000000 -2.926157
v -3.464101 0.000000 -2.000001
v -2.926156 1.000000 -1.689418
v -2.926156 1.000000 -1.689418
v -2.926156 1.000000 -1.689418
v -1.378834 2.400000 -2.388211
v -1.378834 2.400000 -2.388211
v -1.378834 2.400000 -2.388211
v -2.388210 2.400000 -1.378835
v -2.388210 2.400000 -1.378835
v -2.388210 2.400000 -1.378835
v -1.068251 3.400000 -1.850266
v -1.068251 3.400000 -1.850266
v -1.068251 3.400000 -1.850266
v -1.850265 3.400000 -1.068252
v -1.850265 3.400000 -1.068252
v -1.850265 3.400000 -1.068252
v -0.757668 4.000000 -1.312321
v -0.757668 4.000000 -1.312321
v -0.757668 4.000000 -1.312321
v -1.312320 4.000000 -0.757669
v -1.312320 4.000000 -0.757669
v -1.312320 4.000000 -0.757669
v -0.447085 4.600000 -0.774375
v -0.447085 4.600000 -0.774375
v -0.447085 4.600000 -0.774375
v -0.774375 4.600000 -0.447086
v -0.774375 4.600000 -0.447086
v -0.774375 4.600000 -0.447086
vt 0.332202 0.700537
vt 0.333263 0.696578
vt 0.340120 0.700537
vt 0.333263 0.696578
vt 0.336161 0.693680
vt 0.340120 0.700537
vt 0.336161 0.693680
vt 0.340120 0.692619
vt 0.340120 0.700537
vt 0.425646 0.577698
vt 0.388076 0.596484
vt 0.393910 0.577698
vt 0.393910 0.577698
vt 0.360572 0.596484
vt 0.370678 0.577698
vt 0.424442 0.606615
vt 0.405657 0.644185
vt 0.405657 0.612449
vt 0.425646 0.577698
vt 0.399744 0.551399
vt 0.425646 0.551399
vt 0.399744 0.551399
vt 0.370678 0.577698
vt 0.380783 0.551399
vt 0.405657 0.612449
vt 0.379357 0.644185
vt 0.379357 0.618283
vt 0.425646 0.551399
vt 0.405579 0.532614
vt 0.425646 0.532614
vt 0.399744 0.551399
vt 0.390888 0.532614
vt 0.405579 0.532614
vt 0.379357 0.618283
vt 0.360572 0.644185
vt 0.360572 0.624118
vt 0.299985 0.700537
vt 0.315467 0.686304
vt 0.311654 0.700537
vt 0.305362 0.680470
vt 0.325887 0.675885
vt 0.315467 0.686304
vt 0.320052 0.665779
vt 0.340120 0.672071
vt 0.325887 0.675885
vt 0.311654 0.700537
vt 0.325573 0.692138
vt 0.323323 0.700537
vt 0.315467 0.686304
vt 0.331721 0.685990
vt 0.325573 0.692138
vt 0.325887 0.675885
vt 0.340120 0.683740
vt 0.331721 0.685990
vt 0.323323 0.700537
vt 0.333263 0.696578
vt 0.332202 0.700537
vt 0.325573 0.692138
vt 0.336161 0.693680
vt 0.333263 0.696578
vt 0.336161 0.693680
vt 0.340120 0.683740
vt 0.340120 0.692619
vt 0.332202 0.700537
vt 0.340120 0.700537
vt 0.333263 0.696578
vt 0.333263 0.696578
vt 0.340120 0.700537
vt 0.336161 0.693680
vt 0.336161 0.693680
vt 0.340120 0.700537
vt 0.340120 0.692619
vt 0.425646 0.577698
vt 0.388076 0.596484
vt 0.425646 0.596484
vt 0.370678 0.577698
vt 0.388076 0.596484
vt 0.393910 0.577698
vt 0.405657 0.644185
vt 0.424442 0.606615
vt 0.405657 0.612449
vt 0.399744 0.551399
vt 0.425646 0.577698
vt 0.425646 0.551399
vt 0.380783 0.551399
vt 0.393910 0.577698
vt 0.399744 0.551399
vt 0.379357 0.644185
vt 0.405657 0.612449
vt 0.379357 0.618283
vt 0.405579 0.532614
vt 0.425646 0.551399
vt 0.425646 0.532614
vt 0.390888 0.532614
vt 0.399744 0.551399
vt 0.405579 0.532614
vt 0.360572 0.644185
vt 0.379357 0.618283
vt 0.360572 0.624118
vt 0.315467 0.686304
vt 0.299985 0.700537
vt 0.311654 0.700537
vt 0.325887 0.675885
vt 0.305362 0.680470
vt 0.315467 0.686304
vt 0.340120 0.672071
vt 0.320052 0.665779
vt 0.325887 0.675885
vt 0.325573 0.692138
vt 0.311654 0.700537
vt 0.323323 0.700537
vt 0.331721 0.685990
vt 0.315467 0.686304
vt 0.325573 0.692138
vt 0.340120 0.683740
vt 0.325887 0.675885
vt 0.331721 0.685990
vt 0.333263 0.696578
vt 0.323323 0.700537
vt 0.332202 0.700537
vt 0.336161 0.693680
vt 0.325573 0.692138
vt 0.333263 0.696578
vt 0.336161 0.693680
vt 0.340120 0.683740
vt 0.331721 0.685990
vt 0.332202 0.700537
vt 0.340120 0.700537
vt 0.333263 0.696578
vt 0.333263 0.696578
vt 0.340120 0.700537
vt 0.336161 0.693680
vt 0.336161 0.693680
vt 0.340120 0.700537
vt 0.340120 0.692619
vt 0.425646 0.577698
vt 0.388076 0.596484
vt 0.425646 0.596484
vt 0.370678 0.577698
vt 0.388076 0.596484
vt 0.393910 0.577698
vt 0.405657 0.644185
vt 0.424442 0.606615
vt 0.405657 0.612449
vt 0.399744 0.551399
vt 0.425646 0.577698
vt 0.425646 0.551399
vt 0.380783 0.551399
vt 0.393910 0.577698
vt 0.399744 0.551399
vt 0.379357 0.644185
vt 0.405657 0.612449
vt 0.379357 0.618283
vt 0.405579 0.532614
vt 0.425646 0.551399
vt 0.425646 0.532614
vt 0.390888 0.532614
vt 0.399744 0.551399
vt 0.405579 0.532614
vt 0.360572 0.644185
vt 0.379357 0.618283
vt 0.360572 0.624118
vt 0.315467 0.686304
vt 0.299985 0.700537
vt 0.311654 0.700537
vt 0.325887 0.675885
vt 0.305362 0.680470
vt 0.315467 0.686304
vt 0.340120 0.672071
vt 0.320052 0.665779
vt 0.325887 0.675885
vt 0.325573 0.692138
vt 0.311654 0.700537
vt 0.323323 0.700537
vt 0.331721 0.685990
vt 0.315467 0.686304
vt 0.325573 0.692138
vt 0.340120 0.683740
vt 0.325887 0.675885
vt 0.331721 0.685990
vt 0.333263 0.696578
vt 0.323323 0.700537
vt 0.332202 0.700537
vt 0.336161 0.693680
vt 0.325573 0.692138
vt 0.333263 0.696578
vt 0.336161 0.693680
vt 0.340120 0.683740
vt 0.331721 0.685990
vt 0.332202 0.700537
vt 0.333263 0.696578
vt 0.340120 0.700537
vt 0.333263 0.696578
vt 0.336161 0.693680
vt 0.340120 0.700537
vt 0.336161 0.693680
vt 0.340120 0.692619
vt 0.340120 0.700537
vt 0.425646 0.577698
vt 0.388076 0.596484
vt 0.393910 0.577698
vt 0.393910 0.577698
vt 0.360572 0.596484
vt 0.370678 0.577698
vt 0.424442 0.606615
vt 0.405657 0.644185
vt 0.405657 0.612449
vt 0.425646 0.577698
vt 0.399744 0.551399
vt 0.425646 0.551399
vt 0.399744 0.551399
vt 0.370678 0.577698
vt 0.380783 0.551399
vt 0.405657 0.612449
vt 0.379357 0.644185
vt 0.379357 0.618283
vt 0.425646 0.551399
vt 0.405579 0.532614
vt 0.425646 0.532614
vt 0.399744 0.551399
vt 0.390888 0.532614
vt 0.405579 0.532614
vt 0.379357 0.618283
vt 0.360572 0.644185
vt 0.360572 0.624118
vt 0.299985 0.700537
vt 0.315467 0.686304
vt 0.311654 0.700537
vt 0.305362 0.680470
vt 0.325887 0.675885
vt 0.315467 0.686304
vt 0.320052 0.665779
vt 0.340120 0.672071
vt 0.325887 0.675885
vt 0.311654 0.700537
vt 0.325573 0.692138
vt 0.323323 0.700537
vt 0.315467 0.686304
vt 0.331721 0.685990
vt 0.325573 0.692138
vt 0.325887 0.675885
vt 0.340120 0.683740
vt 0.331721 0.685990
vt 0.323323 0.700537
vt 0.333263 0.696578
vt 0.332202 0.700537
vt 0.325573 0.692138
vt 0.336161 0.693680
vt 0.333263 0.696578
vt 0.336161 0.693680
vt 0.340120 0.683740
vt 0.340120 0.692619
vt 0.425646 0.596484
vt 0.388076 0.596484
vt 0.424442 0.644185
vt 0.393910 0.577698
vt 0.393910 0.577698
vt 0.405657 0.644185
vt 0.399744 0.551399
vt 0.380783 0.551399
vt 0.379357 0.644185
vt 0.305362 0.680470
vt 0.320052 0.665779
vt 0.340120 0.660402
vt 0.315467 0.686304
vt 0.325887 0.675885
vt 0.340120 0.672071
vt 0.325573 0.692138
vt 0.331721 0.685990
vt 0.331721 0.685990
vt 0.393910 0.577698
vt 0.360572 0.596484
vt 0.424442 0.644185
vt 0.393910 0.577698
vt 0.370678 0.577698
vt 0.405657 0.644185
vt 0.399744 0.551399
vt 0.380783 0.551399
vt 0.379357 0.644185
vt 0.305362 0.680470
vt 0.320052 0.665779
vt 0.340120 0.660402
vt 0.315467 0.686304
vt 0.325887 0.675885
vt 0.340120 0.672071
vt 0.325573 0.692138
vt 0.331721 0.685990
vt 0.340120 0.692619
vt 0.393910 0.577698
vt 0.360572 0.596484
vt 0.424442 0.644185
vt 0.393910 0.577698
vt 0.370678 0.577698
vt 0.405657 0.644185
vt 0.399744 0.551399
vt 0.380783 0.551399
vt 0.379357 0.644185
vt 0.305362 0.680470
vt 0.320052 0.665779
vt 0.340120 0.660402
vt 0.315467 0.686304
vt 0.325887 0.675885
vt 0.340120 0.672071
vt 0.325573 0.692138
vt 0.331721 0.685990
vt 0.340120 0.692619
vt 0.425646 0.596484
vt 0.388076 0.596484
vt 0.424442 0.644185
vt 0.393910 0.577698
vt 0.393910 0.577698
vt 0.405657 0.644185
vt 0.399744 0.551399
vt 0.380783 0.551399
vt 0.379357 0.644185
vt 0.305362 0.680470
vt 0.320052 0.665779
vt 0.340120 0.660402
vt 0.315467 0.686304
vt 0.325887 0.675885
vt 0.340120 0.672071
vt 0.325573 0.692138
vt 0.331721 0.685990
vt 0.331721 0.685990
vn 0.0000 1.0000 0.0000
vn 0.2219 0.5145 0.8283
vn 0.6063 0.5145 0.6063
vn 0.8283 0.5145 0.2219
vn 0.2379 0.3939 0.8878
vn 0.6499 0.3939 0.6499
vn 0.8878 0.3939 0.2379
vn 0.1830 0.7071 0.6830
vn 0.5000 0.7071 0.5000
vn 0.6830 0.7071 0.1830
vn 0.1038 0.9160 0.3876
vn 0.2837 0.9160 0.2837
vn 0.3876 0.9160 0.1038
vn -0.2219 0.5145 0.8283
vn -0.6063 0.5145 0.6063
vn -0.8283 0.5145 0.2219
vn -0.2379 0.3939 0.8878
vn -0.6499 0.3939 0.6499
vn -0.8878 0.3939 0.2379
vn -0.1830 0.7071 0.6830
vn -0.5000 0.7071 0.5000
vn -0.6830 0.7071 0.1830
vn -0.1038 0.9160 0.3876
vn -0.2837 0.9160 0.2837
vn -0.3876 0.9160 0.1038
vn 0.2219 0.5145 -0.8283
vn 0.6063 0.5145 -0.6063
vn 0.8283 0.5145 -0.2219
vn 0.2379 0.3939 -0.8878
vn 0.6499 0.3939 -0.6499
vn 0.8878 0.3939 -0.2379
vn 0.1830 0.7071 -0.6830
vn 0.5000 0.7071 -0.5000
vn 0.6830 0.7071 -0.1830
vn 0.1038 0.9160 -0.3876
vn 0.2837 0.9160 -0.2837
vn 0.3876 0.9160 -0.1038
vn -0.2219 0.5145 -0.8283
vn -0.6063 0.5145 -0.6063
vn -0.8283 0.5145 -0.2219
vn -0.2379 0.3939 -0.8878
vn -0.6499 0.3939 -0.6499
vn -0.8878 0.3939 -0.2379
vn -0.1830 0.7071 -0.6830
vn -0.5000 0.7071 -0.5000
vn -0.6830 0.7071 -0.1830
vn -0.1038 0.9160 -0.3876
vn -0.2837 0.9160 -0.2837
vn -0.3876 0.9160 -0.1038
s 1
f 86/1/1 89/2/1 92/3/1
f 90/4/1 103/5/1 93/6/1
f 104/7/1 106/8/1 94/9/1
f 109/10/2 113/11/2 114/12/2
f 115/13/3 117/14/3 118/15/3
f 2/16/4 122/17/4 119/18/4
f 110/19/5 128/20/5 125/21/5
f 129/22/6 120/23/6 131/24/6
f 6/25/7 134/26/7 132/27/7
f 126/28/2 140/29/2 137/30/2
f 3/31/3 143/32/3 141/33/3
f 4/34/4 146/35/4 144/36/4
f 138/37/8 152/38/8 149/39/8
f 7/40/9 155/41/9 153/42/9
f 8/43/10 158/44/10 156/45/10
f 150/46/8 164/47/8 161/48/8
f 9/49/9 167/50/9 165/51/9
f 10/52/10 170/53/10 168/54/10
f 162/55/11 91/56/11 87/57/11
f 11/58/12 105/59/12 13/60/12
f 14/61/13 171/62/13 107/63/13
f 88/64/1 95/65/1 173/66/1
f 174/67/1 96/68/1 176/69/1
f 177/70/1 97/71/1 179/72/1
f 111/73/14 185/74/14 15/75/14
f 186/76/15 16/77/15 183/78/15
f 190/79/16 17/80/16 187/81/16
f 194/82/17 21/83/17 127/84/17
f 197/85/18 22/86/18 195/87/18
f 200/88/19 23/89/19 198/90/19
f 203/91/14 18/92/14 139/93/14
f 206/94/15 19/95/15 204/96/15
f 209/97/16 20/98/16 207/99/16
f 212/100/20 24/101/20 151/102/20
f 215/103/21 25/104/21 213/105/21
f 218/106/22 26/107/22 216/108/22
f 221/109/20 27/110/20 163/111/20
f 224/112/21 28/113/21 222/114/21
f 227/115/22 29/116/22 225/117/22
f 175/118/23 30/119/23 33/120/23
f 178/121/24 31/122/24 34/123/24
f 35/124/25 228/125/25 32/126/25
f 230/127/1 98/128/1 233/129/1
f 234/130/1 99/131/1 236/132/1
f 237/133/1 102/134/1 108/135/1
f 239/136/26 245/137/26 246/138/26
f 247/139/27 36/140/27 243/141/27
f 124/142/28 37/143/28 248/144/28
f 254/145/29 240/146/29 251/147/29
f 257/148/30 42/149/30 255/150/30
f 136/151/31 43/152/31 258/153/31
f 263/154/26 252/155/26 260/156/26
f 266/157/27 39/158/27 264/159/27
f 148/160/28 40/161/28 267/162/28
f 272/163/32 261/164/32 269/165/32
f 275/166/33 45/167/33 273/168/33
f 160/169/34 46/170/34 276/171/34
f 281/172/32 270/173/32 278/174/32
f 284/175/33 48/176/33 282/177/33
f 172/178/34 49/179/34 285/180/34
f 235/181/35 279/182/35 231/183/35
f 238/184/36 51/185/36 54/186/36
f 55/187/37 53/188/37 52/189/37
f 232/190/1 287/191/1 100/192/1
f 288/193/1 290/194/1 101/195/1
f 291/196/1 181/197/1 61/198/1
f 241/199/38 293/200/38 294/201/38
f 295/202/39 297/203/39 298/204/39
f 59/205/40 192/206/40 299/207/40
f 66/208/41 301/209/41 253/210/41
f 302/211/42 300/212/42 304/213/42
f 68/214/43 202/215/43 305/216/43
f 62/217/38 307/218/38 262/219/38
f 63/220/39 310/221/39 308/222/39
f 64/223/40 211/224/40 311/225/40
f 70/226/44 313/227/44 271/228/44
f 71/229/45 316/230/45 314/231/45
f 72/232/46 220/233/46 317/234/46
f 74/235/44 319/236/44 280/237/44
f 75/238/45 322/239/45 320/240/45
f 76/241/46 229/242/46 323/243/46
f 78/244/47 289/245/47 82/246/47
f 79/247/48 292/248/48 83/249/48
f 84/250/49 81/251/49 85/252/49
f 109/10/2 112/253/2 113/11/2
f 115/13/3 1/254/3 117/14/3
f 2/16/4 121/255/4 122/17/4
f 110/19/5 116/256/5 128/20/5
f 129/22/6 5/257/6 120/23/6
f 6/25/7 123/258/7 134/26/7
f 126/28/2 130/259/2 140/29/2
f 3/31/3 133/260/3 143/32/3
f 4/34/4 135/261/4 146/35/4
f 138/37/8 142/262/8 152/38/8
f 7/40/9 145/263/9 155/41/9
f 8/43/10 147/264/10 158/44/10
f 150/46/8 154/265/8 164/47/8
f 9/49/9 157/266/9 167/50/9
f 10/52/10 159/267/10 170/53/10
f 162/55/11 166/268/11 91/56/11
f 11/58/12 169/269/12 105/59/12
f 14/61/13 12/270/13 171/62/13
f 111/73/14 182/271/14 185/74/14
f 186/76/15 189/272/15 16/77/15
f 190/79/16 193/273/16 17/80/16
f 194/82/17 184/274/17 21/83/17
f 197/85/18 188/275/18 22/86/18
f 200/88/19 191/276/19 23/89/19
f 203/91/14 196/277/14 18/92/14
f 206/94/15 199/278/15 19/95/15
f 209/97/16 201/279/16 20/98/16
f 212/100/20 205/280/20 24/101/20
f 215/103/21 208/281/21 25/104/21
f 218/106/22 210/282/22 26/107/22
f 221/109/20 214/283/20 27/110/20
f 224/112/21 217/284/21 28/113/21
f 227/115/22 219/285/22 29/116/22
f 175/118/23 223/286/23 30/119/23
f 178/121/24 226/287/24 31/122/24
f 35/124/25 180/288/25 228/125/25
f 239/136/26 242/289/26 245/137/26
f 247/139/27 250/290/27 36/140/27
f 124/142/28 38/291/28 37/143/28
f 254/145/29 244/292/29 240/146/29
f 257/148/30 249/293/30 42/149/30
f 136/151/31 44/294/31 43/152/31
f 263/154/26 256/295/26 252/155/26
f 266/157/27 259/296/27 39/158/27
f 148/160/28 41/297/28 40/161/28
f 272/163/32 265/298/32 261/164/32
f 275/166/33 268/299/33 45/167/33
f 160/169/34 47/300/34 46/170/34
f 281/172/32 274/301/32 270/173/32
f 284/175/33 277/302/33 48/176/33
f 172/178/34 50/303/34 49/179/34
f 235/181/35 283/304/35 279/182/35
f 238/184/36 286/305/36 51/185/36
f 55/187/37 56/306/37 53/188/37
f 241/199/38 57/307/38 293/200/38
f 295/202/39 58/308/39 297/203/39
f 59/205/40 60/309/40 192/206/40
f 66/208/41 296/310/41 301/209/41
f 302/211/42 67/311/42 300/212/42
f 68/214/43 69/312/43 202/215/43
f 62/217/38 303/313/38 307/218/38
f 63/220/39 306/314/39 310/221/39
f 64/223/40 65/315/40 211/224/40
f 70/226/44 309/316/44 313/227/44
f 71/229/45 312/317/45 316/230/45
f 72/232/46 73/318/46 220/233/46
f 74/235/44 315/319/44 319/236/44
f 75/238/45 318/320/45 322/239/45
f 76/241/46 77/321/46 229/242/46
f 78/244/47 321/322/47 289/245/47
f 79/247/48 324/323/48 292/248/48
f 84/250/49 80/324/49 81/251/49
