# Blender v2.81 (sub 16) OBJ File: ''
# www.blender.org
o LogBig
v 1.500000 0.562502 0.324760
v 1.500000 0.699761 0.187500
v 1.500000 0.375001 0.000000
v 1.500000 0.375001 0.000000
v -1.500000 0.562502 0.324760
v 1.500000 0.375001 0.000000
v 0.000000 0.562501 0.324760
v 0.000000 0.699761 0.187500
v 1.500000 0.375001 0.375000
v -1.500000 0.699761 0.187500
v 1.500000 0.375001 0.375000
v 1.500000 0.699761 -0.187500
v 1.500000 0.375001 0.375000
v 1.500000 0.562502 -0.324760
v 0.000000 0.750001 0.000000
v 1.500000 0.750002 0.000000
v -1.500000 0.562502 -0.324760
v -1.500000 0.699761 -0.187500
v -1.500000 0.750002 0.000000
v 0.000000 0.562501 -0.324760
v 0.000000 0.699761 -0.187500
v 0.000000 0.750001 0.000000
v 0.000000 0.750001 0.000000
v 0.000000 0.750001 0.000000
v 0.000000 0.699761 0.187500
v 0.000000 0.699761 0.187500
v 1.500000 0.187500 0.324760
v 1.500000 0.050241 0.187500
v 1.500000 0.375001 0.375000
v 0.000000 0.699761 0.187500
v 1.500000 0.699761 0.187500
v 1.500000 0.699761 0.187500
v -1.500000 0.187500 0.324760
v 1.500000 0.699761 0.187500
v 0.000000 0.375001 0.375000
v 0.000000 0.187501 0.324760
v 0.000000 0.050241 0.187500
v -1.500000 0.375001 0.375000
v 0.000000 0.375001 0.375000
v -1.500000 0.050241 0.187500
v 1.500000 0.375001 -0.375000
v 1.500000 0.187500 -0.324760
v 1.500000 0.050241 -0.187500
v 1.500000 0.000000 0.000000
v 0.000000 0.375001 0.375000
v 0.000000 0.375001 0.375000
v 0.000000 0.562501 0.324760
v 0.000000 0.562501 0.324760
v 1.500000 0.375001 0.000000
v 0.000000 0.562501 0.324760
v -1.500000 0.187500 -0.324760
v -1.500000 0.050241 -0.187500
v -1.500000 0.000000 0.000000
v 0.000000 0.375001 -0.375000
v 0.000000 0.187501 -0.324760
v 0.000000 0.050241 -0.187500
v 0.000000 0.000001 0.000000
v -1.500000 0.375001 -0.375000
v 1.500000 0.562502 0.324760
v 1.500000 0.562502 0.324760
v 1.500000 0.562502 0.324760
v -1.500000 0.375001 0.000000
v 1.500000 0.375001 0.000000
v 1.500000 0.375001 0.000000
v 1.500000 0.375001 0.000000
v 1.500000 0.375001 0.000000
v 1.500000 0.375001 0.000000
v 1.500000 0.375001 0.000000
v 1.500000 0.375001 0.000000
v 1.500000 0.375001 0.000000
v 1.500000 0.750002 0.000000
v 1.500000 0.750002 0.000000
v 1.500000 0.750002 0.000000
v -1.500000 0.562502 0.324760
v -1.500000 0.562502 0.324760
v -1.500000 0.562502 0.324760
v -1.500000 0.750002 0.000000
v -1.500000 0.750002 0.000000
v -1.500000 0.750002 0.000000
v -1.500000 0.375001 0.000000
v -1.500000 0.375001 0.000000
v -1.500000 0.375001 0.000000
v -1.500000 0.375001 0.000000
v -1.500000 0.375001 0.000000
v -1.500000 0.375001 0.000000
v -1.500000 0.375001 0.000000
v -1.500000 0.375001 0.000000
v -1.500000 0.375001 0.000000
v -1.500000 0.375001 0.000000
v -1.500000 0.375001 0.000000
v -1.500000 0.375001 0.375000
v -1.500000 0.375001 0.375000
v -1.500000 0.375001 0.375000
v -1.500000 0.050241 -0.187500
v -1.500000 0.050241 -0.187500
v -1.500000 0.050241 -0.187500
v -1.500000 0.699761 0.187500
v -1.500000 0.699761 0.187500
v -1.500000 0.699761 0.187500
v -1.500000 0.187500 -0.324760
v -1.500000 0.187500 -0.324760
v -1.500000 0.187500 -0.324760
v -1.500000 0.000000 0.000000
v -1.500000 0.000000 0.000000
v -1.500000 0.000000 0.000000
v 0.000000 0.375001 -0.375000
v 0.000000 0.375001 -0.375000
v 0.000000 0.375001 -0.375000
v 0.000000 0.562501 -0.324760
v 0.000000 0.562501 -0.324760
v 0.000000 0.562501 -0.324760
v -1.500000 0.187500 0.324760
v -1.500000 0.187500 0.324760
v -1.500000 0.187500 0.324760
v -1.500000 0.699761 -0.187500
v -1.500000 0.699761 -0.187500
v -1.500000 0.699761 -0.187500
v 1.500000 0.375001 -0.375000
v 1.500000 0.375001 -0.375000
v 1.500000 0.375001 -0.375000
v 0.000000 0.699761 -0.187500
v 0.000000 0.699761 -0.187500
v 0.000000 0.699761 -0.187500
v 1.500000 0.699761 -0.187500
v 1.500000 0.699761 -0.187500
v 1.500000 0.699761 -0.187500
v -1.500000 0.562502 -0.324760
v -1.500000 0.562502 -0.324760
v -1.500000 0.562502 -0.324760
v -1.500000 0.050241 0.187500
v -1.500000 0.050241 0.187500
v -1.500000 0.050241 0.187500
v -1.500000 0.375001 -0.375000
v -1.500000 0.375001 -0.375000
v -1.500000 0.375001 -0.375000
v 1.500000 0.562502 -0.324760
v 1.500000 0.562502 -0.324760
v 1.500000 0.562502 -0.324760
v 1.500000 0.050241 -0.187500
v 1.500000 0.050241 -0.187500
v 1.500000 0.050241 -0.187500
v 1.500000 0.187500 -0.324760
v 1.500000 0.187500 -0.324760
v 1.500000 0.187500 -0.324760
v 0.000000 0.187501 0.324760
v 0.000000 0.187501 0.324760
v 0.000000 0.187501 0.324760
v 1.500000 0.187500 0.324760
v 1.500000 0.187500 0.324760
v 1.500000 0.187500 0.324760
v 1.500000 0.000000 0.000000
v 1.500000 0.000000 0.000000
v 1.500000 0.000000 0.000000
v 0.000000 0.050241 0.187500
v 0.000000 0.050241 0.187500
v 0.000000 0.050241 0.187500
v 1.500000 0.050241 0.187500
v 1.500000 0.050241 0.187500
v 1.500000 0.050241 0.187500
v 0.000000 0.000001 0.000000
v 0.000000 0.000001 0.000000
v 0.000000 0.000001 0.000000
v 0.000000 0.187501 -0.324760
v 0.000000 0.187501 -0.324760
v 0.000000 0.187501 -0.324760
v 0.000000 0.050241 -0.187500
v 0.000000 0.050241 -0.187500
v 0.000000 0.050241 -0.187500
vt 0.398120 0.884252
vt 0.369942 0.880730
vt 0.398120 0.880730
vt 0.369942 0.880730
vt 0.398120 0.878151
vt 0.398120 0.880730
vt 0.903491 0.213343
vt 0.899969 0.241521
vt 0.899969 0.213343
vt 0.349041 0.946313
vt 0.349041 0.953357
vt 0.345519 0.947257
vt 0.345519 0.947257
vt 0.349041 0.953357
vt 0.342941 0.949835
vt 0.342941 0.949835
vt 0.349041 0.953357
vt 0.341997 0.953357
vt 0.398120 0.880730
vt 0.369942 0.884252
vt 0.398120 0.884252
vt 0.398120 0.878151
vt 0.369942 0.880730
vt 0.398120 0.880730
vt 0.903491 0.213343
vt 0.899969 0.241521
vt 0.903491 0.241521
vt 0.349041 0.946313
vt 0.345519 0.947257
vt 0.349041 0.953357
vt 0.345519 0.947257
vt 0.342941 0.949835
vt 0.349041 0.953357
vt 0.342941 0.949835
vt 0.341997 0.953357
vt 0.349041 0.953357
vt 0.398120 0.880730
vt 0.369942 0.884252
vt 0.398120 0.884252
vt 0.398120 0.878151
vt 0.369942 0.880730
vt 0.398120 0.880730
vt 0.903491 0.213343
vt 0.899969 0.241521
vt 0.903491 0.241521
vt 0.349041 0.946313
vt 0.345519 0.947257
vt 0.349041 0.953357
vt 0.345519 0.947257
vt 0.342941 0.949835
vt 0.349041 0.953357
vt 0.342941 0.949835
vt 0.341997 0.953357
vt 0.349041 0.953357
vt 0.398120 0.884252
vt 0.369942 0.880730
vt 0.398120 0.880730
vt 0.369942 0.880730
vt 0.398120 0.878151
vt 0.398120 0.880730
vt 0.903491 0.213343
vt 0.899969 0.241521
vt 0.899969 0.213343
vt 0.349041 0.946313
vt 0.349041 0.953357
vt 0.345519 0.947257
vt 0.345519 0.947257
vt 0.349041 0.953357
vt 0.342941 0.949835
vt 0.342941 0.949835
vt 0.349041 0.953357
vt 0.341997 0.953357
vt 0.398120 0.884252
vt 0.369942 0.880730
vt 0.369942 0.884252
vt 0.398120 0.878151
vt 0.369942 0.880730
vt 0.398120 0.880730
vt 0.899969 0.213343
vt 0.903491 0.241521
vt 0.903491 0.213343
vt 0.349041 0.946313
vt 0.345519 0.947257
vt 0.349041 0.953357
vt 0.345519 0.947257
vt 0.342941 0.949835
vt 0.349041 0.953357
vt 0.342941 0.949835
vt 0.341997 0.953357
vt 0.349041 0.953357
vt 0.398120 0.884252
vt 0.369942 0.880730
vt 0.398120 0.880730
vt 0.369942 0.880730
vt 0.398120 0.878151
vt 0.398120 0.880730
vt 0.903491 0.213343
vt 0.899969 0.241521
vt 0.899969 0.213343
vt 0.349041 0.946313
vt 0.349041 0.953357
vt 0.345519 0.947257
vt 0.345519 0.947257
vt 0.349041 0.953357
vt 0.342941 0.949835
vt 0.342941 0.949835
vt 0.349041 0.953357
vt 0.341997 0.953357
vt 0.398120 0.884252
vt 0.369942 0.880730
vt 0.398120 0.880730
vt 0.369942 0.880730
vt 0.398120 0.878151
vt 0.398120 0.880730
vt 0.903491 0.213343
vt 0.899969 0.241521
vt 0.899969 0.213343
vt 0.349041 0.946313
vt 0.349041 0.953357
vt 0.345519 0.947257
vt 0.345519 0.947257
vt 0.349041 0.953357
vt 0.342941 0.949835
vt 0.342941 0.949835
vt 0.349041 0.953357
vt 0.341997 0.953357
vt 0.398120 0.884252
vt 0.369942 0.880730
vt 0.369942 0.884252
vt 0.398120 0.878151
vt 0.369942 0.880730
vt 0.398120 0.880730
vt 0.899969 0.213343
vt 0.903491 0.241521
vt 0.903491 0.213343
vt 0.349041 0.946313
vt 0.345519 0.947257
vt 0.349041 0.953357
vt 0.345519 0.947257
vt 0.342941 0.949835
vt 0.349041 0.953357
vt 0.342941 0.949835
vt 0.341997 0.953357
vt 0.349041 0.953357
vt 0.369942 0.884252
vt 0.369942 0.878151
vt 0.903491 0.241521
vt 0.369942 0.880730
vt 0.369942 0.878151
vt 0.899969 0.213343
vt 0.369942 0.880730
vt 0.369942 0.878151
vt 0.899969 0.213343
vt 0.369942 0.884252
vt 0.369942 0.878151
vt 0.903491 0.241521
vt 0.398120 0.880730
vt 0.369942 0.878151
vt 0.899969 0.241521
vt 0.369942 0.884252
vt 0.369942 0.878151
vt 0.903491 0.241521
vt 0.369942 0.884252
vt 0.369942 0.878151
vt 0.903491 0.241521
vt 0.398120 0.880730
vt 0.369942 0.878151
vt 0.899969 0.241521
vn -0.0000 0.2588 0.9659
vn -0.0000 0.7071 0.7071
vn -0.0000 0.9659 0.2588
vn 1.0000 0.0000 0.0000
vn -1.0000 0.0000 0.0000
vn -0.0000 0.2588 -0.9659
vn -0.0000 0.7071 -0.7071
vn -0.0000 0.9659 -0.2588
vn -0.0000 -0.2588 0.9659
vn -0.0000 -0.7071 0.7071
vn -0.0000 -0.9659 0.2588
vn -0.0000 -0.2588 -0.9659
vn -0.0000 -0.7071 -0.7071
vn -0.0000 -0.9659 -0.2588
s 1
f 46/1/1 60/2/1 48/3/1
f 61/4/2 30/5/2 50/6/2
f 26/7/3 72/8/3 24/9/3
f 13/10/4 6/11/4 59/12/4
f 1/13/4 63/14/4 31/15/4
f 2/16/4 4/17/4 71/18/4
f 47/19/1 92/20/1 39/21/1
f 25/22/2 75/23/2 7/24/2
f 8/25/3 78/26/3 99/27/3
f 91/28/5 76/29/5 80/30/5
f 5/31/5 97/32/5 81/33/5
f 10/34/5 79/35/5 84/36/5
f 109/37/6 119/38/6 106/39/6
f 122/40/7 138/41/7 20/42/7
f 21/43/8 73/44/8 125/45/8
f 120/46/4 136/47/4 3/48/4
f 14/49/4 126/50/4 64/51/4
f 12/52/4 16/53/4 70/54/4
f 108/55/6 128/56/6 111/57/6
f 127/58/7 121/59/7 110/60/7
f 123/61/8 77/62/8 23/63/8
f 133/64/5 82/65/5 129/66/5
f 17/67/5 85/68/5 117/69/5
f 18/70/5 90/71/5 19/72/5
f 45/73/9 149/74/9 9/75/9
f 154/76/10 148/77/10 146/78/10
f 160/79/11 158/80/11 155/81/11
f 29/82/4 150/83/4 65/84/4
f 27/85/4 159/86/4 66/87/4
f 28/88/4 153/89/4 67/90/4
f 35/91/9 112/92/9 147/93/9
f 113/94/10 156/95/10 36/96/10
f 37/97/11 104/98/11 57/99/11
f 38/100/5 86/101/5 114/102/5
f 33/103/5 83/104/5 130/105/5
f 40/106/5 87/107/5 105/108/5
f 107/109/12 142/110/12 163/111/12
f 143/112/13 166/113/13 164/114/13
f 167/115/14 152/116/14 162/117/14
f 41/118/4 68/119/4 144/120/4
f 42/121/4 69/122/4 141/123/4
f 43/124/4 49/125/4 44/126/4
f 54/127/12 101/128/12 135/129/12
f 168/130/13 100/131/13 165/132/13
f 161/133/14 95/134/14 56/135/14
f 58/136/5 102/137/5 88/138/5
f 51/139/5 96/140/5 89/141/5
f 52/142/5 53/143/5 62/144/5
f 46/1/1 11/145/1 60/2/1
f 61/4/2 34/146/2 30/5/2
f 26/7/3 32/147/3 72/8/3
f 47/19/1 74/148/1 92/20/1
f 25/22/2 98/149/2 75/23/2
f 8/25/3 15/150/3 78/26/3
f 109/37/6 137/151/6 119/38/6
f 122/40/7 124/152/7 138/41/7
f 21/43/8 22/153/8 73/44/8
f 108/55/6 134/154/6 128/56/6
f 127/58/7 115/155/7 121/59/7
f 123/61/8 116/156/8 77/62/8
f 45/73/9 145/157/9 149/74/9
f 154/76/10 157/158/10 148/77/10
f 160/79/11 151/159/11 158/80/11
f 35/91/9 93/160/9 112/92/9
f 113/94/10 131/161/10 156/95/10
f 37/97/11 132/162/11 104/98/11
f 107/109/12 118/163/12 142/110/12
f 143/112/13 139/164/13 166/113/13
f 167/115/14 140/165/14 152/116/14
f 54/127/12 55/166/12 101/128/12
f 168/130/13 94/167/13 100/131/13
f 161/133/14 103/168/14 95/134/14
