# Blender v2.81 (sub 16) OBJ File: ''
# www.blender.org
o ToolHoe
v 1.525000 0.265823 0.134069
v 1.525000 0.265823 0.134069
v 1.578936 0.088574 0.080329
v 1.565184 0.050000 0.020385
v 1.565184 0.075000 0.040769
v 1.565184 0.100000 0.020385
v 1.578936 0.050000 0.020385
v 1.578936 0.100000 0.020385
v 1.578936 0.088574 0.080329
v 1.565184 0.061426 0.053519
v 1.578936 0.061426 0.053519
v 1.565184 0.088574 0.080329
v 1.525000 0.277249 0.024992
v 1.525000 0.265823 0.134069
v 1.518124 -0.104323 0.053642
v 1.531876 -0.104323 0.053642
v 1.113989 0.023342 -0.034930
v 1.578936 0.088574 0.080329
v 1.111383 0.126658 -0.034930
v 1.578936 0.088574 0.080329
v 1.565184 0.088574 0.080329
v 1.565184 0.050000 -0.020385
v 1.565184 0.075000 -0.040769
v 1.565184 0.100000 -0.020385
v 1.578936 0.050000 -0.020385
v 1.578936 0.100000 -0.020385
v 1.565184 0.100000 0.000000
v 1.565184 0.050000 0.000000
v 1.578936 0.050000 0.000000
v 1.578936 0.100000 0.000000
v 1.578936 0.088574 -0.080329
v 1.565184 0.061426 -0.053519
v 1.578936 0.061426 -0.053519
v 1.565184 0.088574 -0.080329
v 1.525000 0.277249 0.000000
v 1.525000 0.277249 -0.024992
v 1.525000 0.265823 -0.134069
v 1.518124 -0.104323 -0.053642
v 1.531876 -0.104323 -0.053642
v -1.176003 0.030209 0.032662
v 1.113989 0.023342 0.034930
v -1.176003 0.075000 0.055058
v 1.111382 0.075000 0.060759
v -1.176003 0.119791 0.032662
v 1.111383 0.126658 0.034930
v -1.211637 0.075000 -0.001182
v -1.176003 0.030209 0.000000
v -1.176003 0.030209 -0.032662
v 1.565184 0.088574 0.080329
v -1.176003 0.075000 -0.055058
v 1.111382 0.075000 -0.060759
v -1.176003 0.119791 -0.032662
v 1.565184 0.088574 0.080329
v -1.176003 0.119791 0.000000
v -1.211637 0.075000 0.001182
v 1.111383 0.126658 0.000000
v 1.111380 0.023342 0.000000
v 1.565184 0.075000 0.040769
v 1.565184 0.100000 0.020385
v 1.565184 0.100000 0.020385
v 1.565184 0.100000 0.020385
v 1.565184 0.100000 0.020385
v 1.565184 0.100000 0.000000
v 1.565184 0.100000 0.000000
v 1.565184 0.100000 0.000000
v 1.565184 0.100000 0.000000
v 1.111383 0.126658 0.000000
v 1.111383 0.126658 0.000000
v 1.111383 0.126658 0.000000
v 1.565184 0.100000 -0.020385
v 1.565184 0.100000 -0.020385
v 1.565184 0.100000 -0.020385
v 1.565184 0.100000 -0.020385
v 1.525000 0.277249 0.000000
v 1.525000 0.277249 0.000000
v 1.525000 0.277249 0.000000
v 1.525000 0.277249 0.000000
v 1.565184 0.050000 0.020385
v 1.565184 0.050000 0.020385
v 1.565184 0.050000 0.020385
v 1.565184 0.050000 0.020385
v 1.565184 0.050000 0.020385
v 1.578936 0.050000 0.020385
v 1.578936 0.050000 0.020385
v 1.578936 0.050000 0.020385
v 1.578936 0.050000 0.020385
v 1.578936 0.050000 0.000000
v 1.578936 0.050000 0.000000
v 1.578936 0.050000 0.000000
v 1.578936 0.100000 0.000000
v 1.578936 0.100000 0.000000
v 1.578936 0.100000 0.000000
v 1.578936 0.100000 0.000000
v 1.578936 0.100000 0.020385
v 1.578936 0.100000 0.020385
v 1.578936 0.100000 0.020385
v 1.578936 0.061426 0.053519
v 1.578936 0.061426 0.053519
v 1.578936 0.061426 0.053519
v 1.565184 0.050000 0.000000
v 1.565184 0.050000 0.000000
v 1.565184 0.050000 0.000000
v 1.111383 0.126658 0.034930
v 1.111383 0.126658 0.034930
v 1.111383 0.126658 0.034930
v 1.565184 0.061426 0.053519
v 1.565184 0.061426 0.053519
v 1.565184 0.061426 0.053519
v 1.525000 0.277249 0.024992
v 1.525000 0.277249 0.024992
v 1.525000 0.277249 0.024992
v 1.518124 -0.104323 0.053642
v 1.518124 -0.104323 0.053642
v 1.531876 -0.104323 0.053642
v 1.531876 -0.104323 0.053642
v 1.565184 0.088574 -0.080329
v 1.565184 0.088574 -0.080329
v 1.565184 0.088574 -0.080329
v 1.525000 0.265823 -0.134069
v 1.525000 0.265823 -0.134069
v 1.578936 0.088574 -0.080329
v 1.578936 0.088574 -0.080329
v 1.578936 0.088574 -0.080329
v 1.111383 0.126658 -0.034930
v 1.111383 0.126658 -0.034930
v 1.111383 0.126658 -0.034930
v 1.565184 0.075000 -0.040769
v 1.111382 0.075000 0.060759
v 1.111382 0.075000 0.060759
v 1.111382 0.075000 0.060759
v 1.565184 0.050000 -0.020385
v 1.565184 0.050000 -0.020385
v 1.565184 0.050000 -0.020385
v 1.565184 0.050000 -0.020385
v 1.565184 0.050000 -0.020385
v 1.113989 0.023342 -0.034930
v 1.113989 0.023342 -0.034930
v 1.113989 0.023342 -0.034930
v 1.578936 0.050000 -0.020385
v 1.578936 0.050000 -0.020385
v 1.578936 0.050000 -0.020385
v 1.578936 0.050000 -0.020385
v 1.578936 0.100000 -0.020385
v 1.578936 0.100000 -0.020385
v 1.578936 0.100000 -0.020385
v 1.578936 0.061426 -0.053519
v 1.578936 0.061426 -0.053519
v 1.578936 0.061426 -0.053519
v 1.565184 0.061426 -0.053519
v 1.565184 0.061426 -0.053519
v 1.565184 0.061426 -0.053519
v 1.525000 0.277249 -0.024992
v 1.525000 0.277249 -0.024992
v 1.525000 0.277249 -0.024992
v 1.518124 -0.104323 -0.053642
v 1.518124 -0.104323 -0.053642
v 1.531876 -0.104323 -0.053642
v 1.531876 -0.104323 -0.053642
v -1.176003 0.030209 0.000000
v -1.176003 0.030209 0.000000
v -1.176003 0.030209 0.000000
v 1.111380 0.023342 0.000000
v 1.111380 0.023342 0.000000
v 1.111380 0.023342 0.000000
v 1.113989 0.023342 0.034930
v 1.113989 0.023342 0.034930
v 1.113989 0.023342 0.034930
v -1.176003 0.030209 0.032662
v -1.176003 0.030209 0.032662
v -1.176003 0.030209 0.032662
v -1.176003 0.075000 0.055058
v -1.176003 0.075000 0.055058
v -1.176003 0.075000 0.055058
v -1.176003 0.119791 0.032662
v -1.176003 0.119791 0.032662
v -1.176003 0.119791 0.032662
v -1.211637 0.075000 -0.001182
v -1.211637 0.075000 -0.001182
v -1.211637 0.075000 -0.001182
v -1.176003 0.119791 0.000000
v -1.176003 0.119791 0.000000
v -1.176003 0.119791 0.000000
v -1.176003 0.030209 -0.032662
v -1.176003 0.030209 -0.032662
v -1.176003 0.030209 -0.032662
v -1.176003 0.075000 -0.055058
v -1.176003 0.075000 -0.055058
v -1.176003 0.075000 -0.055058
v 1.111382 0.075000 -0.060759
v 1.111382 0.075000 -0.060759
v 1.111382 0.075000 -0.060759
v -1.176003 0.119791 -0.032662
v -1.176003 0.119791 -0.032662
v -1.176003 0.119791 -0.032662
v -1.211637 0.075000 0.001182
v -1.211637 0.075000 0.001182
v -1.211637 0.075000 0.001182
vt 0.977449 0.777844
vt 0.977191 0.777839
vt 0.978266 0.774529
vt 0.956550 0.516728
vt 0.965074 0.517197
vt 0.956550 0.517698
vt 0.970553 0.092499
vt 0.962028 0.092882
vt 0.962028 0.092499
vt 0.956599 0.515757
vt 0.965074 0.516728
vt 0.956550 0.516728
vt 0.568727 0.970206
vt 0.568902 0.969207
vt 0.569102 0.970125
vt 0.569664 0.969783
vt 0.568902 0.969207
vt 0.570048 0.969178
vt 0.976811 0.805930
vt 0.976428 0.806188
vt 0.976428 0.805930
vt 0.976155 0.797454
vt 0.976811 0.805930
vt 0.976428 0.805930
vt 0.900093 0.968061
vt 0.899331 0.968637
vt 0.899530 0.967719
vt 0.570048 0.969178
vt 0.568280 0.965935
vt 0.570328 0.965710
vt 0.900093 0.968061
vt 0.899530 0.967719
vt 0.900756 0.965019
vt 0.900477 0.968667
vt 0.898709 0.971909
vt 0.899331 0.968637
vt 0.568902 0.969207
vt 0.567821 0.966034
vt 0.568280 0.965935
vt 0.899331 0.968637
vt 0.898250 0.971810
vt 0.898957 0.968556
vt 0.977449 0.777844
vt 0.977181 0.778349
vt 0.977191 0.777839
vt 0.977440 0.778354
vt 0.978007 0.781479
vt 0.977181 0.778349
vt 0.569102 0.970125
vt 0.569664 0.969783
vt 0.570328 0.972825
vt 0.988881 0.461926
vt 0.988634 0.458970
vt 0.988881 0.458895
vt 0.977449 0.777844
vt 0.978266 0.774529
vt 0.977191 0.777839
vt 0.965074 0.517197
vt 0.956550 0.516728
vt 0.956550 0.517698
vt 0.970553 0.092499
vt 0.962028 0.092882
vt 0.970553 0.093155
vt 0.965074 0.516728
vt 0.956599 0.515757
vt 0.956550 0.516728
vt 0.568902 0.969207
vt 0.568727 0.970206
vt 0.569102 0.970125
vt 0.568902 0.969207
vt 0.569664 0.969783
vt 0.570048 0.969178
vt 0.976428 0.806188
vt 0.976811 0.805930
vt 0.976428 0.805930
vt 0.976155 0.797454
vt 0.976811 0.805930
vt 0.976811 0.797405
vt 0.899331 0.968637
vt 0.900093 0.968061
vt 0.899530 0.967719
vt 0.570048 0.969178
vt 0.568280 0.965935
vt 0.568902 0.969207
vt 0.900093 0.968061
vt 0.900756 0.965019
vt 0.899530 0.967719
vt 0.898709 0.971909
vt 0.900477 0.968667
vt 0.899331 0.968637
vt 0.568902 0.969207
vt 0.567821 0.966034
vt 0.568528 0.969288
vt 0.898250 0.971810
vt 0.899331 0.968637
vt 0.898957 0.968556
vt 0.987654 0.838958
vt 0.987654 0.835477
vt 0.987407 0.838883
vt 0.977449 0.777844
vt 0.977181 0.778349
vt 0.977440 0.778354
vt 0.978007 0.781479
vt 0.977440 0.778354
vt 0.977181 0.778349
vt 0.569102 0.970125
vt 0.570328 0.972825
vt 0.569664 0.969783
vt 0.988881 0.461926
vt 0.988634 0.458970
vt 0.988634 0.462001
vt 0.891450 0.261040
vt 0.892106 0.304008
vt 0.891493 0.304009
vt 0.553452 0.876786
vt 0.510483 0.875945
vt 0.553452 0.875945
vt 0.510483 0.875945
vt 0.553452 0.875103
vt 0.553452 0.875945
vt 0.215117 0.987680
vt 0.214276 0.988316
vt 0.214276 0.987702
vt 0.214276 0.988316
vt 0.215117 0.987680
vt 0.215117 0.988736
vt 0.215117 0.988736
vt 0.215117 0.987680
vt 0.215959 0.988316
vt 0.215959 0.988316
vt 0.215117 0.987680
vt 0.215959 0.987702
vt 0.124392 0.878735
vt 0.167361 0.879348
vt 0.124392 0.879348
vt 0.892106 0.304008
vt 0.891450 0.261040
vt 0.891493 0.304009
vt 0.553452 0.876786
vt 0.510483 0.875945
vt 0.510434 0.876915
vt 0.553452 0.875103
vt 0.510483 0.875945
vt 0.553452 0.875945
vt 0.215117 0.987680
vt 0.214276 0.987702
vt 0.214276 0.988316
vt 0.214276 0.988316
vt 0.215117 0.988736
vt 0.215117 0.987680
vt 0.215117 0.988736
vt 0.215959 0.988316
vt 0.215117 0.987680
vt 0.215959 0.988316
vt 0.215959 0.987702
vt 0.215117 0.987680
vt 0.124392 0.878735
vt 0.167361 0.879348
vt 0.167361 0.878692
vt 0.965074 0.516728
vt 0.970553 0.093155
vt 0.965074 0.516258
vt 0.568528 0.969288
vt 0.569102 0.970125
vt 0.976811 0.806188
vt 0.976811 0.797405
vt 0.900477 0.968667
vt 0.568902 0.969207
vt 0.900756 0.972135
vt 0.568528 0.969288
vt 0.898709 0.971909
vt 0.977440 0.778354
vt 0.978266 0.781483
vt 0.988634 0.462001
vt 0.965074 0.516728
vt 0.962028 0.092499
vt 0.965074 0.516258
vt 0.568528 0.969288
vt 0.569102 0.970125
vt 0.976811 0.806188
vt 0.976428 0.805930
vt 0.900477 0.968667
vt 0.570328 0.965710
vt 0.900756 0.972135
vt 0.568280 0.965935
vt 0.898709 0.971909
vt 0.977191 0.777839
vt 0.978266 0.781483
vt 0.988881 0.458895
vt 0.892106 0.260991
vt 0.510434 0.876915
vt 0.510483 0.874974
vt 0.167361 0.878692
vt 0.892106 0.260991
vt 0.553452 0.875945
vt 0.510483 0.874974
vt 0.124392 0.879348
vn 0.0000 -0.2901 0.9570
vn 0.0540 0.4554 0.8886
vn 0.0358 0.6180 0.7854
vn 0.0549 0.4465 0.8931
vn 0.0586 0.9983 0.0000
vn 0.0405 -0.4541 0.8900
vn 0.0605 -0.6171 0.7846
vn 0.0394 -0.4453 0.8945
vn 1.0000 -0.0000 0.0000
vn 0.0000 -1.0000 0.0000
vn 0.0587 -0.9983 -0.0043
vn 0.0590 -0.9983 -0.0002
vn 0.0590 -0.9983 0.0000
vn -1.0000 0.0000 0.0000
vn 0.9567 0.2872 0.0466
vn 0.9582 0.2841 0.0347
vn 0.9587 0.2828 0.0296
vn -0.9578 0.2719 -0.0937
vn -0.9753 -0.2181 -0.0353
vn -0.9761 -0.2156 -0.0264
vn -0.9746 -0.2199 -0.0419
vn 0.9567 0.2911 0.0000
vn -0.9753 -0.2211 0.0000
vn 0.0000 -0.7027 0.7115
vn -0.0000 0.0007 1.0000
vn 0.9578 -0.2719 0.0937
vn 0.0000 -0.2107 -0.9776
vn 0.0000 -0.2901 -0.9570
vn 0.0358 0.6180 -0.7854
vn 0.0540 0.4554 -0.8886
vn 0.0549 0.4465 -0.8931
vn 0.0605 -0.6171 -0.7846
vn 0.0405 -0.4541 -0.8900
vn 0.0394 -0.4453 -0.8945
vn 0.0587 -0.9983 0.0043
vn 0.0590 -0.9983 0.0002
vn 0.0586 -0.9983 0.0044
vn 0.9567 0.2872 -0.0466
vn 0.9582 0.2841 -0.0347
vn 0.9556 0.2894 -0.0552
vn -0.9578 0.2719 0.0937
vn -0.9761 -0.2156 0.0264
vn -0.9753 -0.2181 0.0353
vn -0.9746 -0.2199 0.0419
vn 0.0000 0.0000 1.0000
vn 0.0000 -0.7027 -0.7115
vn -0.0000 0.0007 -1.0000
vn 0.9578 -0.2719 -0.0937
vn 0.0000 -0.2107 0.9776
vn -0.0030 -1.0000 0.0002
vn -0.0030 -1.0000 0.0000
vn -0.0022 -0.4472 0.8944
vn -0.0022 -0.4473 0.8944
vn -0.0022 0.4472 0.8944
vn -0.7826 0.6226 0.0000
vn -0.8160 0.2585 0.5170
vn -0.8160 -0.2585 0.5170
vn -0.7826 -0.6226 0.0000
vn -0.0030 1.0000 0.0000
vn -0.0030 -1.0000 -0.0002
vn -0.0022 -0.4472 -0.8944
vn -0.0022 -0.4473 -0.8944
vn -0.0022 0.4472 -0.8944
vn -0.8160 0.2585 -0.5170
vn -0.8160 -0.2585 -0.5170
vn 0.0341 0.6316 0.7746
vn 0.0622 -0.6307 0.7735
vn 0.0586 -0.9983 -0.0044
vn 0.9556 0.2894 0.0552
vn -0.9765 -0.2146 -0.0225
vn 0.0341 0.6316 -0.7746
vn 0.0622 -0.6307 -0.7735
vn 0.9587 0.2828 -0.0296
vn -0.9765 -0.2146 0.0225
s 1
f 53/1/1 20/2/1 2/3/1
f 130/4/2 59/5/3 105/6/4
f 68/7/5 6/8/5 66/9/5
f 167/10/6 5/11/7 43/12/8
f 87/13/9 94/14/9 83/15/9
f 97/16/9 95/17/9 18/18/9
f 100/19/10 85/20/10 79/21/10
f 41/22/11 102/23/12 82/24/13
f 106/25/14 61/26/14 80/27/14
f 9/28/15 109/29/16 1/30/17
f 107/31/18 81/32/18 112/33/18
f 12/34/19 110/35/20 62/36/21
f 8/37/22 75/38/22 111/39/22
f 60/40/23 35/41/23 63/42/23
f 21/43/24 98/44/24 3/45/24
f 10/46/25 114/47/25 99/48/25
f 86/49/26 11/50/26 115/51/26
f 4/52/27 16/53/27 15/54/27
f 116/55/28 119/56/28 121/57/28
f 70/58/29 190/59/30 124/60/31
f 69/61/5 24/62/5 125/63/5
f 23/64/32 136/65/33 191/66/34
f 143/67/9 89/68/9 139/69/9
f 144/70/9 146/71/9 122/72/9
f 141/73/10 101/74/10 132/75/10
f 137/76/35 28/77/36 164/78/37
f 72/79/14 149/80/14 133/81/14
f 31/82/38 152/83/39 145/84/40
f 150/85/41 155/86/41 134/87/41
f 153/88/42 118/89/43 73/90/44
f 26/91/22 74/92/22 91/93/22
f 76/94/23 71/95/23 64/96/23
f 93/97/45 77/98/45 65/99/45
f 34/100/46 147/101/46 151/102/46
f 157/103/47 32/104/47 148/105/47
f 142/106/48 158/107/48 33/108/48
f 22/109/49 39/110/49 25/111/49
f 162/112/50 168/113/51 159/114/51
f 169/115/52 128/116/53 171/117/52
f 129/118/54 174/119/54 172/120/54
f 177/121/55 175/122/55 180/123/55
f 44/124/56 178/125/56 173/126/56
f 42/127/57 179/128/57 170/129/57
f 40/130/58 46/131/58 160/132/58
f 176/133/59 67/134/59 181/135/59
f 185/136/51 57/137/60 47/138/51
f 48/139/61 189/140/62 17/141/62
f 194/142/63 51/143/63 50/144/63
f 195/145/55 182/146/55 193/147/55
f 192/148/64 188/149/64 196/150/64
f 186/151/65 184/152/65 197/153/65
f 183/154/58 161/155/58 55/156/58
f 52/157/59 56/158/59 19/159/59
f 130/4/2 58/160/66 59/5/3
f 68/7/5 45/161/5 6/8/5
f 167/10/6 78/162/67 5/11/7
f 87/13/9 90/163/9 94/14/9
f 97/16/9 84/164/9 95/17/9
f 100/19/10 88/165/10 85/20/10
f 41/22/11 163/166/68 102/23/12
f 106/25/14 49/167/14 61/26/14
f 9/28/15 96/168/69 109/29/16
f 12/34/19 14/169/70 110/35/20
f 8/37/22 30/170/22 75/38/22
f 60/40/23 13/171/23 35/41/23
f 21/43/24 108/172/24 98/44/24
f 10/46/25 113/173/25 114/47/25
f 4/52/27 7/174/27 16/53/27
f 70/58/29 127/175/71 190/59/30
f 69/61/5 27/176/5 24/62/5
f 23/64/32 131/177/72 136/65/33
f 143/67/9 92/178/9 89/68/9
f 144/70/9 140/179/9 146/71/9
f 141/73/10 29/180/10 101/74/10
f 137/76/35 135/181/13 28/77/36
f 72/79/14 117/182/14 149/80/14
f 31/82/38 120/183/73 152/83/39
f 153/88/42 37/184/74 118/89/43
f 26/91/22 154/185/22 74/92/22
f 76/94/23 36/186/23 71/95/23
f 34/100/46 123/187/46 147/101/46
f 157/103/47 156/188/47 32/104/47
f 22/109/49 38/189/49 39/110/49
f 162/112/50 165/190/50 168/113/51
f 169/115/52 166/191/53 128/116/53
f 129/118/54 103/192/54 174/119/54
f 176/133/59 104/193/59 67/134/59
f 185/136/51 138/194/60 57/137/60
f 48/139/61 187/195/61 189/140/62
f 194/142/63 126/196/63 51/143/63
f 52/157/59 54/197/59 56/158/59
