# Blender v2.81 (sub 16) OBJ File: ''
# www.blender.org
o Tree2
v 3.548274 7.000000 -0.000000
v 3.548274 0.000000 0.000000
v -3.451726 7.000000 -0.000000
v -3.451726 0.000000 0.000000
v 3.548274 7.000000 -0.000000
v 3.548274 0.000000 0.000000
v -3.451726 7.000000 -0.000000
v -3.451726 0.000000 0.000000
v 0.000000 7.000000 3.574685
v -0.000000 0.000000 3.574685
v 0.000000 7.000000 -3.425315
v -0.000000 0.000000 -3.425315
v 0.000000 7.000000 3.574685
v -0.000000 0.000000 3.574685
v 0.000000 7.000000 -3.425315
v -0.000000 0.000000 -3.425315
v 2.509008 7.000000 -2.509009
v 2.509009 0.000000 -2.509009
v -2.440739 7.000000 2.440739
v -2.440738 0.000000 2.440739
v 2.509008 7.000000 -2.509009
v 2.509009 0.000000 -2.509009
v -2.440739 7.000000 2.440739
v -2.440738 0.000000 2.440739
v 2.527684 7.000000 2.527683
v 2.527683 0.000000 2.527684
v -2.422063 7.000000 -2.422064
v -2.422064 0.000000 -2.422063
v 2.527684 7.000000 2.527683
v 2.527683 0.000000 2.527684
v -2.422063 7.000000 -2.422064
v -2.422064 0.000000 -2.422063
vt 0.120394 0.703638
vt 0.080945 0.664189
vt 0.120394 0.664189
vt 0.080945 0.664189
vt 0.120394 0.703638
vt 0.120394 0.664189
vt 0.120394 0.703638
vt 0.080945 0.664189
vt 0.120394 0.664189
vt 0.080945 0.664189
vt 0.120394 0.703638
vt 0.120394 0.664189
vt 0.120394 0.703638
vt 0.080945 0.664189
vt 0.120394 0.664189
vt 0.080945 0.664189
vt 0.120394 0.703638
vt 0.120394 0.664189
vt 0.120394 0.703638
vt 0.080945 0.664189
vt 0.120394 0.664189
vt 0.080945 0.664189
vt 0.120394 0.703638
vt 0.120394 0.664189
vt 0.080945 0.703638
vt 0.080945 0.703638
vt 0.080945 0.703638
vt 0.080945 0.703638
vt 0.080945 0.703638
vt 0.080945 0.703638
vt 0.080945 0.703638
vt 0.080945 0.703638
vn -0.0000 -0.0000 -1.0000
vn 0.0000 0.0000 1.0000
vn 1.0000 -0.0000 0.0000
vn -1.0000 0.0000 0.0000
vn -0.7071 -0.0000 -0.7071
vn 0.7071 0.0000 0.7071
vn 0.7071 -0.0000 -0.7071
vn -0.7071 0.0000 0.7071
s 1
f 2/1/1 3/2/1 1/3/1
f 7/4/2 6/5/2 5/6/2
f 10/7/3 11/8/3 9/9/3
f 15/10/4 14/11/4 13/12/4
f 18/13/5 19/14/5 17/15/5
f 23/16/6 22/17/6 21/18/6
f 26/19/7 27/20/7 25/21/7
f 31/22/8 30/23/8 29/24/8
f 2/1/1 4/25/1 3/2/1
f 7/4/2 8/26/2 6/5/2
f 10/7/3 12/27/3 11/8/3
f 15/10/4 16/28/4 14/11/4
f 18/13/5 20/29/5 19/14/5
f 23/16/6 24/30/6 22/17/6
f 26/19/7 28/31/7 27/20/7
f 31/22/8 32/32/8 30/23/8
