# Blender v2.81 (sub 16) OBJ File: ''
# www.blender.org
o WaterBowlBig
v -0.500000 0.000000 1.500000
v -0.907101 1.000000 1.814202
v -0.500000 0.000000 -1.500000
v -0.907101 1.000000 -1.814202
v 0.500000 0.000000 1.500000
v 0.907101 1.000000 1.814202
v 0.500000 0.000000 -1.500000
v 0.907101 1.000000 -1.814202
v -1.000000 1.000000 2.000000
v -1.000000 1.000000 -2.000000
v 1.000000 1.000000 -2.000000
v 1.000000 1.000000 2.000000
v -0.637500 0.750000 -1.637500
v 0.637500 0.750000 -1.637500
v 0.637500 0.750000 1.637500
v -0.637500 0.750000 1.637500
v -0.500000 0.000000 1.500000
v -1.000000 1.000000 2.000000
v -1.000000 1.000000 2.000000
v -1.000000 1.000000 2.000000
v -1.000000 1.000000 -2.000000
v -1.000000 1.000000 -2.000000
v -1.000000 1.000000 -2.000000
v -0.500000 0.000000 -1.500000
v 1.000000 1.000000 -2.000000
v 1.000000 1.000000 -2.000000
v 1.000000 1.000000 -2.000000
v 0.500000 0.000000 -1.500000
v 1.000000 1.000000 2.000000
v 1.000000 1.000000 2.000000
v 1.000000 1.000000 2.000000
v 0.500000 0.000000 1.500000
v -0.907101 1.000000 -1.814202
v -0.907101 1.000000 -1.814202
v -0.907101 1.000000 -1.814202
v -0.637500 0.750000 -1.637500
v -0.637500 0.750000 -1.637500
v 0.637500 0.750000 -1.637500
v 0.637500 0.750000 -1.637500
v 0.907101 1.000000 -1.814202
v 0.907101 1.000000 -1.814202
v 0.907101 1.000000 -1.814202
v -0.907101 1.000000 1.814202
v -0.907101 1.000000 1.814202
v -0.907101 1.000000 1.814202
v 0.907101 1.000000 1.814202
v 0.907101 1.000000 1.814202
v 0.907101 1.000000 1.814202
v -0.637500 0.750000 1.637500
v -0.637500 0.750000 1.637500
v 0.637500 0.750000 1.637500
v 0.637500 0.750000 1.637500
vt 0.453358 0.606615
vt 0.434573 0.672363
vt 0.434573 0.616007
vt 0.776930 0.684573
vt 0.758145 0.712750
vt 0.758145 0.693965
vt 0.633294 0.570184
vt 0.614509 0.635932
vt 0.614509 0.579577
vt 0.776212 0.428557
vt 0.757427 0.456735
vt 0.757427 0.437949
vt 0.571005 0.881578
vt 0.575702 0.852563
vt 0.575702 0.886643
vt 0.279929 0.531630
vt 0.281674 0.603281
vt 0.279929 0.599791
vt 0.245849 0.531630
vt 0.281674 0.528140
vt 0.279929 0.531630
vt 0.245848 0.599791
vt 0.244103 0.528140
vt 0.245849 0.531630
vt 0.279929 0.599791
vt 0.244103 0.603281
vt 0.245848 0.599791
vt 0.274864 0.596471
vt 0.279929 0.531630
vt 0.279929 0.599791
vt 0.881253 0.664509
vt 0.876556 0.635493
vt 0.881253 0.630429
vt 0.245849 0.531630
vt 0.250913 0.596471
vt 0.245848 0.599791
vt 0.274864 0.596471
vt 0.250913 0.534950
vt 0.274864 0.534950
vt 0.453358 0.681755
vt 0.776930 0.722143
vt 0.633294 0.645325
vt 0.776212 0.466127
vt 0.571005 0.857627
vt 0.281674 0.528140
vt 0.244103 0.528140
vt 0.244103 0.603281
vt 0.281674 0.603281
vt 0.274864 0.534950
vt 0.876556 0.659444
vt 0.250913 0.534950
vt 0.250913 0.596471
vn -0.8944 -0.4472 0.0000
vn 0.0000 -0.4472 -0.8944
vn 0.8944 -0.4472 0.0000
vn 0.0000 -0.4472 0.8944
vn 0.0000 0.5772 0.8166
vn 0.0000 1.0000 0.0000
vn 0.6799 0.7333 0.0000
vn 0.0000 0.5772 -0.8166
vn -0.6799 0.7333 0.0000
s 1
f 18/1/1 24/2/1 17/3/1
f 22/4/2 28/5/2 3/6/2
f 26/7/3 32/8/3 7/9/3
f 30/10/4 1/11/4 5/12/4
f 36/13/5 40/14/5 33/15/5
f 34/16/6 20/17/6 43/18/6
f 41/19/6 10/20/6 35/21/6
f 46/22/6 11/23/6 42/24/6
f 44/25/6 12/26/6 47/27/6
f 49/28/7 4/29/7 45/30/7
f 48/31/8 50/32/8 2/33/8
f 8/34/9 52/35/9 6/36/9
f 16/37/6 14/38/6 13/39/6
f 18/1/1 21/40/1 24/2/1
f 22/4/2 25/41/2 28/5/2
f 26/7/3 29/42/3 32/8/3
f 30/10/4 19/43/4 1/11/4
f 36/13/5 38/44/5 40/14/5
f 34/16/6 23/45/6 20/17/6
f 41/19/6 27/46/6 10/20/6
f 46/22/6 31/47/6 11/23/6
f 44/25/6 9/48/6 12/26/6
f 49/28/7 37/49/7 4/29/7
f 48/31/8 51/50/8 50/32/8
f 8/34/9 39/51/9 52/35/9
f 16/37/6 15/52/6 14/38/6
