# Blender v2.81 (sub 16) OBJ File: ''
# www.blender.org
o WindmillBlades
v 6.501170 0.501615 0.289585
v 6.501170 7.501595 -1.789483
v 6.501170 0.501565 -0.289592
v 6.501170 7.501595 -1.789483
v 6.501170 7.501579 1.789707
v 7.001561 7.501595 -1.789483
v 6.501170 0.501565 -0.289592
v 7.001561 7.501595 -1.789483
v 7.001561 0.501565 -0.289592
v 6.501170 0.501615 0.289585
v 7.001561 7.501595 -1.789483
v 6.501170 7.501579 1.789707
v 7.001561 0.501615 0.289585
v 7.501170 -0.000011 0.000029
v 7.001561 0.501565 -0.289592
v 7.001561 0.501615 0.289585
v 7.001561 0.501565 -0.289592
v 6.501170 0.501615 0.289585
v 6.501170 0.501565 -0.289592
v 6.501170 2.201056 -7.391313
v 6.501170 -0.000021 -0.579201
v 6.501170 2.201056 -7.391313
v 6.501170 5.300718 -5.601704
v 7.001561 2.201056 -7.391313
v 6.501170 -0.000021 -0.579201
v 7.001561 2.201056 -7.391313
v 7.001561 -0.000021 -0.579201
v 6.501170 0.501565 -0.289592
v 7.001561 2.201056 -7.391313
v 6.501170 5.300718 -5.601704
v 7.001561 0.501565 -0.289592
v 7.501170 -0.000011 0.000029
v 7.001561 -0.000021 -0.579201
v 7.001561 0.501565 -0.289592
v 7.001561 -0.000021 -0.579201
v 6.501170 0.501565 -0.289592
v 6.501170 -0.000021 -0.579201
v 6.501170 -5.300538 -5.601827
v 6.501170 -0.501578 -0.289569
v 6.501170 -5.300538 -5.601827
v 6.501170 -2.200860 -7.391408
v 7.001561 -5.300538 -5.601827
v 7.001561 -0.501615 -0.289581
v 6.501170 -5.300538 -5.601827
v 7.001561 -5.300538 -5.601827
v 6.501170 -0.000021 -0.579201
v 7.001561 -5.300538 -5.601827
v 6.501170 -2.200860 -7.391408
v 7.001561 -0.000021 -0.579201
v 7.501170 -0.000011 0.000029
v 7.001561 -0.501615 -0.289581
v 7.001561 -0.000021 -0.579201
v 7.001561 -0.501615 -0.289581
v 6.501170 -0.000021 -0.579201
v 6.501170 -0.501578 -0.289569
v 6.501170 -7.501595 1.789488
v 6.501170 -0.501565 0.289596
v 6.501170 -7.501595 1.789488
v 6.501170 -7.501578 -1.789702
v 7.001561 -7.501595 1.789488
v 7.001561 -0.501594 0.289621
v 6.501170 -7.501595 1.789488
v 7.001561 -7.501595 1.789488
v 6.501170 -0.501578 -0.289569
v 7.001561 -7.501595 1.789488
v 6.501170 -7.501578 -1.789702
v 7.001561 -0.501615 -0.289581
v 7.501170 -0.000011 0.000029
v 7.001561 -0.501594 0.289621
v 7.001561 -0.501615 -0.289581
v 7.001561 -0.501594 0.289621
v 6.501170 -0.501578 -0.289569
v 6.501170 -0.501565 0.289596
v 6.501170 -2.201056 7.391317
v 6.501170 0.000013 0.579167
v 6.501170 -2.201056 7.391317
v 6.501170 -5.300719 5.601708
v 7.001561 -2.201056 7.391317
v 6.501170 0.000013 0.579167
v 7.001561 -2.201056 7.391317
v 7.001561 0.000013 0.579167
v 6.501170 -0.501565 0.289596
v 7.001561 -2.201056 7.391317
v 6.501170 -5.300719 5.601708
v 7.001561 -0.501594 0.289621
v 7.501170 -0.000011 0.000029
v 7.001561 0.000013 0.579167
v 7.001561 -0.501594 0.289621
v 7.001561 0.000013 0.579167
v 6.501170 -0.501565 0.289596
v 6.501170 0.000013 0.579167
v 6.501170 5.300537 5.601832
v 6.501170 0.501615 0.289585
v 6.501170 5.300537 5.601832
v 6.501170 2.200859 7.391412
v 7.001561 5.300537 5.601832
v 6.501170 0.501615 0.289585
v 7.001561 5.300537 5.601832
v 7.001561 0.501615 0.289585
v 6.501170 0.000013 0.579167
v 7.001561 5.300537 5.601832
v 6.501170 2.200859 7.391412
v 7.001561 0.000013 0.579167
v 7.501170 -0.000011 0.000029
v 7.001561 0.501615 0.289585
v 7.001561 0.000013 0.579167
v 7.001561 0.501615 0.289585
v 6.501170 0.000013 0.579167
v 6.501170 7.501579 1.789707
v 6.501170 7.501595 -1.789483
v 7.001561 0.501565 -0.289592
v 6.501170 5.300718 -5.601704
v 6.501170 2.201056 -7.391313
v 7.001561 -0.000021 -0.579201
v 6.501170 -2.200860 -7.391408
v 6.501170 -0.501578 -0.289569
v 7.001561 -0.501615 -0.289581
v 6.501170 -7.501578 -1.789702
v 6.501170 -0.501565 0.289596
v 7.001561 -0.501594 0.289621
v 6.501170 -5.300719 5.601708
v 6.501170 -2.201056 7.391317
v 7.001561 0.000013 0.579167
v 6.501170 2.200859 7.391412
v 6.501170 5.300537 5.601832
v 7.001561 0.501615 0.289585
vt 0.025368 0.784082
vt 0.102771 0.807059
vt 0.025368 0.790483
vt 0.515891 0.750393
vt 0.515891 0.789970
vt 0.510361 0.750392
vt 0.887224 0.446876
vt 0.881694 0.526036
vt 0.881694 0.446876
vt 0.594115 0.359461
vt 0.671519 0.335828
vt 0.671519 0.375579
vt 0.882245 0.431424
vt 0.880159 0.425389
vt 0.886430 0.426577
vt 0.882245 0.431424
vt 0.886430 0.426577
vt 0.886430 0.435041
vt 0.025368 0.784082
vt 0.102771 0.807059
vt 0.025368 0.790483
vt 0.515891 0.750393
vt 0.515891 0.789970
vt 0.510361 0.750392
vt 0.887224 0.446876
vt 0.881694 0.526036
vt 0.881694 0.446876
vt 0.594115 0.359461
vt 0.671519 0.335828
vt 0.671519 0.375579
vt 0.882245 0.431424
vt 0.880159 0.425389
vt 0.886430 0.426577
vt 0.882245 0.431424
vt 0.886430 0.426577
vt 0.886430 0.435041
vt 0.025368 0.784082
vt 0.102771 0.807059
vt 0.025368 0.790483
vt 0.515891 0.750393
vt 0.515891 0.789970
vt 0.510361 0.750392
vt 0.881694 0.446876
vt 0.887224 0.526036
vt 0.881694 0.526036
vt 0.594115 0.359461
vt 0.671519 0.335828
vt 0.671519 0.375579
vt 0.882245 0.431424
vt 0.880159 0.425389
vt 0.886430 0.426577
vt 0.882245 0.431424
vt 0.886430 0.426577
vt 0.886430 0.435041
vt 0.025368 0.784082
vt 0.102771 0.807059
vt 0.025368 0.790483
vt 0.515891 0.750393
vt 0.515891 0.789970
vt 0.510361 0.750392
vt 0.881694 0.446876
vt 0.887224 0.526036
vt 0.881694 0.526036
vt 0.594115 0.359461
vt 0.671519 0.335828
vt 0.671519 0.375579
vt 0.882245 0.431424
vt 0.880159 0.425389
vt 0.886430 0.426577
vt 0.882245 0.431424
vt 0.886430 0.426577
vt 0.886430 0.435041
vt 0.025368 0.784082
vt 0.102771 0.807059
vt 0.025368 0.790483
vt 0.515891 0.750393
vt 0.515891 0.789970
vt 0.510361 0.750392
vt 0.887224 0.446876
vt 0.881694 0.526036
vt 0.881694 0.446876
vt 0.594115 0.359461
vt 0.671519 0.335828
vt 0.671519 0.375579
vt 0.882245 0.431424
vt 0.880159 0.425389
vt 0.886430 0.426577
vt 0.882245 0.431424
vt 0.886430 0.426577
vt 0.886430 0.435041
vt 0.025368 0.784082
vt 0.102771 0.807059
vt 0.025368 0.790483
vt 0.515891 0.750393
vt 0.515891 0.789970
vt 0.510361 0.750392
vt 0.887224 0.446876
vt 0.881694 0.526036
vt 0.881694 0.446876
vt 0.594115 0.359461
vt 0.671519 0.335828
vt 0.671519 0.375579
vt 0.882245 0.431424
vt 0.880159 0.425389
vt 0.886430 0.426577
vt 0.882245 0.431424
vt 0.886430 0.426577
vt 0.886430 0.435041
vt 0.102771 0.767503
vt 0.887224 0.526036
vt 0.594115 0.351944
vt 0.102771 0.767503
vt 0.887224 0.526036
vt 0.594115 0.351944
vt 0.102771 0.767503
vt 0.887224 0.446876
vt 0.594115 0.351944
vt 0.102771 0.767503
vt 0.887224 0.446876
vt 0.594115 0.351944
vt 0.102771 0.767503
vt 0.887224 0.526036
vt 0.594115 0.351944
vt 0.102771 0.767503
vt 0.887224 0.526036
vt 0.594115 0.351944
vn -1.0000 -0.0000 0.0000
vn 0.0000 1.0000 0.0000
vn 0.0000 -0.2095 -0.9778
vn 0.8462 0.0953 0.5244
vn 0.9837 -0.0172 0.1787
vn 0.9899 -0.0297 0.1384
vn 0.7085 0.7057 -0.0001
vn 0.0000 1.0000 -0.0001
vn 0.0000 0.5000 -0.8660
vn 0.0000 -0.9516 -0.3075
vn 0.8462 0.5017 0.1797
vn 0.9837 0.1462 0.1043
vn 0.9899 0.1050 0.0949
vn 0.7085 0.3529 -0.6111
vn 0.0000 -0.5000 -0.8660
vn -0.0000 -0.7420 0.6703
vn 0.8462 0.4065 -0.3447
vn 0.9837 0.1634 -0.0744
vn 0.9899 0.1347 -0.0435
vn 0.7085 -0.3529 -0.6111
vn 0.0000 -1.0000 -0.0000
vn -0.0000 0.2095 0.9778
vn 0.8462 -0.0952 -0.5243
vn 0.9837 0.0172 -0.1787
vn 0.9899 0.0297 -0.1384
vn 0.7085 -0.7057 0.0000
vn -0.0001 -1.0000 0.0000
vn 0.0000 -0.5000 0.8660
vn 0.0000 0.9516 0.3075
vn 0.8462 -0.5017 -0.1797
vn 0.9837 -0.1462 -0.1043
vn 0.9899 -0.1050 -0.0949
vn 0.7085 -0.3528 0.6112
vn -0.0001 -0.4999 0.8661
vn 0.0000 0.5000 0.8660
vn 0.0000 0.7420 -0.6703
vn 0.8462 -0.4065 0.3447
vn 0.9837 -0.1634 0.0744
vn 0.9899 -0.1347 0.0435
vn 0.7085 0.3528 0.6112
vn 0.7494 0.1387 0.6474
vn 0.7494 0.6301 0.2036
vn 0.7494 0.4913 -0.4438
vn 0.7494 -0.1387 -0.6474
vn 0.7494 -0.6301 -0.2036
vn 0.7494 -0.4913 0.4439
s 1
f 1/1/1 2/2/1 3/3/1
f 4/4/2 5/5/2 6/6/2
f 7/7/3 8/8/3 9/9/3
f 10/10/4 11/11/5 12/12/6
f 13/13/7 14/14/7 15/15/7
f 16/16/8 17/17/8 18/18/8
f 19/19/1 20/20/1 21/21/1
f 22/22/9 23/23/9 24/24/9
f 25/25/10 26/26/10 27/27/10
f 28/28/11 29/29/12 30/30/13
f 31/31/14 32/32/14 33/33/14
f 34/34/9 35/35/9 36/36/9
f 37/37/1 38/38/1 39/39/1
f 40/40/15 41/41/15 42/42/15
f 43/43/16 44/44/16 45/45/16
f 46/46/17 47/47/18 48/48/19
f 49/49/20 50/50/20 51/51/20
f 52/52/15 53/53/15 54/54/15
f 55/55/1 56/56/1 57/57/1
f 58/58/21 59/59/21 60/60/21
f 61/61/22 62/62/22 63/63/22
f 64/64/23 65/65/24 66/66/25
f 67/67/26 68/68/26 69/69/26
f 70/70/27 71/71/27 72/72/27
f 73/73/1 74/74/1 75/75/1
f 76/76/28 77/77/28 78/78/28
f 79/79/29 80/80/29 81/81/29
f 82/82/30 83/83/31 84/84/32
f 85/85/33 86/86/33 87/87/33
f 88/88/34 89/89/34 90/90/34
f 91/91/1 92/92/1 93/93/1
f 94/94/35 95/95/35 96/96/35
f 97/97/36 98/98/36 99/99/36
f 100/100/37 101/101/38 102/102/39
f 103/103/40 104/104/40 105/105/40
f 106/106/35 107/107/35 108/108/35
f 1/1/1 109/109/1 2/2/1
f 7/7/3 110/110/3 8/8/3
f 10/10/4 111/111/41 11/11/5
f 19/19/1 112/112/1 20/20/1
f 25/25/10 113/113/10 26/26/10
f 28/28/11 114/114/42 29/29/12
f 37/37/1 115/115/1 38/38/1
f 43/43/16 116/116/16 44/44/16
f 46/46/17 117/117/43 47/47/18
f 55/55/1 118/118/1 56/56/1
f 61/61/22 119/119/22 62/62/22
f 64/64/23 120/120/44 65/65/24
f 73/73/1 121/121/1 74/74/1
f 79/79/29 122/122/29 80/80/29
f 82/82/30 123/123/45 83/83/31
f 91/91/1 124/124/1 92/92/1
f 97/97/36 125/125/36 98/98/36
f 100/100/37 126/126/46 101/101/38
